<svg id="Layer_2" data-name="Layer 2" xmlns="http://www.w3.org/2000/svg" xmlns:xlink="http://www.w3.org/1999/xlink" viewBox="0 0 350 220"><defs><style>.cls-1,.cls-2,.cls-3{fill:#df1f9e;}.cls-2,.cls-3{stroke-miterlimit:10;}.cls-2{stroke:url(#linear-gradient);}.cls-3{stroke:url(#linear-gradient-2);}.cls-4{fill:#520f47;}.cls-5{fill:#bf009a;}.cls-6{fill:#ce00e9;}.cls-7{fill:#fff;}.cls-8{fill:#533118;}</style><linearGradient id="linear-gradient" x1="172.31" y1="180.15" x2="185.28" y2="180.15" gradientUnits="userSpaceOnUse"><stop offset="0"/><stop offset="1" stop-color="#fff"/></linearGradient><linearGradient id="linear-gradient-2" x1="184.28" y1="168.35" x2="197.26" y2="168.35" xlink:href="#linear-gradient"/></defs><title>Owl</title><path class="cls-1" d="M152.83,29l-.19-20.88a2.42,2.42,0,0,1,4.31-1.55l17.92,22.11Z"/><rect class="cls-1" x="160.83" y="131.15" width="11.98" height="74.4" rx="5.99" ry="5.99"/><rect class="cls-2" x="172.81" y="142.95" width="11.98" height="74.4" rx="5.99" ry="5.99"/><rect class="cls-3" x="184.78" y="131.15" width="11.98" height="74.4" rx="5.99" ry="5.99"/><path class="cls-1" d="M211,29l.19-20.88a2.42,2.42,0,0,0-4.31-1.55L189,28.71Z"/><ellipse class="cls-4" cx="180.16" cy="82.28" rx="46.47" ry="73.48"/><polygon class="cls-1" points="181.15 84.99 167.12 67.77 194.84 67.34 181.15 84.99"/><rect class="cls-5" x="157.55" y="48.04" width="46.86" height="23.58"/><ellipse class="cls-6" cx="163.09" cy="53.4" rx="17.89" ry="18.76"/><ellipse class="cls-7" cx="163.09" cy="53.4" rx="13.21" ry="16.62"/><ellipse cx="163.09" cy="59.3" rx="6.39" ry="8.04"/><ellipse class="cls-6" cx="198.87" cy="53.4" rx="17.89" ry="18.76"/><ellipse class="cls-7" cx="198.87" cy="53.4" rx="13.21" ry="16.62"/><ellipse cx="198.87" cy="59.3" rx="6.39" ry="8.04"/><path class="cls-1" d="M226.17,82.82a27.48,27.48,0,0,0-3.06,1.1c-18,7.73-26.79,33.65-19.64,57.88a55.48,55.48,0,0,0,6.11,13.7C223.81,139.28,230.26,111.73,226.17,82.82Z"/><path class="cls-1" d="M134.91,80.48a27.48,27.48,0,0,1,3.06,1.1c18,7.73,26.79,33.65,19.64,57.88a55.48,55.48,0,0,1-6.11,13.7C137.27,136.94,130.82,109.4,134.91,80.48Z"/><path class="cls-1" d="M168.13,128.7c0-1.65,1-3,2.24-3s2.24,1.34,2.24,3v.63h2.24v-.63c0-3.29-2-6-4.47-6s-4.47,2.68-4.47,6v.63h2.24Z"/><ellipse class="cls-1" cx="173.72" cy="129.24" rx="1.12" ry="0.78"/><ellipse class="cls-1" cx="167.01" cy="129.24" rx="1.12" ry="0.78"/><path class="cls-1" d="M184.5,128.36c0-1.65,1-3,2.24-3s2.24,1.34,2.24,3V129h2.24v-.63c0-3.29-2-6-4.47-6s-4.47,2.68-4.47,6V129h2.24Z"/><ellipse class="cls-1" cx="190.09" cy="128.9" rx="1.12" ry="0.78"/><ellipse class="cls-1" cx="183.38" cy="128.9" rx="1.12" ry="0.78"/><rect class="cls-8" x="102.53" y="128.71" width="163.47" height="15.29" rx="6.41" ry="6.41"/><path class="cls-8" d="M141.1,142.63h0c-2.68,2.12-6.24,1.09-7.92-2.3L111.71,97.07c-1.68-3.38-.86-7.88,1.82-10h0c2.68-2.12,6.24-1.09,7.92,2.3l21.47,43.26C144.6,136,143.78,140.51,141.1,142.63Z"/><path class="cls-8" d="M112.57,195.78h0c-3-1.31-4.58-5.46-3.55-9.24l13.24-48.23c1-3.77,4.33-5.79,7.31-4.48h0c3,1.31,4.58,5.46,3.55,9.24L119.88,191.3C118.85,195.07,115.56,197.09,112.57,195.78Z"/><path class="cls-1" d="M192.3,99.56c-.61-1.52-1.83-1.91-2.73-.88l-1.36,1.58-.94-1.44c-.81-1.23-2-1.12-2.77.25h0a5.1,5.1,0,0,0,.15,4.7l.23.35,3,4.59,3.34-3.86.57-.66A4.94,4.94,0,0,0,192.3,99.56Z"/><path class="cls-1" d="M177.11,103.11a4.94,4.94,0,0,0,.52-4.63h0c-.61-1.52-1.83-1.91-2.73-.88l-1.36,1.58-.94-1.44c-.81-1.23-2-1.12-2.77.25a5.1,5.1,0,0,0,.15,4.7l.23.35,3,4.59,3.34-3.86Z"/><path class="cls-1" d="M181.47,105.2l-1.36,1.58-.94-1.44c-.81-1.23-2-1.12-2.77.25a5.1,5.1,0,0,0,.15,4.7l.23.35,3,4.59,3.34-3.86.57-.66a4.94,4.94,0,0,0,.52-4.63C183.59,104.56,182.37,104.16,181.47,105.2Z"/></svg>