<?xml version="1.0" encoding="utf-8"?>
<!-- Generator: Adobe Illustrator 21.0.2, SVG Export Plug-In . SVG Version: 6.00 Build 0)  -->
<svg version="1.1" id="Ello" xmlns="http://www.w3.org/2000/svg" xmlns:xlink="http://www.w3.org/1999/xlink" x="0px" y="0px"
	 viewBox="0 0 46 46" style="enable-background:new 0 0 46 46;" xml:space="preserve">
<style type="text/css">
	.st0{fill:#FFFFFF;}
	.st1{fill:#FCBA28;}
</style>
<symbol  id="Ello_1_" viewBox="-256 -256 512 512">
	<g>
		<path d="M256,0c0-141.4-114.6-256-256-256c-141.4,0-256,114.6-256,256S-141.4,256,0,256C141.4,256,256,141.4,256,0z"/>
	</g>
	<g>
		<path class="st0" d="M0-153.6c-70,0-131.1,47.4-148.6,115.2c-2,7.8,2.7,15.8,10.5,17.8c7.8,2,15.8-2.7,17.8-10.5
			C-106.1-86-56.6-124.3,0-124.3c56.6,0,106.1,38.4,120.2,93.3c2,7.8,10,12.6,17.8,10.5c7.8-2,12.5-10,10.5-17.8
			C131.1-106.2,70-153.6,0-153.6z"/>
	</g>
</symbol>
<use xlink:href="#Ello_1_"  width="512" height="512" x="-256" y="-256" transform="matrix(5.468750e-02 0 0 -5.664063e-02 24 22.5)" style="overflow:visible;"/>
<g id="Layer_12">
	
		<use xlink:href="#Ello_1_"  width="512" height="512" x="-256" y="-256" transform="matrix(5.468750e-02 0 0 -5.664063e-02 24 21.5)" style="display:none;overflow:visible;"/>
	<g>
		<ellipse cx="24" cy="22.5" rx="14" ry="14.5"/>
	</g>
	<g>
		<g>
			<path class="st1" d="M24,31.2c-3.8,0-7.2-2.7-8.1-6.5c-0.1-0.4,0.1-0.9,0.6-1c0.4-0.1,0.9,0.2,1,0.6c0.8,3.1,3.5,5.3,6.6,5.3
				c3.1,0,5.8-2.2,6.6-5.3c0.1-0.4,0.5-0.7,1-0.6c0.4,0.1,0.7,0.6,0.6,1C31.2,28.5,27.8,31.2,24,31.2z"/>
		</g>
	</g>
</g>
</svg>
