<?xml version="1.0" encoding="utf-8"?>
<!-- Generator: Adobe Illustrator 21.0.2, SVG Export Plug-In . SVG Version: 6.00 Build 0)  -->
<svg version="1.1" id="Layer_1" xmlns="http://www.w3.org/2000/svg" xmlns:xlink="http://www.w3.org/1999/xlink" x="0px" y="0px"
	 viewBox="0 0 60 60" style="enable-background:new 0 0 60 60;" xml:space="preserve">
<style type="text/css">
	.st0{fill:none;stroke:#117853;stroke-width:6;stroke-miterlimit:10;}
	.st1{opacity:0.1;fill:#FFFFFF;}
	.st2{fill:#0000FF;}
	.st3{opacity:0.2;fill:#FAFAFA;}
</style>
<g id="Arrow_10">
</g>
<g>
	<g>
		<path class="st0" d="M55,23.1l0,23.7C55,52.4,50.1,57,44,57l-25.6,0c-6.1,0-11-4.6-11-10.2l0-23.7c0-5.6,4.9-10.2,11-10.2l25.6,0
			C50,12.9,55,17.5,55,23.1z"/>
		<path class="st1" d="M55,23.1l0,23.7C55,52.4,50.1,57,44,57l-25.6,0c-6.1,0-11-4.6-11-10.2l0-23.7c0-5.6,4.9-10.2,11-10.2l25.6,0
			C50,12.9,55,17.5,55,23.1z"/>
	</g>
	<path class="st2" d="M33.5,0.2l4.5,5.5c0,0-33.3,9.1-22,30.2c0.8-2.7,6.1-9.5,11.4-13.1c5-3.6,11.4-6.5,19.1-6.4l4.3,5.2l4.8-18
		L33.5,0.2z"/>
	<path class="st3" d="M33.5,0.2l4.5,5.5c0,0-33.3,9.1-22,30.2c0.8-2.7,6.1-9.5,11.4-13.1c5-3.6,11.4-6.5,19.1-6.4l4.3,5.2l4.8-18
		L33.5,0.2z"/>
	<g>
		<path class="st2" d="M16.1,35.8c0.9-2.1,4.8-8.2,11.4-13.1C22.2,26.3,16.9,33.1,16.1,35.8z"/>
		<path class="st2" d="M16.1,35.8c6.5,14.2,15.7,19.5,15.7,19.5l-1.3-11l12.7,2.2C24.8,34.1,28.7,22,28.7,22
			c-0.4,0.2-0.8,0.5-1.1,0.8C20.9,27.6,17,33.8,16.1,35.8z"/>
	</g>
</g>
</svg>
