<?xml version="1.0" encoding="utf-8"?>
<!-- Generator: Adobe Illustrator 21.0.2, SVG Export Plug-In . SVG Version: 6.00 Build 0)  -->
<svg version="1.1" xmlns="http://www.w3.org/2000/svg" xmlns:xlink="http://www.w3.org/1999/xlink" x="0px" y="0px"
	 viewBox="0 0 46 46" style="enable-background:new 0 0 46 46;" xml:space="preserve">
<style type="text/css">
	.st0{display:none;}
	.st1{display:inline;fill:#CCCCCC;}
	.st2{display:inline;fill:#87CEFA;}
	.st3{display:inline;fill:none;}
	.st4{opacity:0.1;fill:#45003A;}
	.st5{font-family:'MyriadPro-It';}
	.st6{font-size:0.5px;}
	.st7{fill:#45003A;}
	.st8{display:inline;opacity:0.5;fill:#B1FFF4;}
	.st9{display:inline;opacity:0.5;fill:none;stroke:#000000;stroke-width:0.1;stroke-miterlimit:10;}
	.st10{display:inline;opacity:0.82;fill:#F5F5F5;stroke:#000000;stroke-width:0.1;stroke-miterlimit:10;}
	.st11{display:inline;fill:#111111;stroke:#000000;stroke-miterlimit:10;}
	.st12{display:inline;}
	.st13{fill:none;stroke:#000000;stroke-width:0.25;stroke-miterlimit:10;}
	.st14{font-family:'OpenSans-Semibold';}
	.st15{font-size:6.2939px;}
	.st16{fill:#6081C4;}
	.st17{fill:#FFFFFF;}
	.st18{fill:#32C5F0;}
	.st19{fill:#864C2D;}
	.st20{display:inline;fill:#43BDEF;}
	.st21{display:inline;fill:#FFFFFF;}
	.st22{display:inline;fill:#FCBA28;}
	.st23{display:inline;opacity:0.1;}
	.st24{font-family:'MyriadPro-Regular';}
	.st25{font-size:0.9073px;}
	.st26{fill:none;stroke:#3B5998;stroke-width:4;stroke-miterlimit:10;}
	.st27{fill:#3B5998;}
	.st28{fill:none;stroke:#6D84B4;stroke-width:4;stroke-miterlimit:10;}
	.st29{fill:#6D84B4;}
	.st30{display:none;fill:url(#SVGID_1_);}
</style>
<g id="Background_social_logo" class="st0">
	<rect class="st1" width="46" height="46"/>
</g>
<g id="Background" class="st0">
	<rect class="st2" width="46" height="46"/>
	<rect x="20.7" y="36.4" class="st3" width="6.3" height="0.6"/>
	<text transform="matrix(1.5017 0 0 1 20.6694 36.7973)" class="st4 st5 st6">Ibrandify / Freepik</text>
</g>
<g id="Portfolio" class="st0">
	<path class="st7" d="M21.6,15.5l10.7,6.7l-10.7,6.7l-10.7-6.7L21.6,15.5z M32.3,34.4l-3.2,2.1l-7.5-6.3l-7.5,6.3L11,34.4v2.4
		l10.6,6.5l10.6-6.5V34.4L32.3,34.4L32.3,34.4z M32.3,22.2l7.3-6l-10.6-7l-7.4,6.3l-7.4-6.3l-10.6,7l7.3,6l-7.3,6l10.6,7l7.4-6.3
		l7.4,6.3l10.6-7L32.3,22.2z"/>
	<path class="st3" d="M31.7,17.7l-7.5-4.7c-0.6-0.3-1.3-0.3-1.8,0L15,17.7c-1.1,0.7-1.1,2.3,0,2.9l7.5,4.7c0.6,0.3,1.3,0.3,1.8,0
		l7.5-4.7C32.8,20,32.8,18.4,31.7,17.7z"/>
	<path class="st3" d="M31.7,15.7l-7.5-4.7c-0.6-0.3-1.3-0.3-1.8,0L15,15.7c-1.1,0.7-1.1,2.3,0,2.9l7.5,4.7c0.6,0.3,1.3,0.3,1.8,0
		l7.5-4.7C32.8,18,32.8,16.4,31.7,15.7z"/>
	<path class="st8" d="M29.8,29.3l-5.3-4.5c-0.6-0.5-1.6-0.5-2.2,0l-5.3,4.5c-0.6,0.5-1.4,0.5-2.1,0.1l-1.6-1.1
		c-0.3,0.2-0.5,0.5-0.5,0.8c0,0.3,0.2,0.7,0.5,0.8l6.4,3.9c2.3,1.4,5.3,1.4,7.6,0l6-3.6c0.5-0.3,0.8-0.9,0.8-1.5V28l-2.2,1.4
		C31.2,29.9,30.4,29.8,29.8,29.3z"/>
	<path class="st8" d="M35.7,18.5c-0.9-0.7-0.9-2,0-2.7l3.9-3.1c0.9-0.7,0.8-2.1-0.1-2.8l-7.6-5c-0.6-0.4-1.5-0.4-2.1,0.1l-5.3,4.5
		c-0.6,0.5-1.6,0.5-2.2,0L16.9,5c-0.6-0.5-1.4-0.5-2.1-0.1l-7.6,5c-1,0.6-1,2-0.1,2.8l3.9,3.1c0.9,0.7,0.9,2,0,2.7l-3.9,3.1
		c-0.9,0.7-0.8,2.1,0.1,2.8l5.9,3.9c0.3-0.2,0.7-0.2,1,0l0.6,0.4c0.6,0.4,1.5,0.4,2.1-0.1l4.2-3.5c1.3-1.1,3.2-1.1,4.6,0l3.3,2.8
		c1.1,0.9,2.7,1,3.9,0.2l1.1-0.8V28l5.4-3.6c1-0.6,1-2,0.1-2.8L35.7,18.5z M31.7,18.6l-7.5,4.7c-0.6,0.3-1.3,0.3-1.8,0L15,18.6
		c-1.1-0.7-1.1-2.3,0-2.9l7.5-4.7c0.6-0.3,1.3-0.3,1.8,0l7.5,4.7C32.8,16.4,32.8,18,31.7,18.6z"/>
	<path class="st8" d="M32.9,28.1c-1.2,0.8-2.8,0.7-3.9-0.2l-3.3-2.8c-1.3-1.1-3.2-1.1-4.6,0l-4.2,3.5c-0.6,0.5-1.4,0.5-2.1,0.1
		l-0.6-0.4c-0.3-0.2-0.7-0.2-1,0l1.6,1.1c0.6,0.4,1.5,0.4,2.1-0.1l5.3-4.5c0.6-0.5,1.6-0.5,2.2,0l5.3,4.5c0.6,0.5,1.4,0.5,2.1,0.1
		L34,28v-0.6L32.9,28.1z"/>
	<line class="st9" x1="23" y1="35" x2="23" y2="24"/>
</g>
<g id="News" class="st0">
	<polygon class="st10" points="26.9,13.6 26.9,17.5 31,17.5 	"/>
	<polygon class="st10" points="25.2,19.1 25.2,13 14,13 14,33 32,33 32,19.1 	"/>
	<path class="st11" d="M15.5,21.4c0,0-0.8-1.1,2.5-0.7c3.3,0.4,1.7,0.7,1.7,0.7s1.7,0,3.3-0.4c1.7-0.4,4.2,0.4,4.2,0.4
		s2.5-0.4,2.5-0.7"/>
	<path class="st11" d="M15.5,26.2c0,0-0.8-1.3,2.5-0.9s1.7,0.9,1.7,0.9s1.7,0,3.3-0.4c1.7-0.4,4.2,0.4,4.2,0.4s2.5-0.4,2.5-0.9"/>
	<path class="st11" d="M15.5,30.2c0,0-0.8-1.3,2.5-0.9s1.7,0.9,1.7,0.9s1.7,0,3.3-0.4c1.7-0.4,4.2,0.4,4.2,0.4s2.5-0.4,2.5-0.9"/>
</g>
<g id="Layer_9" class="st0">
	<g id="Head" class="st12">
		<path class="st13" d="M22.5,1.8"/>
		<g>
			<path d="M45,34.8c-0.2-1.2-0.3-3.1,0-5.3c0.4-2.8,1.1-3.4,1-5.3c-0.1-3.7-2.8-6.2-3-6.4c-2.6-2.3-5.6-2.2-7-2.1
				c-1,0-3.5,0.3-6,2.1c-1.3,0.9-2.4,1.7-3,3.2c-1,2.4,0.2,4.1-1,6.4c-0.7,1.3-2,1.3-2,2.1c0.1,1.1,2.4,1.4,2.5,2.7
				c0.1,0.9-1.2,1.4-1,2.1c0.2,0.8,2,0.7,2,1.1c0,0.4-1.9,0.5-2,1.1c-0.1,0.6,1.5,0.8,2,2.1c0.4,1-0.3,1.6,0,2.1
				c0.8,1.3,5.4-1.7,8,0c0.9,0.6,1.9,1.9,2,5.3"/>
			<path d="M2,34.8c0.2-1.2,0.3-3.1,0-5.3c-0.4-2.8-1.1-3.4-1-5.3c0.1-3.7,2.8-6.2,3-6.4c2.6-2.3,5.6-2.2,7-2.1c1,0,3.5,0.3,6,2.1
				c1.3,0.9,2.4,1.7,3,3.2c1,2.4-0.2,4.1,1,6.4c0.7,1.3,2,1.3,2,2.1c-0.1,1.1-2.4,1.4-2.5,2.7c-0.1,0.9,1.2,1.4,1,2.1
				c-0.2,0.8-2,0.7-2,1.1c0,0.4,1.9,0.5,2,1.1c0.1,0.6-1.5,0.8-2,2.1c-0.4,1,0.3,1.6,0,2.1c-0.8,1.3-5.4-1.7-8,0
				c-0.9,0.6-1.9,1.9-2,5.3"/>
		</g>
		<text transform="matrix(0.6106 0 0 1 5.9746 8.8813)" class="st14 st15">About</text>
		<text transform="matrix(0.6106 0 0 1 27.9736 8.8813)" class="st14 st15">US</text>
		<g>
			<path class="st13" d="M24.8,14.8c1.6-0.4,3.4-0.9,4.9-1.4c-2-0.2-3.8-0.6-5.4-1.2c-0.5,0.3-0.9,0.7-1.3,1"/>
			<path class="st13" d="M21.2,14.8c-0.6,0.6-0.9,0.9-0.9,0.9s1.1-0.2,2.7-0.5"/>
			<path class="st13" d="M23,11.7c0.4,0.2,0.8,0.4,1.3,0.5c1.6,0.6,3.4,1,5.4,1.2c0.9,0.1,1.7,0.1,2.6,0.1c7.6,0,13.7-3,13.7-6.7
				S39.9,0,32.3,0c-3.6,0-6.9,0.7-9.3,1.8"/>
		</g>
		<g>
			<path class="st13" d="M25.7,15.7c0,0-5.6-1-9.4-2.3c2-0.2,3.8-0.6,5.4-1.2C24,13.9,25.7,15.7,25.7,15.7z"/>
			<path class="st13" d="M13.7,0c7.6,0,13.7,3,13.7,6.7c0,2-1.7,3.7-4.4,4.9c-0.4,0.2-0.8,0.4-1.3,0.5c-1.6,0.6-3.4,1-5.4,1.2
				c-0.9,0.1-1.7,0.1-2.6,0.1C6.1,13.5,0,10.5,0,6.7S6.1,0,13.7,0z"/>
		</g>
	</g>
</g>
<g id="Twitter" class="st0">
	<g class="st12">
		<circle id="XMLID_21_" class="st16" cx="-282.5" cy="-130.8" r="56"/>
		<path id="XMLID_19_" class="st17" d="M-277.5-143.9v-5.3c0-2.6,1.7-3.2,2.9-3.2c1.2,0,7.4,0,7.4,0v-11.4l-10.3,0
			c-11.4,0-14,8.5-14,13.9v6h-6.6v8v5.3h6.6c0,15,0,33.2,0,33.2h13.3c0,0,0-18.3,0-33.2h9.8l0.5-5.2l0.7-8.1H-277.5z"/>
	</g>
	<g class="st12">
		<circle id="XMLID_76_" class="st18" cx="328.5" cy="-130.9" r="56"/>
		<path class="st17" d="M360.1-125.3c0.5-2.2,0.7-4.4,0.7-6.7c0-0.8,0-1.6-0.1-2.4c-1.2-16.1-14.9-28.8-31.6-28.8
			c-1.8,0-3.6,0.2-5.4,0.5c-2.8-1.8-6.2-2.8-9.8-2.8c-10.1,0-18.4,8.1-18.4,18.1c0,3.3,0.9,6.5,2.5,9.2c-0.2,1.1-0.4,2.3-0.5,3.4
			c-0.1,0.9-0.1,1.9-0.1,2.8c0,17.2,14.2,31.2,31.6,31.2c2,0,3.9-0.2,5.8-0.5c2.6,1.4,5.5,2.1,8.7,2.1c10.1,0,18.4-8.1,18.4-18.1
			C362-120.2,361.3-122.9,360.1-125.3z M345.4-117.1c-1.5,2-3.6,3.7-6.4,4.8c-2.8,1.1-6.1,1.7-9.9,1.7c-4.5,0-8.4-0.8-11.3-2.3
			c-2.1-1.1-3.9-2.7-5.2-4.6c-1.3-1.9-2-3.8-2-5.6c0-1.1,0.4-2.1,1.3-2.9c0.9-0.8,2-1.2,3.3-1.2c1.1,0,2,0.3,2.8,1
			c0.7,0.6,1.4,1.5,1.9,2.7c0.6,1.3,1.2,2.3,1.8,3.2c0.6,0.8,1.5,1.5,2.7,2c1.2,0.5,2.7,0.8,4.6,0.8c2.6,0,4.8-0.6,6.4-1.6
			c1.6-1.1,2.3-2.3,2.3-3.9c0-1.2-0.4-2.2-1.2-3c-0.9-0.8-2-1.4-3.4-1.8c-1.4-0.4-3.4-0.9-5.8-1.4c-3.3-0.7-6.1-1.5-8.3-2.4
			c-2.3-1-4.1-2.3-5.4-3.9c-0.4-0.5-0.8-1.1-1.1-1.8c-0.6-1.3-1-2.8-1-4.5c0-2.4,0.7-4.5,2.2-6.3c1.4-1.8,3.5-3.2,6.1-4.2
			c2.6-1,5.8-1.4,9.3-1.4c2.8,0,5.3,0.3,7.4,1c2.1,0.6,3.8,1.5,5.2,2.6c1.4,1.1,2.4,2.2,3.1,3.4c0.7,1.2,1,2.4,1,3.6
			c0,1.1-0.4,2.1-1.3,3c-0.9,0.9-2,1.3-3.3,1.3c-1.2,0-2.1-0.3-2.7-0.8c-0.6-0.5-1.2-1.3-1.9-2.5c-0.8-1.5-1.7-2.6-2.8-3.5
			c-1.1-0.8-2.8-1.2-5.3-1.2c-2.3,0-4.1,0.4-5.5,1.3c-1.3,0.9-2,1.8-2,3c0,0.7,0.2,1.3,0.6,1.8c0.4,0.5,1.1,1,1.9,1.4
			c0.8,0.4,1.7,0.7,2.5,1c0.2,0,0.3,0.1,0.5,0.1c0.9,0.2,2.2,0.5,3.8,0.9c2.6,0.5,4.9,1.1,7,1.8c2.1,0.7,3.9,1.5,5.4,2.4
			c1.5,1,2.7,2.2,3.6,3.7c0.9,1.5,1.3,3.3,1.3,5.5C347.6-121.5,346.9-119.2,345.4-117.1z"/>
	</g>
	<g class="st12">
		<circle id="XMLID_115_" class="st19" cx="-282.5" cy="22.3" r="56"/>
		<path class="st17" d="M-262.1-10.9h-40.7c-7.1,0-12.8,5.8-12.8,12.8v13.5v5v22.2c0,7.1,5.8,12.8,12.8,12.8h40.7
			c7.1,0,12.8-5.8,12.8-12.8V20.5v-5V1.9C-249.3-5.2-255.1-10.9-262.1-10.9z M-258.4-3.3l1.5,0v1.5V8l-11.2,0l0-11.2L-258.4-3.3z
			 M-292,15.5c2.1-2.9,5.6-4.9,9.5-4.9c3.9,0,7.3,1.9,9.5,4.9c0.3,0.4,0.5,0.7,0.7,1.1c1,1.7,1.5,3.6,1.5,5.7
			c0,6.4-5.2,11.7-11.7,11.7c-6.4,0-11.7-5.2-11.7-11.7c0-2.1,0.6-4,1.5-5.7C-292.4,16.2-292.2,15.8-292,15.5z M-255.8,42.6
			c0,3.5-2.9,6.4-6.4,6.4h-40.7c-3.5,0-6.4-2.9-6.4-6.4V18.9v-3.4h9.9c-0.2,0.6-0.5,1.2-0.6,1.9c-0.4,1.6-0.7,3.2-0.7,4.9
			c0,10,8.1,18.1,18.1,18.1c10,0,18.1-8.1,18.1-18.1c0-1.7-0.2-3.4-0.7-4.9c-0.2-0.6-0.4-1.3-0.6-1.9h9.9v3.4V42.6z"/>
	</g>
	<circle id="XMLID_49_" class="st20" cx="175.7" cy="175.5" r="56"/>
	<path id="XMLID_47_" class="st21" d="M208.9,158.4c-2.4,1.1-5.1,1.8-7.8,2.1c2.8-1.7,5-4.3,6-7.4c-2.6,1.5-5.5,2.7-8.6,3.3
		c-2.5-2.6-6-4.2-9.9-4.2c-7.5,0-13.6,6-13.6,13.4c0,1.1,0.1,2.1,0.3,3.1c-11.3-0.6-21.3-5.9-28.1-14c-1.2,2-1.8,4.3-1.8,6.7
		c0,4.6,2.4,8.7,6.1,11.2c-2.2-0.1-4.3-0.7-6.2-1.7c0,0.1,0,0.1,0,0.2c0,1.7,0.3,3.4,0.9,4.9c1.7,4.2,5.4,7.4,10,8.3
		c-1.1,0.3-2.3,0.5-3.6,0.5c-0.9,0-1.7-0.1-2.6-0.2c1.7,5.3,6.8,9.2,12.7,9.3c-4.7,3.6-10.5,5.7-16.9,5.7c-1.1,0-2.2-0.1-3.3-0.2
		c6,3.8,13.2,6,20.9,6c21.3,0,34.4-14.7,37.8-30c0.6-2.7,0.9-5.4,0.9-8.1c0-0.6,0-1.2,0-1.7C204.8,163.4,207.1,161.1,208.9,158.4z"
		/>
	<circle id="XMLID_45_" class="st22" cx="23" cy="175.5" r="56"/>
	<path id="XMLID_43_" class="st21" d="M55.5,193.5L55.5,193.5C55.5,193.5,55.5,193.5,55.5,193.5C55.5,193.5,55.4,193.5,55.5,193.5
		L55.5,193.5c-0.9-0.6-1.7-0.6-2.2-0.8c0,0,0,0,0,0c-3.4-1.1-6.4-3.4-8.6-6.3c-1.2-1.6-2.3-3.3-3-5.2c0,0,0,0,0,0
		c-0.3-0.8-0.3-1.7,0.1-2.2c0,0,0,0,0,0c0.6-0.9,1.8-1.5,3-1.9c0,0,0,0,0,0c1.3-0.5,2.8-1,4-2.1c0,0,0,0,0,0
		c0.2-0.2,0.4-0.4,0.6-0.7c0-0.1,0.1-0.2,0.1-0.3c0.1-0.3,0.1-0.7-0.1-1.1c0,0,0,0,0,0c-0.4-0.7-1-1.1-1.4-1.3h0
		c-0.8-0.4-1.6-0.5-2.4-0.2c0,0,0,0,0,0c0,0,0,0,0,0c-0.8,0.3-1.5,0.5-2.1,0.6c0,0,0,0,0,0c-0.9,0.2-1.8,0.2-2.4-0.1
		c0-0.1,0-0.3,0-0.5h0c0-1.5,0.1-3,0.1-4.5c0,0,0,0,0,0c0.1-2.4,0.2-4.8-0.2-7.3c0,0,0,0,0,0c-0.8-4.2-3.4-7.7-6.8-10.1
		c-2.5-1.7-5.4-2.7-8.4-3c0,0,0,0,0,0c-1-0.1-2-0.1-3-0.1c-4,0-8.2,1.1-11.4,3.6c-2.4,1.9-4.4,4.4-5.6,7.2c0,0,0,0,0,0
		c-1.2,2.9-1,6-0.9,8.9v0c0.1,2,0.3,4,0.1,5.8c0,0.1,0,0.1,0,0.1c-0.9,0.2-1.9,0.1-2.9-0.1c0,0,0,0,0,0c-0.7-0.1-1.4-0.4-2.2-0.6
		c0,0,0,0,0,0c-0.8-0.2-1.6,0-2.1,0.5c0,0,0,0,0,0c0,0,0,0,0,0c-0.5,0.3-1.1,0.8-1.2,1.8c0,0.1,0,0.1,0,0.2c0,0,0,0,0,0
		c0.1,0.5,0.4,0.9,0.7,1.2c0.3,0.3,0.6,0.4,0.8,0.6c0,0,0,0,0,0c1.5,1,3.1,1.4,4.5,1.9c0,0,0,0,0,0c1,0.4,1.8,1.1,2,1.9
		c0.2,1.1-0.2,2.3-0.8,3.4v0c-1.6,3.1-3.9,5.8-6.8,7.8c-1.5,1-3.2,1.8-5,2.3c0,0,0,0-0.1,0c-0.4,0.1-1.2,0.2-1.8,1
		c0,0.1-0.1,0.1-0.1,0.2c-0.2,0.5,0,1.1,0.3,1.4c0.2,0.3,0.5,0.5,0.8,0.6c0,0,0,0,0,0c1.5,0.9,3.1,1.2,4.6,1.6c0,0,0,0,0,0
		c1.1,0.2,2.1,0.4,2.9,0.7c0,0.1,0.1,0.3,0.3,0.8c0.3,0.8,0.4,1.8,0.7,2.8c0.1,0.3,0.3,0.5,0.6,0.6c0.7,0.1,1.1-0.1,1.1-0.1
		c0,0,0.1,0,0.1,0c2.5-0.4,5-0.8,7.3-0.2c0,0,0,0,0,0c2.4,0.6,4.5,2.3,6.9,3.7c0,0,0,0,0,0v0c1.6,1,3.4,1.9,5.5,2v0c0,0,0,0,0,0
		c1.6,0.1,3.1,0,4.7-0.1c0,0,0,0,0,0c1.3-0.1,2.6-0.6,3.7-1.3c0,0,0,0,0,0c2.5-1.4,4.7-3.1,7.1-4.2c0,0,0,0,0,0
		c0.8-0.3,1.8-0.3,2.9-0.3c0,0,0,0,0,0c2-0.1,4,0,6,0.3c0.1,0,0.1,0,0.2,0c0.3,0,0.5-0.2,0.7-0.4c0.1-0.2,0.2-0.3,0.2-0.4
		c0.1-0.2,0.1-0.3,0-0.1c0-0.1,0.1-0.1,0.1-0.2c0.4-1.2,0.6-2.3,1.2-3c0.3-0.3,0.7-0.4,1.2-0.4c0,0,0.1,0,0.1,0
		c1.7-0.2,3.3-0.8,4.8-1.3c0,0,0,0,0,0c0.6-0.2,1.4-0.5,1.9-1.3c0,0,0,0,0,0l0,0C56.4,194.8,56.2,193.9,55.5,193.5z"/>
	<g class="st12">
		<circle id="XMLID_25_" class="st16" cx="-282.5" cy="-130.8" r="56"/>
		<path id="XMLID_24_" class="st17" d="M-277.5-143.9v-5.3c0-2.6,1.7-3.2,2.9-3.2c1.2,0,7.4,0,7.4,0v-11.4l-10.3,0
			c-11.4,0-14,8.5-14,13.9v6h-6.6v8v5.3h6.6c0,15,0,33.2,0,33.2h13.3c0,0,0-18.3,0-33.2h9.8l0.5-5.2l0.7-8.1H-277.5z"/>
	</g>
	<g class="st12">
		<circle id="XMLID_20_" class="st18" cx="328.5" cy="-130.9" r="56"/>
		<path class="st17" d="M360.1-125.3c0.5-2.2,0.7-4.4,0.7-6.7c0-0.8,0-1.6-0.1-2.4c-1.2-16.1-14.9-28.8-31.6-28.8
			c-1.8,0-3.6,0.2-5.4,0.5c-2.8-1.8-6.2-2.8-9.8-2.8c-10.1,0-18.4,8.1-18.4,18.1c0,3.3,0.9,6.5,2.5,9.2c-0.2,1.1-0.4,2.3-0.5,3.4
			c-0.1,0.9-0.1,1.9-0.1,2.8c0,17.2,14.2,31.2,31.6,31.2c2,0,3.9-0.2,5.8-0.5c2.6,1.4,5.5,2.1,8.7,2.1c10.1,0,18.4-8.1,18.4-18.1
			C362-120.2,361.3-122.9,360.1-125.3z M345.4-117.1c-1.5,2-3.6,3.7-6.4,4.8c-2.8,1.1-6.1,1.7-9.9,1.7c-4.5,0-8.4-0.8-11.3-2.3
			c-2.1-1.1-3.9-2.7-5.2-4.6c-1.3-1.9-2-3.8-2-5.6c0-1.1,0.4-2.1,1.3-2.9c0.9-0.8,2-1.2,3.3-1.2c1.1,0,2,0.3,2.8,1
			c0.7,0.6,1.4,1.5,1.9,2.7c0.6,1.3,1.2,2.3,1.8,3.2c0.6,0.8,1.5,1.5,2.7,2c1.2,0.5,2.7,0.8,4.6,0.8c2.6,0,4.8-0.6,6.4-1.6
			c1.6-1.1,2.3-2.3,2.3-3.9c0-1.2-0.4-2.2-1.2-3c-0.9-0.8-2-1.4-3.4-1.8c-1.4-0.4-3.4-0.9-5.8-1.4c-3.3-0.7-6.1-1.5-8.3-2.4
			c-2.3-1-4.1-2.3-5.4-3.9c-0.4-0.5-0.8-1.1-1.1-1.8c-0.6-1.3-1-2.8-1-4.5c0-2.4,0.7-4.5,2.2-6.3c1.4-1.8,3.5-3.2,6.1-4.2
			c2.6-1,5.8-1.4,9.3-1.4c2.8,0,5.3,0.3,7.4,1c2.1,0.6,3.8,1.5,5.2,2.6c1.4,1.1,2.4,2.2,3.1,3.4c0.7,1.2,1,2.4,1,3.6
			c0,1.1-0.4,2.1-1.3,3c-0.9,0.9-2,1.3-3.3,1.3c-1.2,0-2.1-0.3-2.7-0.8c-0.6-0.5-1.2-1.3-1.9-2.5c-0.8-1.5-1.7-2.6-2.8-3.5
			c-1.1-0.8-2.8-1.2-5.3-1.2c-2.3,0-4.1,0.4-5.5,1.3c-1.3,0.9-2,1.8-2,3c0,0.7,0.2,1.3,0.6,1.8c0.4,0.5,1.1,1,1.9,1.4
			c0.8,0.4,1.7,0.7,2.5,1c0.2,0,0.3,0.1,0.5,0.1c0.9,0.2,2.2,0.5,3.8,0.9c2.6,0.5,4.9,1.1,7,1.8c2.1,0.7,3.9,1.5,5.4,2.4
			c1.5,1,2.7,2.2,3.6,3.7c0.9,1.5,1.3,3.3,1.3,5.5C347.6-121.5,346.9-119.2,345.4-117.1z"/>
	</g>
	<g class="st12">
		<circle id="XMLID_14_" class="st19" cx="-282.5" cy="22.3" r="56"/>
		<path class="st17" d="M-262.1-10.9h-40.7c-7.1,0-12.8,5.8-12.8,12.8v13.5v5v22.2c0,7.1,5.8,12.8,12.8,12.8h40.7
			c7.1,0,12.8-5.8,12.8-12.8V20.5v-5V1.9C-249.3-5.2-255.1-10.9-262.1-10.9z M-258.4-3.3l1.5,0v1.5V8l-11.2,0l0-11.2L-258.4-3.3z
			 M-292,15.5c2.1-2.9,5.6-4.9,9.5-4.9c3.9,0,7.3,1.9,9.5,4.9c0.3,0.4,0.5,0.7,0.7,1.1c1,1.7,1.5,3.6,1.5,5.7
			c0,6.4-5.2,11.7-11.7,11.7c-6.4,0-11.7-5.2-11.7-11.7c0-2.1,0.6-4,1.5-5.7C-292.4,16.2-292.2,15.8-292,15.5z M-255.8,42.6
			c0,3.5-2.9,6.4-6.4,6.4h-40.7c-3.5,0-6.4-2.9-6.4-6.4V18.9v-3.4h9.9c-0.2,0.6-0.5,1.2-0.6,1.9c-0.4,1.6-0.7,3.2-0.7,4.9
			c0,10,8.1,18.1,18.1,18.1c10,0,18.1-8.1,18.1-18.1c0-1.7-0.2-3.4-0.7-4.9c-0.2-0.6-0.4-1.3-0.6-1.9h9.9v3.4V42.6z"/>
	</g>
	<circle id="XMLID_7_" class="st20" cx="175.7" cy="175.5" r="56"/>
	<path id="XMLID_6_" class="st21" d="M208.9,158.4c-2.4,1.1-5.1,1.8-7.8,2.1c2.8-1.7,5-4.3,6-7.4c-2.6,1.5-5.5,2.7-8.6,3.3
		c-2.5-2.6-6-4.2-9.9-4.2c-7.5,0-13.6,6-13.6,13.4c0,1.1,0.1,2.1,0.3,3.1c-11.3-0.6-21.3-5.9-28.1-14c-1.2,2-1.8,4.3-1.8,6.7
		c0,4.6,2.4,8.7,6.1,11.2c-2.2-0.1-4.3-0.7-6.2-1.7c0,0.1,0,0.1,0,0.2c0,1.7,0.3,3.4,0.9,4.9c1.7,4.2,5.4,7.4,10,8.3
		c-1.1,0.3-2.3,0.5-3.6,0.5c-0.9,0-1.7-0.1-2.6-0.2c1.7,5.3,6.8,9.2,12.7,9.3c-4.7,3.6-10.5,5.7-16.9,5.7c-1.1,0-2.2-0.1-3.3-0.2
		c6,3.8,13.2,6,20.9,6c21.3,0,34.4-14.7,37.8-30c0.6-2.7,0.9-5.4,0.9-8.1c0-0.6,0-1.2,0-1.7C204.8,163.4,207.1,161.1,208.9,158.4z"
		/>
	<circle id="XMLID_2_" class="st22" cx="23" cy="175.5" r="56"/>
	<path id="XMLID_1_" class="st21" d="M55.5,193.5L55.5,193.5C55.5,193.5,55.5,193.5,55.5,193.5C55.5,193.5,55.4,193.5,55.5,193.5
		L55.5,193.5c-0.9-0.6-1.7-0.6-2.2-0.8c0,0,0,0,0,0c-3.4-1.1-6.4-3.4-8.6-6.3c-1.2-1.6-2.3-3.3-3-5.2c0,0,0,0,0,0
		c-0.3-0.8-0.3-1.7,0.1-2.2c0,0,0,0,0,0c0.6-0.9,1.8-1.5,3-1.9c0,0,0,0,0,0c1.3-0.5,2.8-1,4-2.1c0,0,0,0,0,0
		c0.2-0.2,0.4-0.4,0.6-0.7c0-0.1,0.1-0.2,0.1-0.3c0.1-0.3,0.1-0.7-0.1-1.1c0,0,0,0,0,0c-0.4-0.7-1-1.1-1.4-1.3h0
		c-0.8-0.4-1.6-0.5-2.4-0.2c0,0,0,0,0,0c0,0,0,0,0,0c-0.8,0.3-1.5,0.5-2.1,0.6c0,0,0,0,0,0c-0.9,0.2-1.8,0.2-2.4-0.1
		c0-0.1,0-0.3,0-0.5h0c0-1.5,0.1-3,0.1-4.5c0,0,0,0,0,0c0.1-2.4,0.2-4.8-0.2-7.3c0,0,0,0,0,0c-0.8-4.2-3.4-7.7-6.8-10.1
		c-2.5-1.7-5.4-2.7-8.4-3c0,0,0,0,0,0c-1-0.1-2-0.1-3-0.1c-4,0-8.2,1.1-11.4,3.6c-2.4,1.9-4.4,4.4-5.6,7.2c0,0,0,0,0,0
		c-1.2,2.9-1,6-0.9,8.9v0c0.1,2,0.3,4,0.1,5.8c0,0.1,0,0.1,0,0.1c-0.9,0.2-1.9,0.1-2.9-0.1c0,0,0,0,0,0c-0.7-0.1-1.4-0.4-2.2-0.6
		c0,0,0,0,0,0c-0.8-0.2-1.6,0-2.1,0.5c0,0,0,0,0,0c0,0,0,0,0,0c-0.5,0.3-1.1,0.8-1.2,1.8c0,0.1,0,0.1,0,0.2c0,0,0,0,0,0
		c0.1,0.5,0.4,0.9,0.7,1.2c0.3,0.3,0.6,0.4,0.8,0.6c0,0,0,0,0,0c1.5,1,3.1,1.4,4.5,1.9c0,0,0,0,0,0c1,0.4,1.8,1.1,2,1.9
		c0.2,1.1-0.2,2.3-0.8,3.4v0c-1.6,3.1-3.9,5.8-6.8,7.8c-1.5,1-3.2,1.8-5,2.3c0,0,0,0-0.1,0c-0.4,0.1-1.2,0.2-1.8,1
		c0,0.1-0.1,0.1-0.1,0.2c-0.2,0.5,0,1.1,0.3,1.4c0.2,0.3,0.5,0.5,0.8,0.6c0,0,0,0,0,0c1.5,0.9,3.1,1.2,4.6,1.6c0,0,0,0,0,0
		c1.1,0.2,2.1,0.4,2.9,0.7c0,0.1,0.1,0.3,0.3,0.8c0.3,0.8,0.4,1.8,0.7,2.8c0.1,0.3,0.3,0.5,0.6,0.6c0.7,0.1,1.1-0.1,1.1-0.1
		c0,0,0.1,0,0.1,0c2.5-0.4,5-0.8,7.3-0.2c0,0,0,0,0,0c2.4,0.6,4.5,2.3,6.9,3.7c0,0,0,0,0,0v0c1.6,1,3.4,1.9,5.5,2v0c0,0,0,0,0,0
		c1.6,0.1,3.1,0,4.7-0.1c0,0,0,0,0,0c1.3-0.1,2.6-0.6,3.7-1.3c0,0,0,0,0,0c2.5-1.4,4.7-3.1,7.1-4.2c0,0,0,0,0,0
		c0.8-0.3,1.8-0.3,2.9-0.3c0,0,0,0,0,0c2-0.1,4,0,6,0.3c0.1,0,0.1,0,0.2,0c0.3,0,0.5-0.2,0.7-0.4c0.1-0.2,0.2-0.3,0.2-0.4
		c0.1-0.2,0.1-0.3,0-0.1c0-0.1,0.1-0.1,0.1-0.2c0.4-1.2,0.6-2.3,1.2-3c0.3-0.3,0.7-0.4,1.2-0.4c0,0,0.1,0,0.1,0
		c1.7-0.2,3.3-0.8,4.8-1.3c0,0,0,0,0,0c0.6-0.2,1.4-0.5,1.9-1.3c0,0,0,0,0,0l0,0C56.4,194.8,56.2,193.9,55.5,193.5z"/>
	<path class="st20" d="M23.5,0C10.8,0,0.6,10.3,0.6,23c0,12.7,10.2,23,22.9,23c12.6,0,22.9-10.3,22.9-23C46.3,10.3,36.1,0,23.5,0z
		 M34.2,18.8c0,0.2,0,0.5,0,0.7c0,1.1-0.1,2.2-0.4,3.3c-1.4,6.3-6.7,12.3-15.4,12.3c-3.1,0-6.1-0.9-8.5-2.5c0.4,0.1,0.9,0.1,1.3,0.1
		c2.6,0,5-0.9,6.9-2.4c-2.4,0-4.5-1.6-5.2-3.8c0.3,0.1,0.7,0.1,1,0.1c0.5,0,1-0.1,1.5-0.2c-1.9-0.4-3.4-1.7-4.1-3.4
		c-0.2-0.6-0.4-1.3-0.4-2c0,0,0,0,0-0.1c0.7,0.4,1.6,0.7,2.5,0.7c-1.5-1-2.5-2.7-2.5-4.6c0-1,0.3-2,0.8-2.8
		c2.7,3.3,6.8,5.5,11.5,5.7c-0.1-0.4-0.1-0.8-0.1-1.3c0-3,2.5-5.5,5.6-5.5c1.6,0,3,0.7,4.1,1.7c1.3-0.2,2.5-0.7,3.5-1.3
		c-0.4,1.3-1.3,2.4-2.4,3c1.1-0.1,2.2-0.4,3.2-0.9C36.3,17.1,35.3,18.1,34.2,18.8z"/>
	<rect x="16.7" y="1.4" class="st3" width="10.8" height="0.9"/>
	<text transform="matrix(1.5017 0 0 1 16.6694 2.0859)" class="st23 st24 st25">Ibrandify / Freepik</text>
</g>
<g id="SnapChat" class="st0">
	<path class="st22" d="M23,0C10.3,0,0,10.3,0,23c0,12.7,10.3,23,23,23c12.7,0,23-10.3,23-23C46,10.3,35.7,0,23,0z M36.5,31.2
		C36.5,31.2,36.5,31.2,36.5,31.2c-0.2,0.3-0.6,0.4-0.8,0.5c0,0,0,0,0,0c-0.6,0.2-1.3,0.5-2,0.6c0,0,0,0,0,0c-0.2,0-0.4,0-0.5,0.2
		c-0.2,0.3-0.3,0.7-0.5,1.2c0,0,0,0,0,0.1c0-0.1,0,0,0,0.1c0,0,0,0.1-0.1,0.2c-0.1,0.1-0.2,0.1-0.3,0.2c0,0-0.1,0-0.1,0
		C31.4,34,30.6,34,29.8,34c0,0,0,0,0,0c-0.4,0-0.9,0-1.2,0.1c0,0,0,0,0,0c-1,0.4-1.9,1.1-2.9,1.7c0,0,0,0,0,0
		c-0.5,0.3-1,0.5-1.5,0.5c0,0,0,0,0,0c-0.6,0-1.3,0.1-1.9,0c0,0,0,0,0,0v0c-0.9,0-1.6-0.4-2.2-0.8v0c0,0,0,0,0,0
		c-1-0.6-1.8-1.3-2.8-1.5c0,0,0,0,0,0c-0.9-0.2-2-0.1-3,0.1c0,0,0,0,0,0c0,0-0.2,0.1-0.5,0c-0.1,0-0.2-0.1-0.3-0.2
		c-0.1-0.4-0.2-0.8-0.3-1.2C13,32.6,13,32.5,13,32.5c-0.3-0.1-0.7-0.2-1.2-0.3c0,0,0,0,0,0c-0.6-0.2-1.3-0.3-1.9-0.7c0,0,0,0,0,0
		c-0.1-0.1-0.2-0.1-0.3-0.2c-0.1-0.1-0.2-0.4-0.1-0.6c0,0,0-0.1,0-0.1c0.2-0.3,0.6-0.4,0.7-0.4c0,0,0,0,0,0c0.7-0.2,1.4-0.5,2.1-0.9
		c1.2-0.8,2.2-1.9,2.8-3.2v0c0.2-0.5,0.4-1,0.3-1.4c-0.1-0.3-0.4-0.6-0.8-0.8c0,0,0,0,0,0c-0.6-0.2-1.2-0.4-1.8-0.8c0,0,0,0,0,0
		c-0.1-0.1-0.2-0.1-0.3-0.2c-0.1-0.1-0.3-0.3-0.3-0.5c0,0,0,0,0,0c0,0,0,0,0-0.1c0-0.4,0.3-0.6,0.5-0.7c0,0,0,0,0,0c0,0,0,0,0,0
		c0.2-0.2,0.6-0.3,0.9-0.2c0,0,0,0,0,0c0.3,0.1,0.6,0.2,0.9,0.3c0,0,0,0,0,0c0.4,0.1,0.8,0.1,1.2,0c0,0,0,0,0-0.1
		c0.1-0.8,0-1.6-0.1-2.4v0c-0.1-1.2-0.1-2.4,0.4-3.6c0,0,0,0,0,0c0.5-1.2,1.3-2.2,2.3-3c1.3-1,3-1.5,4.7-1.5c0.4,0,0.8,0,1.2,0
		c0,0,0,0,0,0c1.2,0.1,2.4,0.5,3.4,1.2c1.4,1,2.5,2.5,2.8,4.2c0,0,0,0,0,0c0.1,1,0.1,2,0.1,3c0,0,0,0,0,0c0,0.6-0.1,1.3,0,1.9h0
		c0,0.1,0,0.2,0,0.2c0.3,0.1,0.6,0.1,1,0c0,0,0,0,0,0c0.3,0,0.5-0.2,0.9-0.3c0,0,0,0,0,0c0,0,0,0,0,0c0.3-0.1,0.7-0.1,1,0.1h0
		c0.2,0.1,0.4,0.3,0.6,0.6c0,0,0,0,0,0c0.1,0.1,0.1,0.3,0,0.4c0,0,0,0.1,0,0.1c-0.1,0.1-0.2,0.2-0.2,0.3c0,0,0,0,0,0
		c-0.5,0.4-1.1,0.7-1.7,0.8c0,0,0,0,0,0c-0.5,0.2-1,0.4-1.2,0.8c0,0,0,0,0,0c-0.2,0.2-0.2,0.6,0,0.9c0,0,0,0,0,0
		c0.3,0.8,0.7,1.5,1.2,2.1c0.9,1.2,2.1,2.1,3.5,2.6c0,0,0,0,0,0c0.2,0.1,0.5,0.1,0.9,0.3v0c0,0,0,0,0,0c0,0,0,0,0,0l0,0
		C36.6,30.6,36.7,30.9,36.5,31.2L36.5,31.2z"/>
	<rect x="17.7" y="1.4" class="st3" width="10.8" height="0.9"/>
	<text transform="matrix(1.5017 0 0 1 17.6694 2.0859)" class="st23 st24 st25">Ibrandify / Freepik</text>
	<ellipse class="st22" cx="20" cy="16.5" rx="2" ry="0.5"/>
	<ellipse class="st22" cx="26" cy="16.5" rx="2" ry="0.5"/>
</g>
<g id="facebook" class="st0">
	<g id="Facebook" class="st12">
		<ellipse cx="23" cy="21.5" rx="14" ry="14.5"/>
		<g>
			<path class="st26" d="M21.2,33.7V17.5c0-3,3.1-5.5,6.8-5.5"/>
			<polygon class="st27" points="27.5,23.8 16.1,25.4 16.1,21.2 27.5,19.7 			"/>
		</g>
		<g>
			<path class="st28" d="M22.7,33.7V17.5c0-3,2.8-5.5,6.3-5.5"/>
			<polygon class="st29" points="28,23.8 17.5,25.4 17.5,21.2 28,19.7 			"/>
		</g>
	</g>
</g>
<g id="Instahover">
	<ellipse class="st0" cx="23" cy="20.5" rx="14" ry="14.5"/>
	<linearGradient id="SVGID_1_" gradientUnits="userSpaceOnUse" x1="28.2195" y1="11.5915" x2="17.7718" y2="29.6875">
		<stop  offset="0" style="stop-color:#8A3AB9"/>
		<stop  offset="5.701432e-02" style="stop-color:#873CBA;stop-opacity:0.8895"/>
		<stop  offset="9.458122e-02" style="stop-color:#7E43BF;stop-opacity:0.8167"/>
		<stop  offset="0.1265" style="stop-color:#6F4EC6;stop-opacity:0.7548"/>
		<stop  offset="0.1552" style="stop-color:#5A5DD0;stop-opacity:0.6992"/>
		<stop  offset="0.1703" style="stop-color:#4C68D7;stop-opacity:0.67"/>
		<stop  offset="0.2095" style="stop-color:#5067D4;stop-opacity:0.67"/>
		<stop  offset="0.2475" style="stop-color:#5C64CA;stop-opacity:0.67"/>
		<stop  offset="0.2849" style="stop-color:#6F5FBA;stop-opacity:0.67"/>
		<stop  offset="0.3221" style="stop-color:#8A59A3;stop-opacity:0.67"/>
		<stop  offset="0.3587" style="stop-color:#AD5086;stop-opacity:0.67"/>
		<stop  offset="0.3865" style="stop-color:#CD486B;stop-opacity:0.67"/>
		<stop  offset="0.5811" style="stop-color:#BC2A8D;stop-opacity:0.78"/>
		<stop  offset="0.8568" style="stop-color:#E95950;stop-opacity:0.78"/>
	</linearGradient>
	<path class="st30" d="M17.9,29.3h10.1c1.8,0,3.2-1.5,3.2-3.4v-5.8v-1.3v-3.5c0-1.8-1.4-3.3-3.2-3.3H17.9c-1.8,0-3.2,1.5-3.2,3.3
		v3.5v1.3V26C14.7,27.8,16.2,29.3,17.9,29.3z M29,14l0.4,0v0.4v1.9c0,0.4-0.3,0.7-0.7,0.7l-1.4,0c-0.4,0-0.7-0.3-0.7-0.7l0-1.6
		c0-0.4,0.3-0.7,0.7-0.7L29,14z M20.5,19.2c0.1-0.1,0.1-0.2,0.2-0.3c0.5-0.8,1.4-1.3,2.4-1.3c1,0,1.8,0.5,2.4,1.3
		c0.1,0.1,0.1,0.2,0.2,0.3c0.2,0.4,0.4,0.9,0.4,1.5c0,1.7-1.3,3.1-2.9,3.1c-1.6,0-2.9-1.4-2.9-3.1C20.1,20.1,20.2,19.6,20.5,19.2z
		 M16.4,19.8v-0.9h2.5c-0.1,0.2-0.1,0.3-0.2,0.5c-0.1,0.4-0.2,0.8-0.2,1.3c0,2.6,2,4.7,4.5,4.7s4.5-2.1,4.5-4.7
		c0-0.4-0.1-0.9-0.2-1.3c0-0.2-0.1-0.3-0.2-0.5h2.5v0.9V26c0,0.9-0.7,1.7-1.6,1.7H17.9c-0.9,0-1.6-0.7-1.6-1.7V19.8z"/>
	<g id="Instagram">
		<ellipse cx="23" cy="21.5" rx="14" ry="14.5"/>
		<path class="st17" d="M17.9,30.3h10.1c1.8,0,3.2-1.5,3.2-3.4v-5.8v-1.3v-3.5c0-1.8-1.4-3.3-3.2-3.3H17.9c-1.8,0-3.2,1.5-3.2,3.3
			v3.5v1.3V27C14.7,28.8,16.2,30.3,17.9,30.3z M29,15l0.4,0v0.4v1.9c0,0.4-0.3,0.7-0.7,0.7l-1.4,0c-0.4,0-0.7-0.3-0.7-0.7l0-1.6
			c0-0.4,0.3-0.7,0.7-0.7L29,15z M20.5,20.2c0.1-0.1,0.1-0.2,0.2-0.3c0.5-0.8,1.4-1.3,2.4-1.3c1,0,1.8,0.5,2.4,1.3
			c0.1,0.1,0.1,0.2,0.2,0.3c0.2,0.4,0.4,0.9,0.4,1.5c0,1.7-1.3,3.1-2.9,3.1c-1.6,0-2.9-1.4-2.9-3.1C20.1,21.1,20.2,20.6,20.5,20.2z
			 M16.4,20.8v-0.9h2.5c-0.1,0.2-0.1,0.3-0.2,0.5c-0.1,0.4-0.2,0.8-0.2,1.3c0,2.6,2,4.7,4.5,4.7s4.5-2.1,4.5-4.7
			c0-0.4-0.1-0.9-0.2-1.3c0-0.2-0.1-0.3-0.2-0.5h2.5v0.9V27c0,0.9-0.7,1.7-1.6,1.7H17.9c-0.9,0-1.6-0.7-1.6-1.7V20.8z"/>
	</g>
</g>
</svg>
