<?xml version="1.0" encoding="utf-8"?>
<!-- Generator: Adobe Illustrator 21.0.2, SVG Export Plug-In . SVG Version: 6.00 Build 0)  -->
<svg version="1.1" id="Layer_1" xmlns="http://www.w3.org/2000/svg" xmlns:xlink="http://www.w3.org/1999/xlink" x="0px" y="0px"
	 viewBox="0 0 500 420" style="enable-background:new 0 0 500 420;" xml:space="preserve">
<style type="text/css">
	.st0{display:none;opacity:0.35;}
	.st1{opacity:0.1;fill:#E14718;}
	.st2{opacity:0.1;fill:#FFFFFF;enable-background:new    ;}
	.st3{opacity:0.1;}
	.st4{fill:url(#SVGID_1_);}
	.st5{fill:url(#SVGID_2_);}
	.st6{fill:url(#SVGID_3_);}
	.st7{fill:url(#SVGID_4_);}
	.st8{fill:url(#SVGID_5_);}
	.st9{opacity:0.77;}
	.st10{font-family:'MyriadPro-Regular';}
	.st11{font-size:71.8633px;}
</style>
<circle class="st0" cx="46" cy="242" r="23"/>
<g>
	<path class="st1" d="M262.1,243.2c-0.1-0.1-0.2-0.3-0.2-0.4c0,0,0,0,0,0c-2.5-4.1-6.9-6.8-11.9-6.8c-7.8,0-14.1,6.5-14.1,14.5
		s6.3,14.5,14,14.5c0.1,0,0.3,0,0.4,0c7.6-0.2,13.6-6.6,13.7-14.4C264,247.9,263.3,245.4,262.1,243.2z"/>
	<path class="st2" d="M264,250.5c0-2.7-0.7-5.1-1.9-7.3c-0.1-0.1-0.2-0.3-0.2-0.4c-4.9,0.4-9.5,3.4-12,8.2c-2.3,4.7-2,9.9,0.4,14
		C257.9,264.8,263.9,258.4,264,250.5z"/>
	<g id="Layer_9_1_" class="st3">
		<g>
			
				<radialGradient id="SVGID_1_" cx="-87459.9063" cy="11883.4346" r="26.9951" gradientTransform="matrix(5.635942e-02 7.432695e-02 0.2644 -0.1786 2050.8171 8908.0645)" gradientUnits="userSpaceOnUse">
				<stop  offset="1.000000e-02" style="stop-color:#F7F999"/>
				<stop  offset="0.54" style="stop-color:#F3553E"/>
				<stop  offset="1" style="stop-color:#BD7B0D"/>
			</radialGradient>
			<path class="st4" d="M249.7,246.4c0,0,0.4-1.4,2.5-2.3c0.8-0.4,0.7-0.4,1.5-1.1c0.5-0.5,1.1-0.9,1.8-1.3c-0.4,0.2-0.7,0.5-1,0.8
				c-0.4,0.5-0.9,0.9-1.4,1.3c-0.5,0.3-0.1,0.5,0.6-0.1c0.7-0.5,1.2-1.3,2.2-1.9c1.1-0.6,1.4-0.4,2.3-1.1c-0.3,0.3-0.6,0.5-0.9,0.7
				c-0.5,0.2-0.5-0.3-1.7,0.9c-0.5,0.6-1.1,1.1-1.7,1.5c-0.5,0.3-1.3,0.8-0.9,0.9c0.3,0.1,0.4,0.2,0.9-0.5c0.5-0.7,0.9-0.8,1.7-1.2
				c0.6-0.2,1.1-0.6,1.6-1c0.7-0.6,0.7-0.8,1.5-1.3s0.8-0.2,1.3-0.6c-0.3,0.3-0.7,0.6-1.1,0.8c-0.3,0.1-1.3,0.6-1.3,1
				c0,0.2-0.3,0.6-0.9,0.9c-0.6,0.4-1,0.3-1.4,1c-0.5,0.7-0.9,0.8-1.3,1.1c-0.4,0.3-0.5,0.5,0,0.2s0.2-0.2,1.2-1
				c1.1-0.8,0.9-0.8,1.4-0.7c1.1,0,1.5-1.1,2.1-1.6c-0.3,0.2-0.5,0.5-0.7,0.8c-0.3,0.4-0.6,0.7-1.1,0.9c-0.6,0.3-1.1,0.4-1.5,0.9
				c-0.5,0.5-0.5,0.7-1.3,1.1c-0.8,0.5-1.2,0.9-0.8,0.7c0.6-0.3,1.2-0.6,1.7-1.1c0.8-0.6,1-0.9,1.5-1.1c-0.3,0.1-0.5,0.2-0.7,0.4
				c-0.4,0.5-0.8,0.9-1.4,1.2c-0.8,0.5-1.2,0.6-1.8,1.2s-0.3,0.6-1.2,0.7C249.9,247.9,249.7,246.4,249.7,246.4z"/>
		</g>
		<g>
			
				<radialGradient id="SVGID_2_" cx="112600.1172" cy="15125.0977" r="27.0003" gradientTransform="matrix(-4.384046e-02 -5.574931e-02 0.2077 -0.1478 2006.9524 8779.4951)" gradientUnits="userSpaceOnUse">
				<stop  offset="1.000000e-02" style="stop-color:#F7F999"/>
				<stop  offset="0.54" style="stop-color:#F3553E"/>
				<stop  offset="1" style="stop-color:#BD7B0D"/>
			</radialGradient>
			<path class="st5" d="M250.7,247.5c0,0,1.1,0.1,2.4-1.2c0.5-0.5,0.5-0.4,1.2-0.8c0.5-0.3,1-0.6,1.5-1c-0.3,0.2-0.6,0.4-0.9,0.5
				c-0.5,0.2-0.9,0.4-1.3,0.7c-0.4,0.3-0.4,0,0.2-0.4c0.6-0.4,1.3-0.5,2-1.2c0.7-0.6,0.7-0.9,1.4-1.4c-0.3,0.1-0.5,0.3-0.8,0.5
				c-0.3,0.3-0.5,0.8-1.2,1c-0.6,0.2-1.1,0.5-1.6,0.9c-0.4,0.3-0.9,0.7-0.9,0.5c0-0.3,0-0.3,0.7-0.5c0.7-0.2,0.9-0.5,1.4-1
				c0.3-0.4,0.7-0.7,1.2-0.9c0.6-0.3,0.8-0.3,1.4-0.8c0.5-0.4,0.7-0.7,1.1-1c0,0-0.9,0.5-1.2,0.8c-0.3,0.3-0.7,0.5-1.1,0.7
				c-0.4,0.1-0.5,0.1-1,0.4c-0.4,0.4-0.5,0.6-1.2,0.8c-0.5,0.1-0.9,0.4-1.2,0.7c-0.3,0.2-0.5,0.2-0.2-0.1c0.4-0.3,0.2-0.1,1.1-0.7
				c0.9-0.6,0.8-0.8,1.4-1.2c0.6-0.5,0.8-0.4,1.4-0.8c-0.2,0.1-0.5,0.2-0.8,0.3c-0.4,0.1-0.7,0.3-1,0.6c-0.4,0.3-0.6,0.7-1.1,0.9
				c-0.5,0.2-0.7,0.2-1.2,0.6c-0.6,0.5-1,0.7-0.7,0.5c0.4-0.4,0.8-0.7,1.3-1c0.5-0.2,0.9-0.5,1.2-0.8c-0.1,0.2-0.3,0.3-0.5,0.4
				c-0.5,0.2-0.9,0.4-1.3,0.7c-0.4,0.4-0.9,0.7-1.4,1c-0.6,0.3-0.5,0.1-0.9,0.7C249.7,247.1,250.7,247.5,250.7,247.5z"/>
		</g>
		<g>
			
				<radialGradient id="SVGID_3_" cx="-70931.7422" cy="11636.5762" r="47.6705" gradientTransform="matrix(6.887837e-02 9.290461e-02 0.2644 -0.1786 2061.2896 8923.4414)" gradientUnits="userSpaceOnUse">
				<stop  offset="0" style="stop-color:#F8CB66"/>
				<stop  offset="1" style="stop-color:#FB0F0C"/>
			</radialGradient>
			<path class="st6" d="M253.8,243.9c-0.2,0-0.3,0.1-0.5,0.2c-0.1,0.1-0.1,0.2-0.1,0.2c0,0,0.1,0,0.2-0.1c-0.1,0-0.1,0.1-0.2,0.2
				c-0.1,0.1-0.2,0.1-0.3,0.2c0,0-0.1,0.2,0,0.2c0.3-0.1,0.6-0.3,0.8-0.5c0.1-0.1,0.3-0.2,0.5-0.3c0.1-0.1,0.3-0.1,0.4-0.1
				c-0.1,0.1-0.2,0.1-0.3,0.2c0,0-0.1,0.1-0.2,0.2s-0.1,0.1-0.2,0.1c-0.2,0.1-0.1,0.2-0.1,0.3c-0.1,0.1-0.1,0.1-0.2,0.2
				c0.3-0.1,0.7-0.6,0.9-0.8c0.2-0.2,0.4-0.3,0.7-0.4c0.2-0.1,0.3-0.2,0.5-0.3c-0.1,0.1-0.2,0.2-0.3,0.2c-0.2,0.1-0.3,0.2-0.5,0.3
				c-0.1,0.1-0.1,0.1,0,0.2c0,0,0.3-0.1,0.5-0.2s0.4-0.3,0.6-0.4c0.1-0.1,0.3-0.2,0.4-0.2c0.2,0,0.5-0.1,0.7-0.2
				c-0.1,0.1-0.3,0.2-0.5,0.3c-0.2,0.1-0.4,0.2-0.5,0.3c-0.8,0.6-0.1,0.3,0.2,0c-0.1,0.1,0,0.1-0.1,0.2c-0.1,0.1-0.2,0.1-0.3,0.2
				c-0.2,0.1-0.3,0.1-0.5,0.2c-0.2,0.1-0.2,0.4,0,0.3c0.2-0.1,0.2-0.2,0.4-0.2c-0.1,0-0.2,0.1-0.2,0.2c-0.1,0.1,0,0.1,0.1,0
				c0.3-0.1,0.5-0.5,0.7-0.5c-0.2,0.1-0.3,0.2-0.5,0.4c-0.2,0.2-0.5,0.4-0.8,0.5c-0.2,0.1-0.7,0.1-0.8,0.4c0,0.1,0.3-0.1,0.4-0.2
				c-0.2,0.3-0.6,0.4-0.9,0.5c-0.2,0.1-0.5,0.2-0.6,0.4c-0.1,0.1,0,0.2,0.2,0c0.1-0.1,0.2-0.2,0.3-0.2c0.1,0,0.2-0.1,0.3-0.2
				c-0.1,0.1-0.2,0.2-0.3,0.3c-0.1,0-0.1,0.1-0.2,0.1c-0.2,0.1-0.3,0.2-0.5,0.3c-0.1,0-0.2,0-0.2,0.1c-0.1,0.1-0.2,0.3-0.1,0.3
				c0.1,0,0.4-0.2,0.5-0.3c0.1-0.1,0.2-0.2,0.3-0.2c0.1-0.1,0.3-0.2,0.5-0.3c0.2-0.1,0.2,0,0.4-0.2c0.1-0.1,0.2-0.2,0.4-0.3
				c0.2-0.1,0.5-0.1,0.8-0.1c-0.2,0-0.5,0.1-0.7,0.3c0.1,0.1,0.2,0.1,0.6-0.1c0.2-0.1,0.4-0.2,0.6-0.3c0.1,0,0.2,0,0.2,0
				c-0.4,0.1-0.7,0.3-1,0.5c-0.4,0.3-0.5,0.6-1,0.7c-0.4,0.1-0.5,0-1,0.3c-0.1,0.1-0.3,0.2-0.4,0.3c-0.2,0.1-0.3,0.1-0.5,0.2
				c-0.2,0.1-0.1,0.2,0,0.2c0.1,0,0.2-0.1,0.3-0.1c0.1,0,0,0.1,0.1,0.1c-0.1,0-0.1,0-0.3,0s-0.3,0.2-0.4,0.3
				c-0.2,0.1-0.3,0.1-0.5,0.1c-0.1,0-0.2,0.1-0.3,0.1c-0.1,0-0.2,0-0.3-0.1c-0.1-0.1-0.2-0.1-0.3-0.1c-0.1,0-0.3,0-0.3-0.1
				c-0.1-0.2-0.1-0.5-0.3-0.7c-0.1,0-0.2-0.1-0.2-0.1c0-0.1-0.1-0.2-0.1-0.3c0-0.1,0-0.1,0-0.2c0-0.1,0-0.1,0.1-0.2
				c0.1-0.1,0-0.1,0.1-0.1c0.1,0,0.3-0.5,0.4-0.6c0.1-0.1,0.2-0.2,0.3-0.3c0.1-0.1,0.4-0.3,0.5-0.4c0.1-0.1,0.3-0.2,0.4-0.3
				c0.4-0.2-0.4,0.6-0.2,0.5c0.1,0,0.3-0.1,0.4-0.3c0.1-0.1,0-0.1,0-0.2c0-0.2,0.4-0.5,0.7-0.6c0.1,0,0.2,0,0.2-0.1
				c0.1-0.1,0.3-0.2,0.4-0.2c-0.1,0.1-0.2,0.1-0.3,0.2c-0.1,0.1-0.2,0.2-0.3,0.2c-0.4,0.1-0.4,0.4,0,0.3c0.4-0.1,0.7-0.7,0.9-0.9
				c0.3-0.4,0.8-0.4,1.2-0.7c-0.2,0.1-0.3,0.3-0.5,0.4c-0.2,0.1-0.3,0.2-0.5,0.3c-0.1,0.1-0.4,0.4-0.3,0.4c0.2,0,0.3-0.3,0.5-0.3
				c0,0,0,0,0.1,0c0.1-0.1,0.2-0.1,0.3-0.2c0.1-0.1,0.2-0.1,0.3-0.2c0.2,0,0.3-0.1,0.5-0.1c0.2,0,0.4-0.1,0.5-0.2
				c-0.1,0.1-0.2,0.2-0.4,0.2c-0.1,0.1-0.2,0-0.4,0.1c-0.3,0.1-0.3,0.4-0.6,0.4c-0.1,0-0.1,0-0.2,0c-0.1,0-0.1,0.1-0.2,0.1
				c-0.1,0.1-0.3,0.2-0.2,0.2c0.1,0,0.3,0,0.4-0.1c0.2-0.1,0.4-0.2,0.5-0.3c-0.1,0.1-0.1,0.2-0.2,0.2
				C254.1,243.8,254,243.9,253.8,243.9L253.8,243.9z"/>
		</g>
		<g>
			
				<radialGradient id="SVGID_4_" cx="-87461.3984" cy="11882.998" r="55.0044" gradientTransform="matrix(5.635942e-02 7.432695e-02 0.2644 -0.1786 2050.8171 8908.0645)" gradientUnits="userSpaceOnUse">
				<stop  offset="0" style="stop-color:#F7F619"/>
				<stop  offset="0.52" style="stop-color:#F6A156"/>
				<stop  offset="1" style="stop-color:#F67C11"/>
			</radialGradient>
			<path class="st7" d="M249.7,246.4c0,0,0.2-0.4,0.5-0.8c0.4-0.5,0.9-0.9,1.5-1.2c0.4-0.1,1.1-0.4,1.3-0.5c0.3-0.4,0.8-0.8,1.3-1.1
				c-0.2,0.2-0.5,0.4-0.6,0.6c-0.1,0.2-0.2,0.4-0.4,0.6c-0.2,0.3-1,0.5-1.1,0.7c-0.1,0.2,0.5,0.1,0.7-0.1c0.2-0.4,0.5-0.6,0.9-0.9
				c0.4-0.1,0.5,0,0.7-0.2c-0.1,0.1-0.1,0.2-0.2,0.2c-0.2,0.1-0.5,0.1-0.6,0.3c-0.1,0.2,0.1,0.2,0.2,0.1c0.1-0.1,0.2-0.2,0.3-0.2
				c0,0-0.1,0.1-0.1,0.2c0,0.2-0.2,0.3-0.3,0.3c-0.2,0.1-0.2-0.1-0.4,0s-0.2,0.3-0.5,0.5c-0.3,0.2-0.5,0-0.8,0.4
				c-0.3,0.4-0.2,0.5,0.1,0.2c0.2-0.3,0.5-0.5,0.8-0.6c0.4-0.1,0.7-0.3,1-0.6c-0.1,0.2-0.3,0.3-0.5,0.4c-0.3,0.2-0.5,0.2-0.7,0.4
				c-0.1,0.2,0,0.2-0.2,0.4c-0.2,0.2-0.6,0.4-0.4,0.4c0.3,0,0.5-0.2,0.7-0.4c0.2-0.3,0.5-0.6,0.7-0.6c0.3,0.1,0.7-0.1,0.9-0.3
				c0.2-0.3,0.5-0.5,0.8-0.7l0,0c0.3-0.1-0.2,0.1-0.4,0.3c-0.2,0.3-0.4,0.5-0.7,0.7c-0.3,0.2-0.6,0.1-0.8,0.3
				c-0.2,0.2-0.1,0.3-0.5,0.6c-0.4,0.3-0.9,0.3-1.1,0.6s-0.2,0.7,0.2,0.4c0.4-0.3,0.8-0.8,1.3-1.1c0.5-0.3,0.6-0.2,0.9-0.4
				s0.2-0.3,0.5-0.4c0.1,0,0.2,0,0.3,0c-0.1,0-0.2,0.1-0.3,0.2c-0.1,0.2-0.2,0.3-0.3,0.4c-0.1,0.1-0.3,0.1-0.6,0.3
				c-1,0.5-0.4,0.6-0.2,0.5c0.2-0.2,0.3-0.3,0.5-0.4c0.2-0.1,0.3,0,0.4-0.1c0,0,0,0.1-0.2,0.2c-0.2,0.1-0.3,0.1-0.4,0.2
				c-0.1,0.2-0.2,0.3-0.7,0.4s-0.4,0-0.7,0.3c-0.2,0.3-0.7,0.7-0.2,0.4c0.4-0.3,0.7-0.6,0.9-0.5c0.3,0.1,0.3,0.4,0.6,0
				c0.3-0.4,1-1.2,1.3-1.3c0.4-0.1,0.3,0.1,0.7-0.2c0.4-0.3,0.3-0.2,0.5-0.2c0,0-0.1,0-0.2,0.1c-0.2,0.1-0.3,0.4-0.1,0.2
				c0.2-0.1,0.4-0.3,0.6-0.4c-0.1,0.1-0.2,0.1-0.3,0.2c-0.1,0.2-0.3,0.3-0.5,0.4c-0.2,0-0.3-0.1-0.7,0.1c-0.3,0.2-0.5,0.5-0.7,0.7
				c-0.2,0.3-0.7,0.9-1.1,0.9c-0.4,0-0.6-0.1-0.9,0.2c-0.3,0.3,0.1,0.3,0.3,0.1c0.2-0.1,0.4-0.2,0.6-0.2c-0.1,0-0.3,0.1-0.4,0.2
				c-0.2,0.2-0.5,0.4-0.8,0.5c-0.3,0.1-0.9,0.3-1,0.1c-0.1-0.1,0-0.1-0.4-0.1c-0.4,0-0.3-0.4-0.4-0.6
				C249.8,247,249.6,246.7,249.7,246.4z"/>
		</g>
		<g>
			
				<radialGradient id="SVGID_5_" cx="-87459.7578" cy="11882.5195" r="8.213" gradientTransform="matrix(5.635942e-02 7.432695e-02 0.2644 -0.1786 2050.8171 8908.0645)" gradientUnits="userSpaceOnUse">
				<stop  offset="0" style="stop-color:#F7F9E3"/>
				<stop  offset="0.13" style="stop-color:#F7F9CF"/>
				<stop  offset="0.49" style="stop-color:#F7F999"/>
				<stop  offset="1" style="stop-color:#F5EA7A"/>
			</radialGradient>
			<path class="st8" d="M249.8,246.1c0.1-0.3,0.3-0.5,0.6-0.7c0.3-0.3,0.6-0.5,1-0.6c0.4-0.1,0.7-0.4,1-0.7c0,0.2-0.1,0.4-0.2,0.5
				c-0.2,0.2-0.4,0.4-0.6,0.5c-1.1,0.8,0.2,0.2,0.3,0.1c0.2-0.3,0.5-0.6,0.8-0.8c-0.1,0.1-0.3,0.2-0.4,0.3c-0.1,0.2-0.3,0.5-0.5,0.6
				c-0.3,0.2-0.6,0.3-0.8,0.5c-0.3,0.3-0.3,0.5-0.1,0.4c0.3-0.1,0.5-0.3,0.7-0.5c0.2-0.2,1-0.4,1.4-0.7c-0.2,0.2-0.4,0.3-0.7,0.5
				c-0.3,0.2-0.6,0.4-0.9,0.6c-0.2,0.2-0.3,0.5,0.2,0.2c0.3-0.2,0.8-0.7,1.1-0.9s0.5-0.1,0.8-0.3c-0.1,0.1-0.3,0.2-0.4,0.3
				c-0.3,0.1-0.5,0.3-0.7,0.5c-0.1,0.2,0.5,0,0.7-0.2c0.3-0.3,0.6-0.5,0.9-0.6c-0.2,0.1-0.4,0.2-0.6,0.4c-0.1,0.2-0.1,0.3-0.6,0.6
				s-0.6,0.1-0.8,0.3c-0.3,0.2-0.8,0.7-0.7,0.7c0.2,0,0.3,0,0.7-0.3c0.3-0.2,0.6-0.3,0.9-0.3c0.3,0,0.7-0.5,1-0.9
				c0.2-0.1,0.4-0.2,0.6-0.3c-0.2,0.1-0.5,0.2-0.7,0.4c-0.2,0.2-0.4,0.5-0.6,0.6c-0.2,0.2-0.5,0.2-0.7,0.4c-0.2,0.2-0.3,0.4-0.1,0.3
				c0.2-0.1,0.3-0.1,0.4-0.3c0.2-0.2,0.4-0.3,0.6-0.4c-0.1,0.1-0.2,0.2-0.4,0.3c-0.5,0.4-0.2,0.3,0,0.2c0.2-0.1,0.5-0.5,0.7-0.5
				c-0.1,0-0.2,0.1-0.3,0.2c-0.1,0.2-0.2,0.3-0.4,0.4c-0.2,0.1-0.3,0.2-0.5,0.2c-0.2,0-0.4-0.1-0.7,0.1c-0.3,0.2-0.1,0.4,0.1,0.2
				c0.1-0.1,0.2-0.1,0.4-0.1c-0.1,0-0.2,0-0.2,0.1c-0.1,0.1-0.2,0.2-0.4,0.3c-0.3,0.1-0.7,0.2-1,0.1c-0.3-0.1-0.7-0.1-0.7-0.3
				c0-0.2-0.1-0.3-0.2-0.4C249.7,246.8,249.6,246.5,249.8,246.1z"/>
		</g>
	</g>
	<path class="st2" d="M259.9,259.8c0,0-9.8-11.2-10.7-11.8c-0.4-0.3-1.3-0.4-2.1-0.3c0-0.1,0-0.1,0-0.2c0-1.1,0-2,0-2.9
		c0-1,0-1.9,0-2.7c0-0.2,0.1-0.4,0.3-0.5l0.5-0.2c0.4-0.2,0.6-0.7,0.4-1.1c-0.1-0.3-0.4-0.4-0.7-0.4l-6.6,0l2.8,1.8l-0.1,7.9
		l-0.1,5.9l-1.3,0.9l-1.4,1l1.4,0l4.9,0c0.5,0,0.9-0.4,0.9-0.8c0-0.3-0.2-0.6-0.4-0.7l-0.3-0.2c-0.2-0.1-0.3-0.3-0.3-0.5
		c0-1.8,0-3.5,0-4.9c0.5,0.5,10,9.4,11.5,10.6c0.3,0.3,0.6,0.4,0.7,0.4c0.1,0,0.1,0,0.1,0c0.2,0,0.3-0.2,0.3-0.3c0-0.1,0-0.1,0-0.2
		C259.9,260.1,259.9,259.8,259.9,259.8z"/>
	<path class="st9" d="M262.1,243.2c-0.1-0.1-0.2-0.3-0.2-0.4c0,0,0,0,0,0c-2.5-4.1-6.9-6.8-11.9-6.8c-7.8,0-14.1,6.5-14.1,14.5
		s6.3,14.5,14,14.5c0.1,0,0.3,0,0.4,0c7.6-0.2,13.6-6.6,13.7-14.4C264,247.9,263.3,245.4,262.1,243.2z"/>
</g>
<text transform="matrix(0.4804 1.248936e-03 -2.600000e-03 1 88.94 215.6416)" class="st3 st10 st11">copyright ©  since 2016 </text>
</svg>
