<?xml version="1.0" encoding="UTF-8" standalone="no"?><!DOCTYPE svg PUBLIC "-//W3C//DTD SVG 1.1//EN" "http://www.w3.org/Graphics/SVG/1.1/DTD/svg11.dtd"><svg width="100%" height="100%" viewBox="0 0 161 177" version="1.1" xmlns="http://www.w3.org/2000/svg" xmlns:xlink="http://www.w3.org/1999/xlink" xml:space="preserve" xmlns:serif="http://www.serif.com/" style="fill-rule:evenodd;clip-rule:evenodd;stroke-linejoin:round;stroke-miterlimit:2;"><g><path d="M75.59,2.185c2.829,-1.588 6.312,-1.588 9.137,-0c13.979,7.845 56.046,31.462 70.029,39.308c2.83,1.583 4.571,4.517 4.571,7.692l0,78.612c0,3.175 -1.741,6.108 -4.571,7.696c-13.979,7.846 -56.045,31.462 -70.029,39.308c-2.829,1.588 -6.312,1.588 -9.137,0c-13.979,-7.846 -56.046,-31.462 -70.029,-39.308c-2.825,-1.588 -4.567,-4.517 -4.567,-7.692l-0,-78.612c-0,-3.175 1.742,-6.109 4.571,-7.696c13.975,-7.846 56.05,-31.463 70.025,-39.308Z" style="fill:none;stroke:#f5f5f5;stroke-width:1.99px;"/><path d="M130.871,117.327c-10.044,17.614 -29,29.499 -50.71,29.499c-32.196,0 -58.334,-26.137 -58.334,-58.333c0,-32.196 26.138,-58.333 58.334,-58.333c21.366,-0 40.064,11.511 50.225,28.665l-25.33,14.473c-5.127,-8.378 -14.364,-13.972 -24.895,-13.972c-16.1,0 -29.167,13.067 -29.167,29.167c-0,16.096 13.071,29.167 29.167,29.167c10.707,-0 20.076,-5.785 25.149,-14.397l25.561,14.064Z" style="fill:#f5f5f5;"/><g id="Plus-Plus" serif:id="Plus Plus"><g id="Plus"><path d="M145.467,82.574l-0,1.261c-0,0.347 -0.283,0.63 -0.631,0.63l-14.062,-0c-0.348,-0 -0.631,-0.283 -0.631,-0.63l0,-1.261c0,-0.348 0.283,-0.63 0.631,-0.63l14.062,-0c0.348,-0 0.631,0.282 0.631,0.63Z" style="fill:#f5f5f5;"/><path d="M139.106,76.49l0,13.376c0,0.354 -0.287,0.642 -0.641,0.642l-1.284,-0c-0.354,-0 -0.641,-0.288 -0.641,-0.642l-0,-13.376c-0,-0.354 0.287,-0.642 0.641,-0.642l1.284,0c0.354,0 0.641,0.288 0.641,0.642Z" style="fill:#f5f5f5;"/></g><g id="Plus1" serif:id="Plus"><path d="M128.8,82.574l-0,1.261c-0,0.347 -0.282,0.63 -0.63,0.63l-14.063,-0c-0.348,-0 -0.63,-0.283 -0.63,-0.63l-0,-1.261c-0,-0.348 0.282,-0.63 0.63,-0.63l14.063,-0c0.348,-0 0.63,0.282 0.63,0.63Z" style="fill:#f5f5f5;"/><path d="M122.44,76.49l-0,13.376c-0,0.354 -0.288,0.642 -0.642,0.642l-1.283,-0c-0.354,-0 -0.642,-0.288 -0.642,-0.642l0,-13.376c0,-0.354 0.288,-0.642 0.642,-0.642l1.283,0c0.354,0 0.642,0.288 0.642,0.642Z" style="fill:#f5f5f5;"/></g></g></g></svg>