<?xml version="1.0" encoding="UTF-8" standalone="no"?><!DOCTYPE svg PUBLIC "-//W3C//DTD SVG 1.1//EN" "http://www.w3.org/Graphics/SVG/1.1/DTD/svg11.dtd"><svg width="100%" height="100%" viewBox="0 0 671 738" version="1.1" xmlns="http://www.w3.org/2000/svg" xmlns:xlink="http://www.w3.org/1999/xlink" xml:space="preserve" xmlns:serif="http://www.serif.com/" style="fill-rule:evenodd;clip-rule:evenodd;stroke-linejoin:round;stroke-miterlimit:2;"><g><path d="M545.296,488.863c-41.85,73.391 -120.833,122.912 -211.292,122.912c-134.15,0 -243.058,-108.904 -243.058,-243.054c-0,-134.15 108.908,-243.054 243.058,-243.054c89.025,-0 166.933,47.962 209.271,119.437l-105.542,60.304c-21.362,-34.908 -59.85,-58.216 -103.729,-58.216c-67.083,-0 -121.529,54.446 -121.529,121.529c-0,67.067 54.462,121.529 121.529,121.529c44.613,0 83.65,-24.104 104.788,-59.988l106.504,58.601Z" style="fill:#f5f5f5;"/><g id="Plus-Plus" serif:id="Plus Plus"><g id="Plus"><path d="M606.113,344.058l-0,5.255c-0,1.445 -1.18,2.625 -2.63,2.625l-58.591,-0c-1.45,-0 -2.63,-1.18 -2.63,-2.625l0,-5.255c0,-1.45 1.18,-2.625 2.63,-2.625l58.591,0c1.45,0 2.63,1.175 2.63,2.625Z" style="fill:#f5f5f5;"/><path d="M579.608,318.708l0,55.734c0,1.475 -1.196,2.675 -2.671,2.675l-5.349,-0c-1.475,-0 -2.671,-1.2 -2.671,-2.675l-0,-55.734c-0,-1.475 1.196,-2.675 2.671,-2.675l5.35,0c1.475,0 2.67,1.2 2.67,2.675Z" style="fill:#f5f5f5;"/></g><g id="Plus1" serif:id="Plus"><path d="M536.667,344.058l-0,5.255c-0,1.445 -1.175,2.625 -2.625,2.625l-58.596,-0c-1.45,-0 -2.625,-1.18 -2.625,-2.625l-0,-5.255c-0,-1.45 1.175,-2.625 2.625,-2.625l58.596,0c1.45,0 2.625,1.175 2.625,2.625Z" style="fill:#f5f5f5;"/><path d="M510.167,318.708l-0,55.734c-0,1.475 -1.2,2.675 -2.675,2.675l-5.346,-0c-1.475,-0 -2.675,-1.2 -2.675,-2.675l-0,-55.734c-0,-1.475 1.2,-2.675 2.675,-2.675l5.346,0c1.475,0 2.675,1.2 2.675,2.675Z" style="fill:#f5f5f5;"/></g></g></g></svg>