<?xml version="1.0" encoding="UTF-8" standalone="no"?><!DOCTYPE svg PUBLIC "-//W3C//DTD SVG 1.1//EN" "http://www.w3.org/Graphics/SVG/1.1/DTD/svg11.dtd"><svg width="100%" height="100%" viewBox="0 0 671 738" version="1.1" xmlns="http://www.w3.org/2000/svg" xmlns:xlink="http://www.w3.org/1999/xlink" xml:space="preserve" xmlns:serif="http://www.serif.com/" style="fill-rule:evenodd;clip-rule:evenodd;stroke-linejoin:round;stroke-miterlimit:2;"><g><path id="C" d="M545.296,488.863c-41.85,73.391 -120.833,122.912 -211.292,122.912c-134.15,0 -243.058,-108.904 -243.058,-243.054c-0,-134.15 108.908,-243.054 243.058,-243.054c89.025,-0 166.933,47.962 209.271,119.437l-105.542,60.304c-21.362,-34.908 -59.85,-58.216 -103.729,-58.216c-67.083,-0 -121.529,54.446 -121.529,121.529c-0,67.067 54.462,121.529 121.529,121.529c44.613,0 83.65,-24.104 104.788,-59.988l106.504,58.601Z" style="fill:#f5f5f5;"/><g id="Hashtag"><path d="M507.613,299.275l17.362,-0l0,138.892l-17.363,-0l0,-138.892Zm52.084,-0l17.362,-0l0,138.892l-17.362,-0l-0,-138.892Z" style="fill:#f5f5f5;"/><path d="M472.892,386.083l138.887,0l0,17.359l-138.887,-0l-0,-17.359Zm-0,-52.083l138.887,0l0,17.358l-138.887,0l-0,-17.358Z" style="fill:#f5f5f5;"/></g></g></svg>