<?xml version="1.0" encoding="UTF-8" standalone="no"?><!DOCTYPE svg PUBLIC "-//W3C//DTD SVG 1.1//EN" "http://www.w3.org/Graphics/SVG/1.1/DTD/svg11.dtd"><svg width="100%" height="100%" viewBox="0 0 1950 1971" version="1.1" xmlns="http://www.w3.org/2000/svg" xmlns:xlink="http://www.w3.org/1999/xlink" xml:space="preserve" xmlns:serif="http://www.serif.com/" style="fill-rule:evenodd;clip-rule:evenodd;stroke-linejoin:round;stroke-miterlimit:2;"><g id="Two-Snakes" serif:id="Two Snakes"><path id="path1948" d="M962.133,8.696c-79.579,0.371 -155.575,7.158 -222.441,18.987c-196.984,34.805 -232.746,107.642 -232.746,241.971l-0,177.409l465.496,-0l-0,59.137l-640.192,0c-135.287,0 -253.746,81.317 -290.8,236.004c-42.742,177.309 -44.633,287.95 0,473.088c33.088,137.812 112.108,236.004 247.396,236.004l160.05,-0l-0,-212.675c-0,-153.642 132.933,-289.171 290.796,-289.171l464.954,0c129.425,0 232.746,-106.562 232.746,-236.542l-0,-443.254c-0,-126.15 -106.421,-220.916 -232.746,-241.971c-79.967,-13.308 -162.938,-19.358 -242.513,-18.987Zm-251.737,142.687c48.083,0 87.346,39.909 87.346,88.975c-0,48.896 -39.263,88.434 -87.346,88.434c-48.254,-0 -87.35,-39.538 -87.35,-88.434c-0,-49.066 39.096,-88.975 87.35,-88.975Z" style="fill:#f5f5f5;fill-rule:nonzero;"/><path id="path1950" d="M1495.44,506.2l-0,206.708c-0,160.255 -135.863,295.138 -290.796,295.138l-464.954,-0c-127.359,-0 -232.746,109 -232.746,236.546l-0,443.25c-0,126.15 109.696,200.354 232.746,236.546c147.35,43.325 288.65,51.154 464.954,-0c117.187,-33.93 232.746,-102.217 232.746,-236.546l-0,-177.409l-464.95,0l-0,-59.137l697.696,-0c135.287,-0 185.699,-94.363 232.75,-236.004c48.6,-145.813 46.529,-286.038 -0,-473.088c-33.434,-134.679 -97.292,-236.004 -232.75,-236.004l-174.696,0Zm-261.5,1122.5c48.254,0 87.35,39.538 87.35,88.433c-0,49.071 -39.096,88.975 -87.35,88.975c-48.084,0 -87.35,-39.904 -87.35,-88.975c-0,-48.895 39.266,-88.433 87.35,-88.433Z" style="fill:#f5f5f5;fill-rule:nonzero;"/></g></svg>