<?xml version="1.0" encoding="UTF-8" standalone="no"?><!DOCTYPE svg PUBLIC "-//W3C//DTD SVG 1.1//EN" "http://www.w3.org/Graphics/SVG/1.1/DTD/svg11.dtd"><svg width="100%" height="100%" viewBox="0 0 468 473" version="1.1" xmlns="http://www.w3.org/2000/svg" xmlns:xlink="http://www.w3.org/1999/xlink" xml:space="preserve" xmlns:serif="http://www.serif.com/" style="fill-rule:evenodd;clip-rule:evenodd;stroke-linejoin:round;stroke-miterlimit:2;"><g id="Two-Snakes" serif:id="Two Snakes"><path id="path1948" d="M230.912,2.087c-19.099,0.089 -37.338,1.718 -53.386,4.557c-47.276,8.353 -55.859,25.834 -55.859,58.073l-0,42.578l111.719,0l-0,14.193l-153.646,0c-32.469,0 -60.899,19.516 -69.792,56.641c-10.258,42.554 -10.712,69.108 0,113.541c7.941,33.075 26.906,56.641 59.375,56.641l38.412,0l-0,-51.042c-0,-36.874 31.904,-69.401 69.791,-69.401l111.589,0c31.062,0 55.859,-25.575 55.859,-56.77l0,-106.381c0,-30.276 -25.541,-53.02 -55.859,-58.073c-19.192,-3.194 -39.105,-4.646 -58.203,-4.557Zm-60.417,34.245c11.54,-0 20.963,9.578 20.963,21.354c0,11.735 -9.423,21.224 -20.963,21.224c-11.581,0 -20.964,-9.489 -20.964,-21.224c0,-11.776 9.383,-21.354 20.964,-21.354Z" style="fill:none;fill-rule:nonzero;stroke:#f5f5f5;stroke-width:4.17px;"/><path id="path1950" d="M358.906,121.488l0,49.61c0,38.461 -32.607,70.833 -69.791,70.833l-111.589,-0c-30.566,-0 -55.859,26.16 -55.859,56.771l-0,106.38c-0,30.276 26.327,48.085 55.859,56.771c35.364,10.398 69.276,12.277 111.589,-0c28.125,-8.143 55.859,-24.532 55.859,-56.771l0,-42.578l-111.588,-0l-0,-14.193l167.447,0c32.469,0 44.568,-22.647 55.86,-56.641c11.664,-34.995 11.167,-68.649 -0,-113.541c-8.024,-32.323 -23.35,-56.641 -55.86,-56.641l-41.927,0Zm-62.76,269.401c11.581,0 20.964,9.489 20.964,21.224c-0,11.777 -9.383,21.354 -20.964,21.354c-11.54,0 -20.964,-9.577 -20.964,-21.354c0,-11.735 9.424,-21.224 20.964,-21.224Z" style="fill:none;fill-rule:nonzero;stroke:#f5f5f5;stroke-width:4.17px;"/></g></svg>