<?xml version="1.0" encoding="utf-8"?>
<!-- Generator: Adobe Illustrator 21.0.2, SVG Export Plug-In . SVG Version: 6.00 Build 0)  -->
<svg version="1.1" xmlns="http://www.w3.org/2000/svg" xmlns:xlink="http://www.w3.org/1999/xlink" x="0px" y="0px"
	 viewBox="0 0 100 100" style="enable-background:new 0 0 100 100;" xml:space="preserve">
<style type="text/css">
	.st0{display:none;}
	.st1{display:inline;}
	.st2{fill:#D12D0B;}
	.st3{fill:url(#SVGID_1_);enable-background:new    ;}
	.st4{fill:url(#SVGID_2_);}
	.st5{fill:url(#SVGID_3_);}
	.st6{fill:url(#SVGID_4_);}
	.st7{fill:url(#SVGID_5_);}
	.st8{fill:url(#SVGID_6_);}
	.st9{fill:#FFFFFF;enable-background:new    ;}
	.st10{fill:url(#SVGID_7_);}
	.st11{fill:url(#SVGID_8_);}
	.st12{fill:url(#SVGID_9_);}
	.st13{fill:url(#SVGID_10_);}
	.st14{fill:url(#SVGID_11_);}
	.st15{opacity:0.1;fill:#FFFFFF;enable-background:new    ;}
	.st16{fill:url(#SVGID_12_);}
	.st17{fill:url(#SVGID_13_);}
	.st18{fill:url(#SVGID_14_);}
	.st19{fill:url(#SVGID_15_);}
	.st20{fill:url(#SVGID_16_);}
</style>
<g id="Logo_1" class="st0">
	<title>k-design</title>
	<g id="k-design_x2F_utvikling" class="st1">
		<path class="st2" d="M-1137.5-214.6c-0.3-0.4-0.5-0.9-0.8-1.3c0,0,0,0,0,0c-7.6-12.7-21.1-21.2-36.4-21.2c-23.8,0-43,20.2-43,45.1
			s19.3,45.1,43,45.1c0.4,0,0.9,0,1.3,0c23.1-0.7,41.7-20.6,41.7-45C-1131.7-200.3-1133.8-208-1137.5-214.6z"/>
		<linearGradient id="SVGID_1_" gradientUnits="userSpaceOnUse" x1="-1173.043" y1="-193.9648" x2="-1137.813" y2="-168.3687">
			<stop  offset="0" style="stop-color:#FFFFFF;stop-opacity:0.1"/>
			<stop  offset="0.3882" style="stop-color:#FDFDFD;stop-opacity:6.117943e-02"/>
			<stop  offset="0.528" style="stop-color:#F6F6F6;stop-opacity:4.719520e-02"/>
			<stop  offset="0.6278" style="stop-color:#EBEBEB;stop-opacity:3.722264e-02"/>
			<stop  offset="0.7084" style="stop-color:#DADADA;stop-opacity:2.916338e-02"/>
			<stop  offset="0.7774" style="stop-color:#C4C4C4;stop-opacity:2.225995e-02"/>
			<stop  offset="0.8386" style="stop-color:#A8A8A8;stop-opacity:1.614197e-02"/>
			<stop  offset="0.8939" style="stop-color:#888888;stop-opacity:1.060715e-02"/>
			<stop  offset="0.9448" style="stop-color:#626262;stop-opacity:5.524307e-03"/>
			<stop  offset="0.99" style="stop-color:#393939;stop-opacity:1.001000e-03"/>
			<stop  offset="1" style="stop-color:#2F2F2F;stop-opacity:0"/>
		</linearGradient>
		<path class="st3" d="M-1131.7-192c0-8.2-2.1-16-5.8-22.6c-0.3-0.4-0.5-0.9-0.8-1.3c-15,1.3-29.2,10.6-36.5,25.5
			c-7.2,14.5-6.1,30.9,1.4,43.4C-1150.2-147.7-1131.7-167.6-1131.7-192z"/>
		<g>
			
				<radialGradient id="SVGID_2_" cx="-15017.9648" cy="14761.1846" r="51.9" gradientTransform="matrix(9.000000e-02 0.12 0.42 -0.29 -5981.3994 5998.9619)" gradientUnits="userSpaceOnUse">
				<stop  offset="1.000000e-02" style="stop-color:#F7F999"/>
				<stop  offset="0.54" style="stop-color:#F3553E"/>
				<stop  offset="1" style="stop-color:#BD7B0D"/>
			</radialGradient>
			<path class="st4" d="M-1175.3-204.7c0,0,1.1-4.2,7.5-7.2c2.5-1.2,2.2-1.3,4.4-3.4c1.6-1.6,3.5-2.9,5.5-4
				c-1.1,0.7-2.1,1.6-3.1,2.5c-1.2,1.5-2.6,2.8-4.2,4c-1.5,1-0.3,1.5,1.7-0.2c2-1.7,3.6-4,6.8-5.9s4.2-1.3,7.1-3.3
				c-0.8,0.8-1.8,1.5-2.8,2.1c-1.4,0.7-1.7-1-5.2,2.8c-1.5,1.8-3.3,3.4-5.2,4.8c-1.5,1-3.9,2.4-2.8,2.8s1.2,0.5,2.8-1.7
				c1.7-2.2,2.7-2.6,5.3-3.9c1.7-0.8,3.3-1.8,4.7-3.1c2-1.7,2.2-2.5,4.4-3.9c2.2-1.4,2.5-0.6,3.9-2c-0.9,1-2.1,1.9-3.4,2.5
				c-1,0.3-4.1,1.8-3.9,3.2c0.1,0.7-0.9,1.8-2.8,2.9s-2.9,1-4.3,3.2s-2.8,2.6-4.1,3.5s-1.5,1.6,0,0.7c1.5-0.9,0.5-0.7,3.8-3.2
				s2.9-2.4,4.2-2.3c3.2,0.1,4.5-3.5,6.4-4.9c-0.8,0.7-1.5,1.5-2.1,2.3c-0.8,1.3-1.9,2.3-3.3,2.9c-1.8,0.9-3.3,1.3-4.7,2.8
				c-1.4,1.4-1.4,2.1-3.9,3.5c-2.5,1.4-3.7,2.7-2.6,2.1c1.8-0.9,3.6-2,5.1-3.3c2.3-2,3.2-2.7,4.6-3.3c-0.8,0.2-1.5,0.7-2,1.4
				c-1.2,1.5-2.6,2.9-4.2,3.9c-2.6,1.7-3.6,2-5.4,3.6c-1.8,1.6-0.8,1.9-3.8,2.3C-1174.8-200.2-1175.3-204.7-1175.3-204.7z"/>
		</g>
		<g>
			
				<radialGradient id="SVGID_3_" cx="15048.1816" cy="18184.7188" r="51.91" gradientTransform="matrix(-7.000000e-02 -9.000000e-02 0.33 -0.24 -6236.0874 5576.1899)" gradientUnits="userSpaceOnUse">
				<stop  offset="1.000000e-02" style="stop-color:#F7F999"/>
				<stop  offset="0.54" style="stop-color:#F3553E"/>
				<stop  offset="1" style="stop-color:#BD7B0D"/>
			</radialGradient>
			<path class="st5" d="M-1172.2-201.2c0,0,3.5,0.2,7.5-3.8c1.6-1.6,1.6-1.3,3.8-2.5c1.6-0.8,3.2-1.9,4.5-3.1
				c-0.8,0.6-1.8,1.2-2.7,1.7c-1.4,0.6-2.8,1.3-4.1,2.1c-1.1,0.9-1.2-0.1,0.6-1.2c1.8-1.1,4-1.7,6.3-3.7s2.1-2.8,4.4-4.4
				c-0.8,0.4-1.6,1-2.3,1.6c-0.9,0.9-1.5,2.4-3.6,3.2c-1.8,0.7-3.5,1.6-5,2.7c-1.1,0.8-2.8,2.3-2.9,1.4c-0.1-0.9,0-1,2.1-1.7
				c2.1-0.7,2.7-1.4,4.4-3c1-1.1,2.3-2.1,3.6-2.8c1.8-1.1,2.5-1,4.2-2.4c1.7-1.4,2-2.3,3.5-3c0,0-2.9,1.4-3.6,2.5
				c-1,0.9-2.2,1.7-3.4,2.1c-1.2,0.4-1.6,0.2-2.9,1.4c-1.3,1.1-1.6,1.9-3.6,2.4c-1.4,0.4-2.7,1.2-3.7,2.2c-1,0.7-1.6,0.7-0.5-0.2
				c1.1-0.9,0.7-0.2,3.4-2.1c2.8-1.9,2.4-2.4,4.2-3.8c1.8-1.4,2.6-1.3,4.1-2.4c-0.7,0.4-1.5,0.8-2.3,1c-1.2,0.3-2.2,0.9-3.1,1.8
				c-1.2,1.1-1.9,2.2-3.4,2.8s-2,0.6-3.7,2s-3,2.1-2.2,1.4c1.2-1.2,2.5-2.2,3.9-3c1.4-0.6,2.7-1.5,3.7-2.7c-0.4,0.5-1,0.9-1.6,1.1
				c-1.5,0.5-2.8,1.2-4,2.2c-1.3,1.2-2.7,2.2-4.2,3.2c-1.7,1-1.7,0.2-2.7,2.3C-1175.5-202.6-1172.2-201.2-1172.2-201.2z"/>
		</g>
		<g>
			
				<radialGradient id="SVGID_4_" cx="-12988.8447" cy="14771.8613" r="91.65" gradientTransform="matrix(0.11 0.15 0.42 -0.29 -5943.4321 6055.6484)" gradientUnits="userSpaceOnUse">
				<stop  offset="0" style="stop-color:#F8CB66"/>
				<stop  offset="1" style="stop-color:#FB0F0C"/>
			</radialGradient>
			<path class="st6" d="M-1162.8-212.4c-0.5,0.1-1.1,0.4-1.5,0.8c-0.2,0.2-0.4,0.5-0.4,0.6c0.1,0.1,0.4-0.1,0.8-0.2
				c-0.2,0.1-0.4,0.3-0.6,0.5c-0.3,0.3-0.7,0.4-1,0.7c0,0.1-0.2,0.5-0.1,0.5c0.9-0.5,1.8-1,2.6-1.7c0.5-0.4,1-0.7,1.5-0.9
				c0.4-0.2,0.8-0.2,1.2-0.4c-0.3,0.2-0.5,0.4-0.8,0.6c-0.1,0.1-0.4,0.3-0.5,0.5c-0.2,0.1-0.4,0.2-0.6,0.3c-0.7,0.4-0.2,0.5-0.3,0.8
				c-0.2,0.3-0.4,0.4-0.5,0.6c1-0.3,2.1-1.9,2.7-2.5c0.5-0.6,1.2-1,2-1.2c0.6-0.2,1-0.6,1.5-0.8c-0.3,0.2-0.7,0.5-1,0.8
				c-0.5,0.3-1.1,0.6-1.6,0.9c-0.3,0.2-0.2,0.4-0.1,0.5c0.1,0.1,1-0.3,1.5-0.6c0.5-0.4,1.1-0.9,1.7-1.3c0.4-0.3,0.8-0.5,1.3-0.6
				c0.7-0.1,1.4-0.4,2-0.8c-0.4,0.4-0.9,0.7-1.5,0.9c-0.6,0.2-1.2,0.5-1.7,0.9c-2.5,1.8-0.2,0.9,0.5-0.1c-0.2,0.3-0.1,0.3-0.4,0.6
				c-0.3,0.2-0.5,0.4-0.8,0.6c-0.5,0.2-1,0.4-1.4,0.7c-0.5,0.4-0.7,1.3,0,0.8c0.5-0.3,0.5-0.7,1.1-0.8c-0.3,0.1-0.5,0.3-0.7,0.5
				c-0.2,0.3,0.1,0.2,0.4,0.1c0.8-0.4,1.6-1.4,2.2-1.4c-0.5,0.3-1,0.7-1.5,1.1c-0.8,0.6-1.6,1.1-2.6,1.5c-0.5,0.2-2.1,0.2-2.3,1.1
				c-0.1,0.5,0.9-0.3,1.3-0.5c-0.7,0.8-1.7,1.3-2.7,1.6c-0.7,0.2-1.4,0.6-1.9,1.2c-0.3,0.5-0.2,0.7,0.5,0.1c0.3-0.3,0.6-0.5,1-0.6
				c0.3-0.1,0.6-0.3,0.9-0.5c-0.2,0.4-0.5,0.7-0.8,0.9c-0.2,0.1-0.4,0.3-0.6,0.4c-0.5,0.3-1,0.7-1.5,1c-0.2,0.1-0.5,0.1-0.7,0.3
				c-0.4,0.3-0.6,0.9-0.4,1c0.4,0.1,1.2-0.7,1.6-1.1s0.7-0.5,1.1-0.8c0.4-0.4,0.9-0.7,1.4-1c0.6-0.3,0.7-0.1,1.3-0.6
				c0.3-0.4,0.8-0.8,1.3-1c0.7-0.3,1.5-0.3,2.3-0.2c-0.7,0.1-1.4,0.5-2,0.9c0.2,0.4,0.7,0.4,1.8-0.2c0.6-0.4,1.2-0.7,1.8-0.9
				c0.3-0.1,0.5,0,0.7,0.1c-1.1,0.3-2.1,0.9-3,1.6c-1.3,1-1.6,1.8-3.1,2.2c-1.1,0.3-1.6-0.1-2.9,1c-0.4,0.4-0.8,0.8-1.3,1.1
				c-0.5,0.2-1,0.4-1.5,0.6c-0.5,0.4-0.3,0.6,0.1,0.5s0.6-0.2,0.9-0.3c0.3-0.1,0.2,0.3,0.3,0.4c-0.4,0.1-0.4-0.2-0.8,0.1
				c-0.4,0.2-0.8,0.7-1.2,1c-0.5,0.3-1,0.4-1.6,0.4c-0.4,0.1-0.7,0.2-1.1,0.3c-0.3,0.2-0.7,0.1-1-0.2c-0.2-0.2-0.5-0.4-0.9-0.4
				c-0.4,0-0.8,0-1-0.2c-0.5-0.6-0.3-1.6-1-2.2c-0.2-0.1-0.5-0.2-0.5-0.5c-0.1-0.3-0.2-0.7-0.3-1c-0.1-0.2,0.1-0.3,0.1-0.6
				c0-0.3,0-0.3,0.2-0.6s0.1-0.3,0.3-0.4c0.3-0.2,1-1.6,1.2-1.8c0.2-0.2,0.7-0.7,1-1c0.3-0.3,1.1-1,1.4-1.2c0.4-0.3,0.9-0.6,1.3-0.9
				c1.2-0.6-1.2,1.8-0.5,1.6c0.4-0.1,0.8-0.4,1.1-0.8c0.2-0.3-0.1-0.3-0.1-0.5c0.1-0.6,1.3-1.6,2.1-1.8c0.2,0,0.5-0.1,0.7-0.3
				c0.4-0.3,0.8-0.5,1.3-0.7c-0.4,0.2-0.7,0.5-1,0.8c-0.3,0.3-0.6,0.5-1.1,0.6c-1.3,0.4-1.1,1.4,0,1s2.2-2.2,2.9-2.9
				c1-1.1,2.5-1.3,3.7-2.2c-0.5,0.4-1,0.8-1.5,1.1c-0.5,0.2-1,0.5-1.5,0.9c-0.3,0.3-1.3,1.3-0.8,1.2c0.5-0.1,1-0.8,1.4-1
				c0.1,0,0.1,0.1,0.3,0c0.4-0.2,0.7-0.4,1-0.7c0.3-0.2,0.6-0.5,0.9-0.7c0.5-0.2,1-0.2,1.5-0.2c0.6-0.1,1.1-0.3,1.6-0.6
				c-0.3,0.3-0.7,0.5-1.1,0.7c-0.5,0.2-0.8,0.1-1.3,0.3c-0.8,0.4-1,1.1-1.8,1.4c-0.2,0.1-0.3,0-0.5,0.1s-0.4,0.2-0.6,0.3
				c-0.4,0.2-1.1,0.5-0.6,0.6c0.4,0,0.8,0,1.2-0.2c0.5-0.2,1.1-0.7,1.6-0.8c-0.2,0.2-0.5,0.5-0.7,0.7c-0.3,0.2-0.6,0.3-1,0.4
				L-1162.8-212.4z"/>
		</g>
		<g>
			
				<radialGradient id="SVGID_5_" cx="-15020.834" cy="14760.3447" r="105.75" gradientTransform="matrix(9.000000e-02 0.12 0.42 -0.29 -5981.3994 5998.9619)" gradientUnits="userSpaceOnUse">
				<stop  offset="0" style="stop-color:#F7F619"/>
				<stop  offset="0.52" style="stop-color:#F6A156"/>
				<stop  offset="1" style="stop-color:#F67C11"/>
			</radialGradient>
			<path class="st7" d="M-1175.5-204.6c0,0,0.8-1.3,1.5-2.6c1.2-1.6,2.9-3,4.7-3.8c1.3-0.4,3.5-1.1,4-1.7c1.1-1.4,2.4-2.5,3.9-3.4
				c-0.7,0.5-1.4,1.1-1.9,1.8c-0.3,0.7-0.7,1.3-1.2,1.8c-0.7,0.8-3,1.6-3.3,2.1s1.6,0.3,2-0.3c0.7-1.1,1.6-2,2.8-2.7
				c1.1-0.4,1.5,0.1,2-0.6c-0.2,0.3-0.4,0.5-0.8,0.6c-0.5,0.2-1.4,0.3-1.8,0.8s0.2,0.7,0.6,0.3c0.4-0.4,0.5-0.6,0.8-0.7
				c0,0-0.4,0.3-0.4,0.5c-0.1,0.5-0.5,0.9-1,1c-0.7,0.2-0.6-0.4-1.1,0.1c-0.5,0.5-0.5,0.8-1.4,1.5c-0.9,0.7-1.5,0.1-2.5,1.4
				c-1,1.3-0.5,1.6,0.3,0.7c0.7-0.8,1.6-1.5,2.5-1.9c1.1-0.4,2.2-1,3-1.8c-0.4,0.5-0.9,1-1.5,1.4c-0.9,0.6-1.6,0.6-2,1.1
				c-0.4,0.6-0.1,0.5-0.6,1.2c-0.5,0.6-1.8,1.2-1.2,1.2c0.8-0.1,1.6-0.6,2-1.3c0.5-0.8,1.4-1.9,2-1.8c1,0.2,2-0.2,2.6-1
				c0.7-0.8,1.6-1.5,2.5-2.1l0.1-0.1c0.9-0.5-0.6,0.2-1.1,0.9c-0.6,0.9-1.3,1.6-2.1,2.2c-0.8,0.6-1.9,0.4-2.5,1
				c-0.6,0.6-0.3,0.8-1.5,1.7c-1.2,0.9-2.6,0.9-3.5,1.9c-0.8,1-0.7,2.2,0.6,1.2c1.3-1,2.4-2.6,3.8-3.6c1.4-1,1.8-0.6,2.8-1.4
				c1-0.8,0.7-0.9,1.5-1.4c0.3,0.1,0.5,0.1,0.8,0c-0.4,0.1-0.7,0.4-1,0.7c-0.4,0.5-0.5,0.8-0.9,1.1c-0.4,0.3-0.9,0.3-1.7,0.8
				c-3,1.7-1.3,2-0.7,1.5c0.6-0.5,0.8-1.1,1.5-1.3s0.8,0,1.2-0.4c0,0-0.1,0.3-0.7,0.5c-0.6,0.2-0.8,0.2-1.2,0.8
				c-0.4,0.6-0.7,0.9-2.1,1.2c-1.4,0.3-1.3,0-2.1,1s-2,2.2-0.7,1.3s2-1.8,2.8-1.6c0.8,0.2,0.9,1.2,1.8,0s2.9-3.6,4-4.1
				s0.9,0.4,2.1-0.7c1.2-1.1,0.9-0.5,1.4-0.6c0,0-0.3-0.1-0.7,0.3c-0.5,0.4-1,1.1-0.3,0.7c0.6-0.4,1.1-0.8,1.8-1.2
				c-0.3,0.2-0.6,0.4-0.8,0.6c-0.4,0.5-1,0.9-1.7,1.2c-0.7,0.1-1-0.4-2,0.4c-0.8,0.7-1.5,1.5-2.1,2.3c-0.7,1-2.2,2.7-3.4,2.8
				c-1.2,0.1-1.8-0.2-2.7,0.8s0.3,1,0.9,0.4c0.5-0.5,1.2-0.7,1.9-0.8c-0.4,0-0.8,0.2-1.1,0.5c-0.6,0.7-1.4,1.3-2.4,1.5
				c-1,0.2-2.6,0.8-3.1,0.3c-0.3-0.3-0.1-0.3-1.3-0.5c-1.2-0.1-0.8-1.2-1.3-1.8C-1175.1-202.9-1175.5-203.8-1175.5-204.6z"/>
		</g>
		<g>
			
				<radialGradient id="SVGID_6_" cx="-15017.6836" cy="14759.4248" r="15.79" gradientTransform="matrix(9.000000e-02 0.12 0.42 -0.29 -5981.3994 5998.9619)" gradientUnits="userSpaceOnUse">
				<stop  offset="0" style="stop-color:#F7F9E3"/>
				<stop  offset="0.13" style="stop-color:#F7F9CF"/>
				<stop  offset="0.49" style="stop-color:#F7F999"/>
				<stop  offset="1" style="stop-color:#F5EA7A"/>
			</radialGradient>
			<path class="st8" d="M-1175.2-205.6c0.5-0.8,1-1.6,1.7-2.2c0.9-0.8,2-1.5,3.1-1.9c1.2-0.5,2.2-1.2,3-2.3
				c-0.1,0.6-0.4,1.1-0.7,1.6c-0.5,0.6-1.1,1.2-1.8,1.7c-3.3,2.5,0.7,0.6,1,0.2c0.6-1.1,1.5-1.9,2.6-2.5c-0.4,0.2-0.8,0.6-1.1,1
				c-0.3,0.8-0.8,1.5-1.4,2c-0.9,0.5-1.7,1-2.5,1.6c-1,0.9-1,1.6-0.2,1.2c0.8-0.4,1.6-1,2.3-1.7c0.7-0.6,3.2-1.2,4.4-2.3
				c-0.6,0.5-1.3,1.1-2,1.5c-1,0.5-2,1.2-2.8,1.9c-0.5,0.6-0.8,1.6,0.6,0.7c1-0.6,2.4-2.3,3.4-2.9s1.6-0.4,2.3-1.1
				c-0.4,0.3-0.8,0.6-1.2,0.8c-0.9,0.3-1.7,0.9-2.3,1.6c-0.3,0.6,1.4,0,2-0.6c0.8-0.8,1.7-1.4,2.8-1.8c-0.7,0.3-1.3,0.7-1.7,1.2
				c-0.4,0.7-0.4,0.9-1.8,1.8c-1.4,0.9-1.8,0.2-2.6,0.8c-0.8,0.6-2.6,2.2-2,2.3c0.6,0.1,1,0,2.2-1.1c0.8-0.7,1.8-1,2.9-0.9
				c0.8,0,2-1.7,3.2-2.7c0.6-0.4,1.2-0.8,1.9-1c-0.7,0.3-1.4,0.7-2.1,1.2c-0.5,0.7-1.1,1.4-1.7,2c-0.7,0.6-1.5,0.7-2.2,1.3
				s-1,1.2-0.3,1c0.5-0.2,0.9-0.5,1.2-0.9c0.5-0.5,1.1-1,1.8-1.2c-0.4,0.3-0.8,0.6-1.1,0.9c-1.4,1.3-0.5,1.1,0.1,0.7
				c0.6-0.4,1.5-1.5,2.2-1.4c-0.3,0.1-0.6,0.3-0.8,0.5c-0.3,0.5-0.7,0.9-1.2,1.2c-0.5,0.4-1,0.7-1.6,0.7c-0.5,0.1-1.3-0.4-2.2,0.3
				s-0.4,1.1,0.2,0.7c0.3-0.3,0.7-0.5,1.2-0.4c-0.2,0-0.5,0.1-0.7,0.3c-0.4,0.3-0.5,0.8-1.4,1c-1,0.4-2.1,0.6-3.2,0.3
				c-1-0.3-2-0.4-2.1-0.9c0-0.5-0.3-1-0.6-1.3C-1175.4-203.3-1175.6-204.6-1175.2-205.6z"/>
		</g>
		<path class="st9" d="M-1035.5-158.6c0,0-30.2-34.7-32.7-36.7c-1.2-1-3.9-1.1-6.3-0.9c0-0.2,0-0.3,0-0.5c0-3.3,0-6.3,0-9.2
			c0-3,0-5.8,0-8.4c0-0.7,0.4-1.3,1-1.7l1.5-0.8c1.2-0.6,1.7-2.1,1.1-3.4c-0.4-0.8-1.3-1.4-2.2-1.4h-20.1l8.5,5.5l-0.2,24.6
			l-0.2,18.3l-3.9,2.9l-4.2,3.1h4.4h14.9c1.5,0,2.6-1.2,2.6-2.6c0-0.9-0.5-1.8-1.3-2.2l-1.1-0.7c-0.6-0.3-0.9-0.9-0.9-1.6
			c0-5.7,0-10.8,0-15.4c1.6,1.5,30.7,29,35.3,32.8c1,0.8,1.7,1.2,2.2,1.3c0.2,0,0.3,0,0.5,0c0.5-0.1,0.8-0.5,1-1
			c0.1-0.2,0.1-0.4,0.1-0.7C-1035.4-157.8-1035.5-158.6-1035.5-158.6z"/>
		<path class="st9" d="M-1143.2-165c0,0-30.2-34.7-32.7-36.7c-1.2-1-3.9-1.1-6.3-0.9c0-0.2,0-0.3,0-0.5c0-3.9,0-5.7,0-9.2
			c0-3,0-5.8,0-8.4c0-0.7,0.4-1.3,1-1.7l1.5-0.8c1.2-0.6,1.7-2.1,1.1-3.4c-0.4-0.8-1.3-1.4-2.2-1.4h-20.1l8.5,5.5l-0.2,24.6
			l-0.2,18.3l-3.9,2.9l-4.2,3.1h4.4h14.9c1.5,0,2.6-1.2,2.6-2.6c0-0.9-0.5-1.8-1.3-2.2l-1.1-0.7c-0.6-0.3-0.9-0.9-0.9-1.6
			c0-5.7,0-10.8,0-15.4c1.6,1.5,30.7,29,35.3,32.8c1,0.8,1.7,1.2,2.2,1.3c0.2,0,0.3,0,0.5,0c0.5-0.1,0.8-0.5,1-1
			c0.1-0.2,0.1-0.4,0.1-0.7C-1143.1-164.3-1143.2-165-1143.2-165z"/>
	</g>
</g>
<g id="logo_2">
	
		<image style="overflow:visible;" width="87" height="87" xlink:href="6A106FFF.png"  transform="matrix(1 0 0 1 -1225.8898 -242.5)">
	</image>
	<image style="overflow:visible;" width="101" height="95" xlink:href="6A106FF4.png"  transform="matrix(1 0 0 1 -0.8898 0.5)">
	</image>
	<g id="Layer_6">
	</g>
	<g id="Layer_4">
		
			<image style="overflow:visible;opacity:0.2;" width="66" height="67" xlink:href="6A106FF5.png"  transform="matrix(1 0 0 1 -1215.8898 -232.5)">
		</image>
		<g>
			<g id="Layer_9_4_">
				<g>
					
						<radialGradient id="SVGID_7_" cx="-17279.793" cy="14336.3154" r="51.9" gradientTransform="matrix(5.124392e-02 7.894061e-02 0.2391 -0.1908 -3697.1553 3956.1016)" gradientUnits="userSpaceOnUse">
						<stop  offset="1.000000e-02" style="stop-color:#F7F999"/>
						<stop  offset="0.54" style="stop-color:#F3553E"/>
						<stop  offset="1" style="stop-color:#BD7B0D"/>
					</radialGradient>
					<path class="st10" d="M-1178.2-222.4c0,0,0.6-2.8,4.3-4.7c1.4-0.8,1.2-0.9,2.5-2.2c0.9-1,2-1.9,3.1-2.6c-0.6,0.5-1.2,1-1.7,1.6
						c-0.7,1-1.5,1.9-2.4,2.6c-0.8,0.7-0.2,1,1-0.1c1.2-1.1,2-2.6,3.9-3.9c1.9-1.2,2.4-0.8,4-2.2c-0.5,0.5-1,1-1.6,1.4
						c-0.8,0.4-1-0.7-3,1.9c-0.9,1.2-1.9,2.2-2.9,3.1c-0.8,0.7-2.2,1.6-1.6,1.8c0.6,0.3,0.7,0.3,1.6-1.1c0.9-1.4,1.6-1.7,3-2.6
						c1-0.5,1.9-1.2,2.7-2c1.1-1.1,1.3-1.7,2.5-2.6c1.3-0.9,1.4-0.4,2.2-1.3c-0.5,0.7-1.2,1.2-1.9,1.6c-0.6,0.2-2.3,1.2-2.2,2.1
						c0,0.5-0.5,1.2-1.6,1.9c-1.1,0.7-1.7,0.7-2.5,2.1c-0.8,1.4-1.6,1.7-2.3,2.3c-0.7,0.6-0.8,1,0,0.4s0.3-0.5,2.2-2.1
						c1.9-1.6,1.7-1.6,2.4-1.5c1.8,0,2.6-2.3,3.7-3.2c-0.4,0.5-0.8,1-1.2,1.5c-0.4,0.8-1.1,1.5-1.9,1.9c-1,0.6-1.9,0.9-2.7,1.8
						c-0.8,1-0.8,1.4-2.2,2.3c-1.4,0.9-2.1,1.8-1.5,1.3c1.1-0.6,2-1.3,2.9-2.2c1.3-1.3,1.8-1.8,2.6-2.2c-0.5,0.2-0.9,0.5-1.1,0.9
						c-0.7,1-1.5,1.9-2.4,2.5c-1.5,1.1-2.1,1.3-3.1,2.4c-1,1.1-0.4,1.2-2.2,1.5C-1177.9-219.4-1178.2-222.4-1178.2-222.4z"/>
				</g>
				<g>
					
						<radialGradient id="SVGID_8_" cx="18071.6387" cy="17668.4531" r="51.91" gradientTransform="matrix(-3.985638e-02 -5.920546e-02 0.1879 -0.1579 -3842.1685 3677.9861)" gradientUnits="userSpaceOnUse">
						<stop  offset="1.000000e-02" style="stop-color:#F7F999"/>
						<stop  offset="0.54" style="stop-color:#F3553E"/>
						<stop  offset="1" style="stop-color:#BD7B0D"/>
					</radialGradient>
					<path class="st11" d="M-1176.4-220.1c0,0,2,0.1,4.2-2.5c0.9-1.1,0.9-0.9,2.1-1.6c0.9-0.5,1.8-1.2,2.6-2c-0.5,0.4-1,0.8-1.5,1.1
						c-0.8,0.4-1.6,0.8-2.3,1.4c-0.6,0.6-0.7-0.1,0.4-0.8c1-0.7,2.3-1.1,3.6-2.4s1.2-1.9,2.5-2.9c-0.5,0.3-0.9,0.6-1.3,1
						c-0.5,0.6-0.9,1.6-2,2.1c-1,0.4-2,1-2.8,1.8c-0.6,0.6-1.6,1.5-1.6,0.9c0-0.6,0-0.7,1.2-1.1c1.2-0.5,1.5-0.9,2.5-2
						c0.6-0.7,1.3-1.4,2.1-1.8c1-0.7,1.4-0.7,2.4-1.5c0.9-0.9,1.1-1.5,2-2c0,0-1.6,0.9-2.1,1.6c-0.6,0.6-1.2,1.1-2,1.4
						c-0.7,0.3-0.9,0.1-1.7,0.9s-0.9,1.3-2,1.6c-0.8,0.3-1.5,0.8-2.1,1.4c-0.6,0.5-0.9,0.5-0.3-0.1c0.6-0.6,0.4-0.1,1.9-1.4
						c1.6-1.2,1.4-1.6,2.4-2.5c1-0.9,1.5-0.8,2.4-1.6c-0.4,0.3-0.9,0.5-1.3,0.7c-0.7,0.2-1.3,0.6-1.7,1.2c-0.7,0.7-1.1,1.4-1.9,1.9
						c-0.8,0.4-1.1,0.4-2.1,1.3c-1,0.9-1.7,1.4-1.3,0.9c0.7-0.8,1.4-1.4,2.2-2c0.8-0.4,1.5-1,2.1-1.7c-0.2,0.3-0.5,0.6-0.9,0.7
						c-0.8,0.3-1.6,0.8-2.3,1.5c-0.8,0.8-1.6,1.5-2.4,2.1c-1,0.7-0.9,0.1-1.6,1.5C-1178.3-221-1176.4-220.1-1176.4-220.1z"/>
				</g>
				<g>
					
						<radialGradient id="SVGID_9_" cx="-14812.1309" cy="14339.8418" r="91.65" gradientTransform="matrix(6.263145e-02 9.867577e-02 0.2391 -0.1908 -3675.5374 3993.3923)" gradientUnits="userSpaceOnUse">
						<stop  offset="0" style="stop-color:#F8CB66"/>
						<stop  offset="1" style="stop-color:#FB0F0C"/>
					</radialGradient>
					<path class="st12" d="M-1171.1-227.5c-0.3,0.1-0.6,0.3-0.8,0.5c-0.1,0.1-0.3,0.3-0.2,0.4c0,0.1,0.3-0.1,0.4-0.1
						c-0.1,0.1-0.2,0.2-0.3,0.3c-0.2,0.2-0.4,0.3-0.6,0.4c0,0-0.1,0.3-0.1,0.3c0.5-0.3,1-0.7,1.5-1.1c0.3-0.2,0.5-0.4,0.9-0.6
						c0.2-0.1,0.4-0.2,0.7-0.3c-0.2,0.1-0.3,0.3-0.4,0.4c-0.1,0.1-0.2,0.2-0.3,0.3c-0.1,0.1-0.2,0.1-0.3,0.2
						c-0.4,0.3-0.1,0.3-0.2,0.5s-0.2,0.3-0.3,0.4c0.6-0.2,1.2-1.2,1.5-1.6c0.3-0.4,0.7-0.7,1.1-0.8c0.3-0.1,0.6-0.4,0.9-0.5
						c-0.2,0.1-0.4,0.3-0.6,0.5c-0.3,0.2-0.6,0.4-0.9,0.6c-0.1,0.2-0.1,0.3,0,0.3c0.1,0.1,0.6-0.2,0.9-0.4s0.6-0.6,1-0.8
						c0.2-0.2,0.5-0.3,0.7-0.4c0.4-0.1,0.8-0.2,1.1-0.5c-0.2,0.3-0.5,0.5-0.9,0.6c-0.3,0.1-0.7,0.3-0.9,0.6
						c-1.4,1.2-0.1,0.6,0.3-0.1c-0.1,0.2-0.1,0.2-0.2,0.4c-0.1,0.1-0.3,0.3-0.4,0.4c-0.3,0.1-0.5,0.3-0.8,0.5
						c-0.3,0.3-0.4,0.8,0,0.5c0.3-0.2,0.3-0.4,0.6-0.5c-0.2,0.1-0.3,0.2-0.4,0.3c-0.1,0.2,0,0.2,0.2,0.1c0.4-0.3,0.9-0.9,1.3-0.9
						c-0.3,0.2-0.6,0.5-0.8,0.8c-0.4,0.4-0.9,0.8-1.5,1c-0.3,0.1-1.2,0.1-1.3,0.7c-0.1,0.3,0.5-0.2,0.8-0.3c-0.4,0.5-1,0.9-1.6,1.1
						c-0.4,0.1-0.8,0.4-1.1,0.8c-0.2,0.3-0.1,0.4,0.3,0.1c0.2-0.2,0.4-0.3,0.6-0.4c0.2-0.1,0.4-0.2,0.5-0.3
						c-0.1,0.3-0.3,0.5-0.5,0.6c-0.1,0.1-0.2,0.2-0.4,0.2c-0.3,0.2-0.6,0.5-0.9,0.7c-0.1,0.1-0.3,0.1-0.4,0.2
						c-0.2,0.2-0.3,0.6-0.2,0.7c0.2,0.1,0.7-0.5,0.9-0.7c0.2-0.2,0.4-0.3,0.6-0.5c0.3-0.3,0.5-0.5,0.8-0.7c0.3-0.2,0.4,0,0.7-0.4
						c0.2-0.3,0.4-0.5,0.7-0.7c0.4-0.2,0.9-0.2,1.3-0.2c-0.4,0.1-0.8,0.3-1.1,0.6c0.1,0.3,0.4,0.3,1-0.1c0.3-0.2,0.7-0.4,1-0.6
						c0.1,0,0.3,0,0.4,0.1c-0.6,0.2-1.2,0.6-1.7,1.1c-0.7,0.7-0.9,1.2-1.8,1.5c-0.6,0.2-0.9-0.1-1.7,0.7c-0.2,0.3-0.5,0.5-0.8,0.7
						c-0.3,0.1-0.6,0.2-0.8,0.4c-0.3,0.2-0.2,0.4,0,0.3c0.2-0.1,0.4-0.1,0.5-0.2c0.2,0,0.1,0.2,0.2,0.3c-0.2,0.1-0.2-0.1-0.5,0.1
						c-0.2,0.2-0.4,0.5-0.7,0.7c-0.3,0.2-0.6,0.3-0.9,0.2c-0.2,0.1-0.4,0.1-0.6,0.2c-0.2,0.1-0.4,0.1-0.6-0.1
						c-0.1-0.1-0.3-0.2-0.5-0.2c-0.3,0-0.5,0-0.6-0.1c-0.3-0.4-0.2-1.1-0.6-1.4c-0.1-0.1-0.3-0.1-0.3-0.3c0-0.2-0.1-0.4-0.2-0.7
						c0-0.1,0.1-0.2,0-0.4c0-0.2,0-0.2,0.1-0.4c0.1-0.2,0-0.2,0.2-0.3c0.2-0.1,0.6-1,0.7-1.2c0.1-0.1,0.4-0.5,0.6-0.7
						s0.6-0.7,0.8-0.8c0.2-0.2,0.5-0.4,0.8-0.6c0.7-0.4-0.7,1.2-0.3,1.1c0.3-0.1,0.5-0.3,0.6-0.5c0.1-0.2-0.1-0.2-0.1-0.3
						c0-0.4,0.7-1.1,1.2-1.2c0.1,0,0.3-0.1,0.4-0.2c0.2-0.2,0.5-0.3,0.7-0.4c-0.2,0.1-0.4,0.3-0.6,0.5c-0.1,0.2-0.4,0.4-0.6,0.4
						c-0.7,0.2-0.6,0.9,0,0.7c0.6-0.2,1.3-1.4,1.6-1.9c0.6-0.7,1.4-0.9,2.1-1.5c-0.3,0.3-0.6,0.5-0.9,0.7c-0.3,0.1-0.6,0.3-0.8,0.6
						c-0.2,0.2-0.8,0.8-0.5,0.8c0.3-0.1,0.6-0.5,0.8-0.7c0.1,0,0.1,0.1,0.2,0c0.2-0.1,0.4-0.3,0.6-0.5c0.2-0.2,0.3-0.3,0.5-0.4
						c0.3-0.1,0.6-0.2,0.8-0.1c0.3,0,0.6-0.2,0.9-0.4c-0.2,0.2-0.4,0.3-0.7,0.5c-0.3,0.1-0.4,0.1-0.7,0.2c-0.5,0.2-0.6,0.7-1,0.9
						c-0.1,0.1-0.2,0-0.3,0.1c-0.1,0.1-0.2,0.1-0.3,0.2c-0.3,0.1-0.6,0.3-0.4,0.4c0.2,0,0.4,0,0.7-0.1c0.3-0.1,0.6-0.4,0.9-0.5
						c-0.1,0.2-0.3,0.3-0.4,0.4c-0.2,0.1-0.4,0.2-0.5,0.3L-1171.1-227.5z"/>
				</g>
				<g>
					
						<radialGradient id="SVGID_10_" cx="-17282.6621" cy="14335.4756" r="105.75" gradientTransform="matrix(5.124392e-02 7.894061e-02 0.2391 -0.1908 -3697.1553 3956.1016)" gradientUnits="userSpaceOnUse">
						<stop  offset="0" style="stop-color:#F7F619"/>
						<stop  offset="0.52" style="stop-color:#F6A156"/>
						<stop  offset="1" style="stop-color:#F67C11"/>
					</radialGradient>
					<path class="st13" d="M-1178.3-222.3c0,0,0.4-0.9,0.9-1.7c0.7-1.1,1.6-1.9,2.7-2.5c0.8-0.3,2-0.7,2.3-1.1
						c0.6-0.9,1.4-1.7,2.2-2.2c-0.4,0.3-0.8,0.7-1.1,1.2c-0.2,0.4-0.4,0.8-0.7,1.2c-0.4,0.5-1.7,1.1-1.9,1.4s0.9,0.2,1.1-0.2
						c0.4-0.7,0.9-1.3,1.6-1.8c0.6-0.3,0.9,0,1.1-0.4c-0.1,0.2-0.2,0.3-0.4,0.4c-0.3,0.1-0.8,0.2-1,0.5c-0.2,0.3,0.1,0.5,0.3,0.2
						c0.2-0.3,0.3-0.4,0.5-0.5c0,0-0.2,0.2-0.2,0.3c-0.1,0.3-0.3,0.6-0.6,0.7c-0.4,0.1-0.3-0.2-0.6,0.1s-0.3,0.5-0.8,1
						c-0.5,0.4-0.9,0.1-1.4,0.9s-0.3,1,0.2,0.5c0.4-0.5,0.9-1,1.4-1.3c0.6-0.2,1.2-0.6,1.7-1.2c-0.2,0.3-0.5,0.6-0.8,0.9
						c-0.5,0.4-0.9,0.4-1.1,0.7c-0.2,0.4,0,0.3-0.4,0.8c-0.3,0.4-1,0.8-0.7,0.8c0.5-0.1,0.9-0.4,1.1-0.8c0.3-0.6,0.8-1.2,1.1-1.2
						c0.6,0.1,1.1-0.1,1.5-0.7c0.4-0.5,0.9-1,1.4-1.4l0.1,0c0.5-0.3-0.3,0.2-0.6,0.6c-0.3,0.6-0.7,1.1-1.2,1.5
						c-0.5,0.4-1.1,0.3-1.4,0.7c-0.4,0.4-0.2,0.5-0.8,1.1c-0.7,0.6-1.5,0.6-2,1.2c-0.5,0.7-0.4,1.4,0.4,0.8c0.7-0.7,1.4-1.7,2.2-2.3
						c0.8-0.6,1-0.4,1.6-0.9s0.4-0.6,0.8-0.9c0.2,0,0.3,0,0.5,0c-0.2,0.1-0.4,0.2-0.6,0.4c-0.2,0.3-0.3,0.5-0.5,0.7s-0.5,0.2-1,0.5
						c-1.7,1.1-0.8,1.3-0.4,1c0.4-0.3,0.5-0.7,0.8-0.8c0.4-0.1,0.5,0,0.7-0.2c0,0-0.1,0.2-0.4,0.3s-0.5,0.1-0.7,0.5
						c-0.2,0.4-0.4,0.6-1.2,0.8c-0.8,0.2-0.8,0-1.2,0.7c-0.4,0.7-1.1,1.4-0.4,0.9c0.7-0.6,1.1-1.2,1.6-1c0.4,0.1,0.5,0.8,1,0
						s1.7-2.4,2.3-2.7c0.6-0.3,0.5,0.2,1.2-0.5s0.5-0.3,0.8-0.4c0,0-0.1-0.1-0.4,0.2c-0.3,0.3-0.6,0.7-0.2,0.5
						c0.3-0.3,0.7-0.6,1-0.8c-0.2,0.1-0.3,0.2-0.4,0.4c-0.2,0.4-0.6,0.6-1,0.8c-0.4,0.1-0.6-0.3-1.1,0.3c-0.5,0.4-0.9,1-1.2,1.5
						c-0.4,0.7-1.2,1.7-1.9,1.8c-0.7,0.1-1-0.1-1.5,0.5c-0.5,0.6,0.2,0.7,0.5,0.3c0.3-0.3,0.7-0.5,1.1-0.5c-0.2,0-0.5,0.1-0.6,0.3
						c-0.4,0.5-0.8,0.8-1.3,1c-0.6,0.1-1.5,0.6-1.7,0.2c-0.2-0.2,0-0.2-0.8-0.3c-0.7-0.1-0.4-0.8-0.7-1.2
						C-1178.1-221.2-1178.3-221.8-1178.3-222.3z"/>
				</g>
				<g>
					
						<radialGradient id="SVGID_11_" cx="-17279.5117" cy="14334.5557" r="15.79" gradientTransform="matrix(5.124392e-02 7.894061e-02 0.2391 -0.1908 -3697.1553 3956.1016)" gradientUnits="userSpaceOnUse">
						<stop  offset="0" style="stop-color:#F7F9E3"/>
						<stop  offset="0.13" style="stop-color:#F7F9CF"/>
						<stop  offset="0.49" style="stop-color:#F7F999"/>
						<stop  offset="1" style="stop-color:#F5EA7A"/>
					</radialGradient>
					<path class="st14" d="M-1178.1-223c0.3-0.5,0.6-1,1-1.5c0.5-0.6,1.1-1,1.8-1.3c0.7-0.3,1.3-0.8,1.7-1.5c-0.1,0.4-0.2,0.7-0.4,1
						c-0.3,0.4-0.6,0.8-1,1.1c-1.9,1.6,0.4,0.4,0.6,0.1c0.3-0.7,0.8-1.3,1.5-1.6c-0.3,0.2-0.5,0.4-0.6,0.7c-0.2,0.5-0.4,1-0.8,1.3
						c-0.5,0.3-1,0.7-1.4,1.1c-0.6,0.6-0.6,1-0.1,0.8c0.5-0.3,0.9-0.7,1.3-1.1c0.4-0.4,1.8-0.8,2.5-1.5c-0.4,0.4-0.7,0.7-1.1,1
						c-0.6,0.3-1.1,0.8-1.6,1.3c-0.3,0.4-0.4,1,0.3,0.4c0.6-0.4,1.4-1.5,2-1.9c0.6-0.4,0.9-0.3,1.3-0.7c-0.2,0.2-0.4,0.4-0.7,0.5
						c-0.5,0.2-0.9,0.6-1.3,1c-0.2,0.4,0.8,0,1.1-0.4c0.4-0.5,1-0.9,1.6-1.2c-0.4,0.2-0.7,0.4-1,0.8c-0.2,0.4-0.3,0.6-1,1.2
						c-0.8,0.6-1,0.1-1.5,0.6s-1.5,1.4-1.1,1.5c0.3,0,0.6,0,1.3-0.7c0.4-0.5,1-0.7,1.6-0.6c0.4,0,1.1-1.1,1.8-1.8
						c0.3-0.3,0.7-0.5,1.1-0.7c-0.4,0.2-0.8,0.5-1.2,0.8c-0.3,0.5-0.6,0.9-1,1.3c-0.4,0.4-0.8,0.5-1.3,0.9c-0.4,0.4-0.6,0.8-0.2,0.7
						c0.3-0.1,0.5-0.3,0.7-0.6c0.3-0.4,0.6-0.6,1-0.8c-0.2,0.2-0.4,0.4-0.6,0.6c-0.8,0.8-0.3,0.7,0.1,0.5c0.4-0.2,0.9-1,1.3-0.9
						c-0.2,0.1-0.3,0.2-0.5,0.3c-0.2,0.3-0.4,0.6-0.7,0.8c-0.3,0.3-0.6,0.4-0.9,0.5c-0.3,0-0.8-0.3-1.3,0.2s-0.2,0.7,0.1,0.4
						c0.2-0.2,0.4-0.3,0.7-0.3c-0.1,0-0.3,0.1-0.4,0.2c-0.2,0.2-0.3,0.5-0.8,0.7c-0.6,0.3-1.2,0.4-1.8,0.2c-0.6-0.2-1.1-0.3-1.2-0.6
						c0-0.3-0.1-0.6-0.3-0.9C-1178.2-221.5-1178.4-222.3-1178.1-223z"/>
				</g>
			</g>
			
				<image style="overflow:visible;" width="30" height="29" xlink:href="6A106FF6.png"  transform="matrix(1 0 0 1 -1184.8898 -238.5)">
			</image>
		</g>
		
			<image style="overflow:visible;" width="59" height="8" xlink:href="6A106FF7.png"  transform="matrix(1 0 0 1 -1210.8898 -159.5)">
		</image>
		<path class="st15" d="M-1139.6-199c0-8.2-2.1-16-5.8-22.6c-0.3-0.4-0.5-0.9-0.8-1.3c-15,1.3-29.2,10.6-36.5,25.5
			c-7.2,14.5-6.1,30.9,1.4,43.4C-1158.1-154.7-1139.6-174.5-1139.6-199z"/>
		
			<image style="overflow:visible;opacity:0.2;" width="76" height="75" xlink:href="6A107007.png"  transform="matrix(1 0 0 1 12.1102 10.5)">
		</image>
		<g>
			<g id="Layer_9_1_">
				<g>
					
						<radialGradient id="SVGID_12_" cx="-7011.5889" cy="17290.6973" r="51.9" gradientTransform="matrix(5.944989e-02 8.696303e-02 0.2774 -0.2102 -4297.2085 4353.1563)" gradientUnits="userSpaceOnUse">
						<stop  offset="1.000000e-02" style="stop-color:#F7F999"/>
						<stop  offset="0.54" style="stop-color:#F3553E"/>
						<stop  offset="1" style="stop-color:#BD7B0D"/>
					</radialGradient>
					<path class="st16" d="M55.2,22.1c0,0,0.7-3.1,5-5.2c1.7-0.9,1.4-0.9,2.9-2.5c1.1-1.1,2.3-2.1,3.6-2.9c-0.7,0.5-1.4,1.1-2,1.8
						c-0.8,1.1-1.7,2.1-2.7,2.9c-1,0.7-0.2,1.1,1.1-0.2c1.3-1.2,2.4-2.9,4.5-4.2c2.1-1.3,2.8-0.9,4.7-2.4c-0.6,0.6-1.2,1.1-1.9,1.5
						c-0.9,0.5-1.1-0.7-3.4,2.1c-1,1.3-2.2,2.5-3.4,3.5c-1,0.7-2.6,1.7-1.9,2c0.7,0.3,0.8,0.3,1.9-1.2c1.1-1.6,1.8-1.9,3.5-2.8
						c1.1-0.6,2.2-1.3,3.1-2.3c1.3-1.2,1.5-1.8,2.9-2.8c1.5-1,1.7-0.4,2.6-1.4c-0.6,0.8-1.4,1.4-2.2,1.8c-0.7,0.2-2.7,1.3-2.6,2.3
						c0.1,0.5-0.6,1.3-1.8,2.1c-1.2,0.8-1.9,0.7-2.9,2.3c-0.9,1.6-1.9,1.9-2.7,2.5c-0.8,0.6-1,1.1,0,0.5c1-0.7,0.3-0.5,2.5-2.3
						c2.2-1.8,1.9-1.7,2.8-1.7c2.1,0,3-2.5,4.3-3.5c-0.5,0.5-1,1.1-1.4,1.7c-0.5,0.9-1.3,1.6-2.2,2.1c-1.2,0.7-2.2,1-3.1,2
						c-0.9,1.1-1,1.5-2.6,2.6c-1.6,1-2.4,2-1.7,1.5c1.2-0.6,2.4-1.4,3.4-2.4c1.5-1.4,2.1-2,3.1-2.4c-0.5,0.2-1,0.5-1.3,1
						c-0.8,1.1-1.7,2.1-2.8,2.8c-1.7,1.2-2.4,1.4-3.6,2.6c-1.2,1.2-0.5,1.4-2.5,1.6C55.6,25.3,55.2,22.1,55.2,22.1z"/>
				</g>
				<g>
					
						<radialGradient id="SVGID_13_" cx="4233.3281" cy="21293.5957" r="51.91" gradientTransform="matrix(-4.623880e-02 -6.522227e-02 0.218 -0.1739 -4465.4434 4046.7771)" gradientUnits="userSpaceOnUse">
						<stop  offset="1.000000e-02" style="stop-color:#F7F999"/>
						<stop  offset="0.54" style="stop-color:#F3553E"/>
						<stop  offset="1" style="stop-color:#BD7B0D"/>
					</radialGradient>
					<path class="st17" d="M57.3,24.6c0,0,2.3,0.1,4.9-2.8c1-1.2,1-0.9,2.5-1.8c1.1-0.6,2.1-1.3,3-2.2c-0.6,0.5-1.2,0.9-1.8,1.2
						c-1,0.4-1.9,0.9-2.7,1.5c-0.7,0.6-0.8-0.1,0.4-0.9c1.2-0.8,2.6-1.2,4.1-2.7c1.5-1.4,1.4-2.1,2.9-3.2c-0.6,0.3-1.1,0.7-1.5,1.2
						c-0.6,0.6-1,1.7-2.4,2.3c-1.2,0.5-2.3,1.1-3.3,2c-0.7,0.6-1.9,1.7-1.9,1s0-0.7,1.4-1.2s1.8-1,2.9-2.2c0.7-0.8,1.5-1.5,2.4-2
						c1.2-0.8,1.7-0.7,2.7-1.7c1.1-1,1.3-1.7,2.3-2.2c0,0-1.9,1-2.4,1.8c-0.7,0.7-1.4,1.2-2.3,1.6c-0.8,0.3-1,0.2-1.9,1
						s-1,1.4-2.4,1.8c-0.9,0.3-1.8,0.8-2.5,1.6c-0.7,0.5-1,0.5-0.3-0.1c0.7-0.7,0.4-0.1,2.3-1.5c1.8-1.4,1.6-1.7,2.8-2.8
						c1.2-1,1.7-0.9,2.7-1.7c-0.5,0.3-1,0.5-1.5,0.7c-0.8,0.2-1.5,0.6-2,1.3c-0.8,0.8-1.3,1.6-2.2,2c-1,0.5-1.3,0.4-2.5,1.4
						c-1.1,1-2,1.5-1.5,1c0.8-0.8,1.6-1.6,2.6-2.2c0.9-0.5,1.8-1.1,2.5-1.9c-0.3,0.4-0.6,0.7-1,0.8c-1,0.4-1.9,0.9-2.6,1.6
						c-0.9,0.8-1.8,1.6-2.8,2.3c-1.1,0.7-1.1,0.2-1.8,1.7C55.1,23.6,57.3,24.6,57.3,24.6z"/>
				</g>
				<g>
					
						<radialGradient id="SVGID_14_" cx="-6534.811" cy="17326.6836" r="91.65" gradientTransform="matrix(7.266098e-02 0.1087 0.2774 -0.2102 -4272.1284 4394.2368)" gradientUnits="userSpaceOnUse">
						<stop  offset="0" style="stop-color:#F8CB66"/>
						<stop  offset="1" style="stop-color:#FB0F0C"/>
					</radialGradient>
					<path class="st18" d="M63.5,16.5c-0.4,0.1-0.7,0.3-1,0.6c-0.1,0.1-0.3,0.4-0.2,0.4c0.1,0.1,0.3-0.1,0.5-0.2
						c-0.1,0.1-0.3,0.2-0.4,0.4c-0.2,0.2-0.4,0.3-0.7,0.5c0,0-0.2,0.4-0.1,0.4c0.6-0.3,1.2-0.7,1.7-1.2c0.3-0.3,0.6-0.5,1-0.6
						c0.3-0.1,0.5-0.2,0.8-0.3c-0.2,0.1-0.4,0.3-0.5,0.5c-0.1,0.1-0.3,0.2-0.4,0.3c-0.1,0.1-0.3,0.1-0.4,0.2
						c-0.4,0.3-0.1,0.4-0.2,0.6c-0.1,0.2-0.2,0.3-0.3,0.4c0.7-0.2,1.4-1.3,1.8-1.8c0.3-0.4,0.8-0.8,1.3-0.9c0.4-0.1,0.7-0.4,1-0.6
						c-0.2,0.1-0.5,0.4-0.7,0.5c-0.4,0.2-0.7,0.4-1,0.6c-0.2,0.2-0.2,0.3-0.1,0.4c0.1,0.1,0.7-0.2,1-0.5c0.4-0.3,0.7-0.6,1.1-0.9
						c0.3-0.2,0.6-0.4,0.9-0.5c0.5-0.1,0.9-0.3,1.3-0.6c-0.3,0.3-0.6,0.5-1,0.6c-0.4,0.2-0.8,0.4-1.1,0.7c-1.7,1.3-0.1,0.7,0.3-0.1
						c-0.1,0.2-0.1,0.2-0.3,0.4c-0.2,0.1-0.3,0.3-0.5,0.4c-0.3,0.2-0.6,0.3-0.9,0.5c-0.3,0.3-0.5,0.9,0,0.6c0.3-0.2,0.3-0.5,0.7-0.6
						c-0.2,0.1-0.3,0.2-0.5,0.3c-0.2,0.2,0,0.2,0.2,0.1c0.5-0.3,1.1-1,1.5-1c-0.4,0.2-0.7,0.5-1,0.8c-0.5,0.5-1.1,0.8-1.7,1.1
						c-0.4,0.1-1.4,0.1-1.5,0.8c-0.1,0.3,0.6-0.2,0.9-0.4c-0.5,0.6-1.1,1-1.8,1.2c-0.5,0.2-0.9,0.5-1.3,0.9
						c-0.2,0.3-0.1,0.5,0.3,0.1c0.2-0.2,0.4-0.4,0.7-0.5c0.2-0.1,0.4-0.2,0.6-0.4c-0.1,0.3-0.3,0.5-0.5,0.7
						c-0.1,0.1-0.3,0.2-0.4,0.3c-0.4,0.2-0.7,0.5-1,0.7c-0.1,0.1-0.3,0.1-0.5,0.2c-0.3,0.2-0.4,0.7-0.3,0.7c0.3,0.1,0.8-0.5,1-0.8
						s0.5-0.4,0.7-0.6c0.3-0.3,0.6-0.5,1-0.8c0.4-0.2,0.5,0,0.9-0.4c0.2-0.3,0.5-0.6,0.8-0.7c0.5-0.2,1-0.2,1.5-0.2
						c-0.5,0.1-0.9,0.3-1.3,0.7c0.2,0.3,0.4,0.3,1.2-0.1c0.4-0.3,0.8-0.5,1.2-0.7c0.2,0,0.3,0,0.5,0.1c-0.7,0.2-1.4,0.6-2,1.2
						c-0.9,0.7-1.1,1.3-2.1,1.6c-0.7,0.2-1-0.1-1.9,0.7c-0.3,0.3-0.6,0.6-0.9,0.8c-0.3,0.1-0.6,0.3-1,0.4c-0.3,0.3-0.2,0.4,0,0.4
						c0.2-0.1,0.4-0.2,0.6-0.2c0.2-0.1,0.1,0.2,0.2,0.3c-0.2,0.1-0.3-0.1-0.5,0.1c-0.3,0.2-0.5,0.5-0.8,0.7c-0.3,0.2-0.7,0.3-1,0.3
						c-0.2,0.1-0.5,0.1-0.7,0.3c-0.2,0.1-0.5,0.1-0.7-0.1c-0.2-0.2-0.4-0.3-0.6-0.3c-0.3,0-0.6,0-0.7-0.2c-0.3-0.5-0.2-1.2-0.7-1.6
						c-0.1-0.1-0.3-0.2-0.3-0.3c0-0.2-0.1-0.5-0.2-0.7c0-0.1,0.1-0.2,0.1-0.4c0-0.2,0-0.2,0.2-0.4c0.2-0.2,0-0.2,0.2-0.3
						c0.2-0.1,0.7-1.1,0.8-1.3c0.1-0.1,0.5-0.5,0.7-0.7s0.7-0.7,0.9-0.9c0.3-0.2,0.6-0.4,0.9-0.6c0.8-0.4-0.8,1.3-0.4,1.2
						c0.3-0.1,0.5-0.3,0.7-0.6c0.1-0.2-0.1-0.2-0.1-0.4c0-0.4,0.9-1.2,1.4-1.3c0.2,0,0.3-0.1,0.5-0.2c0.3-0.2,0.5-0.4,0.9-0.5
						c-0.3,0.1-0.5,0.3-0.7,0.6c-0.2,0.2-0.4,0.4-0.7,0.4c-0.8,0.3-0.8,1,0,0.7c0.8-0.3,1.5-1.6,1.9-2.1c0.7-0.8,1.7-1,2.4-1.6
						c-0.3,0.3-0.6,0.6-1,0.8c-0.4,0.1-0.7,0.4-1,0.6c-0.2,0.2-0.9,0.9-0.5,0.9c0.3-0.1,0.7-0.6,0.9-0.7c0.1,0,0.1,0.1,0.2,0
						c0.2-0.1,0.5-0.3,0.7-0.5c0.2-0.2,0.4-0.3,0.6-0.5c0.3-0.1,0.6-0.2,1-0.2c0.4,0,0.7-0.2,1-0.4c-0.2,0.2-0.5,0.4-0.8,0.5
						c-0.3,0.1-0.5,0.1-0.8,0.2c-0.5,0.3-0.7,0.8-1.2,1c-0.1,0.1-0.2,0-0.4,0.1c-0.1,0.1-0.3,0.2-0.4,0.2c-0.3,0.1-0.7,0.4-0.4,0.4
						c0.3,0,0.5,0,0.8-0.1c0.3-0.1,0.8-0.5,1.1-0.6c-0.1,0.2-0.3,0.3-0.5,0.5c-0.2,0.1-0.4,0.2-0.6,0.3L63.5,16.5z"/>
				</g>
				<g>
					
						<radialGradient id="SVGID_15_" cx="-7014.458" cy="17289.8574" r="105.75" gradientTransform="matrix(5.944989e-02 8.696303e-02 0.2774 -0.2102 -4297.2085 4353.1563)" gradientUnits="userSpaceOnUse">
						<stop  offset="0" style="stop-color:#F7F619"/>
						<stop  offset="0.52" style="stop-color:#F6A156"/>
						<stop  offset="1" style="stop-color:#F67C11"/>
					</radialGradient>
					<path class="st19" d="M55.1,22.1c0,0,0.5-1,1-1.8c0.8-1.2,1.9-2.1,3.1-2.8c0.9-0.3,2.3-0.8,2.6-1.2c0.7-1,1.6-1.8,2.6-2.5
						c-0.5,0.4-0.9,0.8-1.3,1.3c-0.2,0.5-0.5,0.9-0.8,1.3c-0.5,0.6-2,1.2-2.1,1.5c-0.2,0.4,1.1,0.2,1.3-0.2c0.5-0.8,1.1-1.5,1.8-1.9
						c0.7-0.3,1,0.1,1.3-0.4c-0.1,0.2-0.3,0.4-0.5,0.5C63.8,16,63.3,16,63,16.4c-0.3,0.4,0.1,0.5,0.4,0.2c0.3-0.3,0.3-0.4,0.5-0.5
						c0,0-0.2,0.2-0.3,0.4c-0.1,0.4-0.3,0.6-0.7,0.7c-0.5,0.2-0.4-0.3-0.7,0.1c-0.4,0.4-0.3,0.6-0.9,1.1c-0.6,0.5-1,0.1-1.7,1
						c-0.7,0.9-0.3,1.1,0.2,0.5c0.5-0.6,1-1.1,1.7-1.4c0.7-0.3,1.4-0.7,2-1.3c-0.3,0.4-0.6,0.7-1,1c-0.6,0.5-1.1,0.4-1.3,0.8
						c-0.3,0.4-0.1,0.4-0.4,0.8s-1.2,0.9-0.8,0.9c0.6-0.1,1-0.4,1.3-0.9c0.3-0.6,0.9-1.3,1.3-1.3c0.7,0.1,1.3-0.2,1.7-0.7
						c0.5-0.6,1-1.1,1.7-1.6l0.1-0.1c0.6-0.3-0.4,0.2-0.7,0.7c-0.4,0.6-0.8,1.2-1.4,1.6c-0.5,0.4-1.2,0.3-1.7,0.7
						c-0.4,0.4-0.2,0.6-1,1.3c-0.8,0.7-1.7,0.6-2.3,1.4s-0.4,1.6,0.4,0.9c0.8-0.7,1.6-1.9,2.5-2.6c0.9-0.7,1.2-0.4,1.9-1
						c0.7-0.6,0.5-0.6,1-1c0.2,0,0.4,0,0.5,0c-0.3,0.1-0.5,0.3-0.7,0.5c-0.3,0.3-0.3,0.6-0.6,0.8c-0.2,0.2-0.6,0.3-1.1,0.6
						c-2,1.2-0.9,1.4-0.5,1.1c0.4-0.4,0.6-0.8,1-0.9c0.4-0.1,0.5,0,0.8-0.3c0,0-0.1,0.2-0.5,0.4c-0.4,0.2-0.6,0.1-0.8,0.6
						c-0.2,0.4-0.4,0.6-1.4,0.9s-0.9,0-1.4,0.7s-1.3,1.6-0.5,1s1.3-1.3,1.8-1.1s0.6,0.9,1.2,0c0.6-0.9,1.9-2.6,2.6-2.9
						c0.7-0.3,0.6,0.3,1.4-0.5c0.8-0.8,0.6-0.4,0.9-0.5c0,0-0.2-0.1-0.5,0.2s-0.7,0.8-0.2,0.5c0.4-0.3,0.8-0.6,1.2-0.9
						c-0.2,0.1-0.4,0.3-0.5,0.4c-0.3,0.4-0.7,0.7-1.1,0.8c-0.4,0.1-0.7-0.3-1.3,0.3c-0.5,0.5-1,1.1-1.4,1.7c-0.5,0.7-1.4,1.9-2.2,2
						c-0.8,0.1-1.2-0.2-1.8,0.5c-0.6,0.7,0.2,0.7,0.6,0.3c0.4-0.3,0.8-0.5,1.3-0.6c-0.3,0-0.5,0.1-0.7,0.4c-0.4,0.5-1,0.9-1.6,1.1
						c-0.7,0.1-1.7,0.6-2,0.2c-0.2-0.2-0.1-0.2-0.9-0.3c-0.8-0.1-0.5-0.9-0.9-1.3C55.3,23.3,55.1,22.8,55.1,22.1z"/>
				</g>
				<g>
					
						<radialGradient id="SVGID_16_" cx="-7011.3076" cy="17288.9375" r="15.79" gradientTransform="matrix(5.944989e-02 8.696303e-02 0.2774 -0.2102 -4297.2085 4353.1563)" gradientUnits="userSpaceOnUse">
						<stop  offset="0" style="stop-color:#F7F9E3"/>
						<stop  offset="0.13" style="stop-color:#F7F9CF"/>
						<stop  offset="0.49" style="stop-color:#F7F999"/>
						<stop  offset="1" style="stop-color:#F5EA7A"/>
					</radialGradient>
					<path class="st20" d="M55.3,21.4c0.3-0.6,0.7-1.1,1.1-1.6c0.6-0.6,1.3-1.1,2-1.4c0.8-0.3,1.5-0.9,2-1.6
						c-0.1,0.4-0.2,0.8-0.5,1.1c-0.3,0.4-0.7,0.9-1.2,1.2c-2.2,1.8,0.5,0.4,0.7,0.1c0.4-0.8,1-1.4,1.7-1.8c-0.3,0.2-0.6,0.4-0.7,0.7
						c-0.2,0.6-0.5,1.1-0.9,1.4c-0.6,0.4-1.1,0.8-1.7,1.2c-0.7,0.6-0.7,1.1-0.1,0.9c0.6-0.3,1.1-0.7,1.5-1.2
						c0.5-0.4,2.1-0.9,2.9-1.7c-0.4,0.4-0.9,0.8-1.3,1.1c-0.7,0.4-1.3,0.8-1.9,1.4c-0.3,0.4-0.5,1.1,0.4,0.5
						c0.7-0.5,1.6-1.6,2.3-2.1c0.7-0.4,1.1-0.3,1.5-0.8c-0.2,0.3-0.5,0.5-0.8,0.6c-0.6,0.2-1.1,0.6-1.5,1.1c-0.2,0.4,0.9,0,1.3-0.4
						c0.5-0.6,1.2-1,1.9-1.3c-0.4,0.2-0.8,0.5-1.1,0.9c-0.3,0.5-0.3,0.6-1.2,1.3c-0.9,0.7-1.2,0.2-1.7,0.6s-1.7,1.6-1.3,1.6
						s0.7,0,1.5-0.8c0.5-0.5,1.2-0.7,1.9-0.6c0.5,0,1.3-1.2,2.1-1.9c0.4-0.3,0.8-0.6,1.2-0.7c-0.5,0.2-1,0.5-1.4,0.9
						c-0.3,0.5-0.7,1-1.1,1.4c-0.5,0.4-1,0.5-1.5,1s-0.7,0.9-0.2,0.7c0.3-0.1,0.6-0.3,0.8-0.6c0.3-0.4,0.7-0.7,1.2-0.8
						c-0.3,0.2-0.5,0.4-0.7,0.6c-0.9,0.9-0.3,0.8,0.1,0.5c0.4-0.3,1-1.1,1.5-1c-0.2,0.1-0.4,0.2-0.5,0.3c-0.2,0.3-0.5,0.6-0.8,0.9
						c-0.3,0.3-0.7,0.5-1.1,0.5c-0.3,0-0.9-0.3-1.5,0.2c-0.6,0.5-0.2,0.8,0.1,0.5c0.2-0.2,0.5-0.3,0.8-0.3c-0.2,0-0.3,0.1-0.4,0.2
						c-0.2,0.2-0.3,0.6-0.9,0.7c-0.7,0.3-1.4,0.4-2.1,0.3c-0.7-0.2-1.3-0.3-1.4-0.7c0-0.4-0.2-0.7-0.4-1
						C55.2,23.1,55,22.2,55.3,21.4z"/>
				</g>
			</g>
			<image style="overflow:visible;" width="35" height="31" xlink:href="6A107008.png"  transform="matrix(1 0 0 1 48.1102 4.5)">
			</image>
		</g>
		<image style="overflow:visible;" width="59" height="8" xlink:href="6A10700B.png"  transform="matrix(1 0 0 1 22.1102 87.5)">
		</image>
		<path class="st15" d="M100,47.9c0-9.1-2.5-17.6-6.7-24.9c-0.3-0.5-0.6-1-0.9-1.4C75,23,58.5,33.2,50,49.7c-8.3,16-7,34,1.7,47.8
			C78.5,96.7,100,74.8,100,47.9z"/>
	</g>
	<g id="Layer_5">
		<path class="st9" d="M-1154.1-177.9c0,0-25.6-30.1-27.7-31.9c-1-0.9-3.3-0.9-5.4-0.8c0-0.1,0-0.3,0-0.4c0-2.9,0-5.5,0-8
			c0-2.6,0-5.1,0-7.3c0-0.6,0.3-1.2,0.8-1.4l1.3-0.7c1-0.5,1.5-1.9,0.9-2.9c-0.4-0.7-1.1-1.2-1.9-1.2h-17l7.2,4.8l-0.2,21.4
			l-0.1,15.9l-3.3,2.5l-3.6,2.7h3.7h12.6c1.2,0,2.2-1,2.2-2.3c0-0.8-0.4-1.5-1.1-1.9l-0.9-0.6c-0.5-0.3-0.8-0.8-0.8-1.4
			c0-4.9,0-9.4,0-13.4c1.4,1.3,25.9,25.2,29.8,28.5c0.8,0.7,1.4,1,1.9,1.1c0.1,0,0.3,0,0.4,0c0.5-0.1,0.7-0.4,0.8-0.9
			c0.1-0.2,0.1-0.4,0.1-0.6C-1154-177.2-1154.1-177.9-1154.1-177.9z"/>
		<path class="st9" d="M83.2,71.1c0,0-29.6-33.2-32.1-35.2c-1.2-1-3.8-1-6.2-0.9c0-0.2,0-0.3,0-0.5c0-3.2,0-6.1,0-8.8
			c0-2.9,0-5.6,0-8c0-0.7,0.4-1.3,1-1.6l1.5-0.7c1.2-0.6,1.7-2,1.1-3.2c-0.4-0.8-1.3-1.3-2.2-1.3H26.5l8.3,5.3l-0.2,23.5l-0.2,17.6
			l-3.8,2.8l-4.1,3h4.4h14.6c1.4,0,2.6-1.1,2.6-2.5c0-0.9-0.5-1.7-1.2-2.1l-1-0.6c-0.5-0.3-0.9-0.9-0.9-1.5c0-5.4,0-10.3,0-14.7
			C46.4,43,74.9,69.3,79.5,73c1,0.8,1.7,1.1,2.2,1.2c0.2,0,0.3,0,0.4,0c0.5-0.1,0.8-0.5,1-1c0.1-0.2,0.1-0.4,0.1-0.6
			C83.3,71.9,83.2,71.1,83.2,71.1z"/>
	</g>
</g>
</svg>
