<?xml version="1.0" encoding="utf-8"?>
<!-- Generator: Adobe Illustrator 21.0.2, SVG Export Plug-In . SVG Version: 6.00 Build 0)  -->
<svg version="1.1" xmlns="http://www.w3.org/2000/svg" xmlns:xlink="http://www.w3.org/1999/xlink" x="0px" y="0px"
	 viewBox="0 0 46 46" style="enable-background:new 0 0 46 46;" xml:space="preserve">
<style type="text/css">
	.st0{fill:#FFFFFF;}
	.st1{display:none;}
	.st2{display:inline;fill:#CCCCCC;}
	.st3{display:none;fill:#FFEBEB;}
	.st4{fill:#6A6EAC;}
	.st5{fill:none;}
	.st6{display:none;opacity:0.1;fill:#45003A;}
	.st7{font-family:'MyriadPro-It';}
	.st8{font-size:0.5px;}
	.st9{display:inline;fill:#911728;}
	.st10{display:inline;fill:#C21F36;}
	.st11{fill:#45003A;}
	.st12{display:inline;fill:none;}
	.st13{display:inline;}
	.st14{display:inline;opacity:0.82;fill:#F5F5F5;stroke:#000000;stroke-width:0.1;stroke-miterlimit:10;}
	.st15{display:inline;fill:#111111;stroke:#000000;stroke-miterlimit:10;}
	.st16{stroke:#F5F5F5;stroke-width:0.1;stroke-miterlimit:10;}
	.st17{opacity:0.75;fill:none;stroke:#CCCCCC;stroke-miterlimit:10;}
	.st18{fill:none;stroke:#000000;stroke-width:0.25;stroke-miterlimit:10;}
	.st19{font-family:'OpenSans-Semibold';}
	.st20{font-size:2.6015px;}
	.st21{fill:#6081C4;}
	.st22{fill:#32C5F0;}
	.st23{fill:#864C2D;}
	.st24{display:inline;fill:#43BDEF;}
	.st25{display:inline;fill:#FFFFFF;}
	.st26{display:inline;fill:#FCBA28;}
	.st27{display:inline;opacity:0.1;}
	.st28{font-family:'MyriadPro-Regular';}
	.st29{font-size:0.9073px;}
	.st30{fill:none;stroke:#3B5998;stroke-width:4;stroke-miterlimit:10;}
	.st31{fill:#3B5998;}
	.st32{fill:none;stroke:#6D84B4;stroke-width:4;stroke-miterlimit:10;}
	.st33{fill:#6D84B4;}
	.st34{fill:#FCBA28;}
</style>
<symbol  id="Ello_1_" viewBox="-256 -256 512 512">
	<g>
		<path d="M256,0c0-141.4-114.6-256-256-256c-141.4,0-256,114.6-256,256S-141.4,256,0,256C141.4,256,256,141.4,256,0z"/>
	</g>
	<g>
		<path class="st0" d="M0-153.6c-70,0-131.1,47.4-148.6,115.2c-2,7.8,2.7,15.8,10.5,17.8c7.8,2,15.8-2.7,17.8-10.5
			C-106.1-86-56.6-124.3,0-124.3c56.6,0,106.1,38.4,120.2,93.3c2,7.8,10,12.6,17.8,10.5c7.8-2,12.5-10,10.5-17.8
			C131.1-106.2,70-153.6,0-153.6z"/>
	</g>
</symbol>
<g id="Background_social_logo" class="st1">
	<rect class="st2" width="46" height="46"/>
</g>
<g id="Background">
	<rect class="st3" width="46" height="46"/>
	<rect class="st4" width="46" height="46"/>
	<rect x="20.7" y="36.4" class="st5" width="6.3" height="0.6"/>
	<text transform="matrix(1.5017 0 0 1 20.6694 36.7973)" class="st6 st7 st8">Ibrandify / Freepik</text>
</g>
<g id="Portfolio:hover" class="st1">
	<path class="st9" d="M29.8,30.3l-5.3-4.5c-0.6-0.5-1.6-0.5-2.2,0l-5.3,4.5c-0.6,0.5-1.4,0.5-2.1,0.1l-1.6-1.1
		c-0.3,0.2-0.5,0.5-0.5,0.8c0,0.3,0.2,0.7,0.5,0.8l6.4,3.9c2.3,1.4,5.3,1.4,7.6,0l6-3.6c0.5-0.3,0.8-0.9,0.8-1.5V29l-2.2,1.4
		C31.2,30.9,30.4,30.8,29.8,30.3z"/>
	<path class="st10" d="M35.7,18.5c-0.9-0.7-0.9-2,0-2.7l3.9-3.1c0.9-0.7,0.8-2.1-0.1-2.8l-7.6-5c-0.6-0.4-1.5-0.4-2.1,0.1l-5.3,4.5
		c-0.6,0.5-1.6,0.5-2.2,0L16.9,5c-0.6-0.5-1.4-0.5-2.1-0.1l-7.6,5c-1,0.6-1,2-0.1,2.8l3.9,3.1c0.9,0.7,0.9,2,0,2.7l-3.9,3.1
		c-0.9,0.7-0.8,2.1,0.1,2.8l5.9,3.9l1.6,1.1c0.6,0.4,1.5,0.4,2.1-0.1l5.3-4.5c0.6-0.5,1.6-0.5,2.2,0l5.3,4.5
		c0.6,0.5,1.4,0.5,2.1,0.1L34,28l5.4-3.6c1-0.6,1-2,0.1-2.8L35.7,18.5z M15,15.7l7.5-4.7c0.6-0.3,1.3-0.3,1.8,0l7.5,4.7
		c1.1,0.7,1.1,2.3,0,2.9l-7.5,4.7c-0.6,0.3-1.3,0.3-1.8,0L15,18.6C13.9,18,13.9,16.4,15,15.7z"/>
</g>
<g id="Portfolio" class="st1">
	<path class="st11" d="M21.6,15.5l10.7,6.7l-10.7,6.7l-10.7-6.7L21.6,15.5z M32.3,34.4l-3.2,2.1l-7.5-6.3l-7.5,6.3L11,34.4v2.4
		l10.6,6.5l10.6-6.5V34.4L32.3,34.4L32.3,34.4z M32.3,22.2l7.3-6l-10.6-7l-7.4,6.3l-7.4-6.3l-10.6,7l7.3,6l-7.3,6l10.6,7l7.4-6.3
		l7.4,6.3l10.6-7L32.3,22.2z"/>
	<path class="st12" d="M31.7,17.7l-7.5-4.7c-0.6-0.3-1.3-0.3-1.8,0L15,17.7c-1.1,0.7-1.1,2.3,0,2.9l7.5,4.7c0.6,0.3,1.3,0.3,1.8,0
		l7.5-4.7C32.8,20,32.8,18.4,31.7,17.7z"/>
	<path class="st12" d="M31.7,15.7l-7.5-4.7c-0.6-0.3-1.3-0.3-1.8,0L15,15.7c-1.1,0.7-1.1,2.3,0,2.9l7.5,4.7c0.6,0.3,1.3,0.3,1.8,0
		l7.5-4.7C32.8,18,32.8,16.4,31.7,15.7z"/>
	<path class="st13" d="M29.8,30.3l-5.3-4.5c-0.6-0.5-1.6-0.5-2.2,0l-5.3,4.5c-0.6,0.5-1.4,0.5-2.1,0.1l-1.6-1.1
		c-0.3,0.2-0.5,0.5-0.5,0.8c0,0.3,0.2,0.7,0.5,0.8l6.4,3.9c2.3,1.4,5.3,1.4,7.6,0l6-3.6c0.5-0.3,0.8-0.9,0.8-1.5V29l-2.2,1.4
		C31.2,30.9,30.4,30.8,29.8,30.3z"/>
	<path class="st13" d="M35.7,18.5c-0.9-0.7-0.9-2,0-2.7l3.9-3.1c0.9-0.7,0.8-2.1-0.1-2.8l-7.6-5c-0.6-0.4-1.5-0.4-2.1,0.1l-5.3,4.5
		c-0.6,0.5-1.6,0.5-2.2,0L16.9,5c-0.6-0.5-1.4-0.5-2.1-0.1l-7.6,5c-1,0.6-1,2-0.1,2.8l3.9,3.1c0.9,0.7,0.9,2,0,2.7l-3.9,3.1
		c-0.9,0.7-0.8,2.1,0.1,2.8l5.9,3.9l1.6,1.1c0.6,0.4,1.5,0.4,2.1-0.1l5.3-4.5c0.6-0.5,1.6-0.5,2.2,0l5.3,4.5
		c0.6,0.5,1.4,0.5,2.1,0.1L34,28l5.4-3.6c1-0.6,1-2,0.1-2.8L35.7,18.5z M15,15.7l7.5-4.7c0.6-0.3,1.3-0.3,1.8,0l7.5,4.7
		c1.1,0.7,1.1,2.3,0,2.9l-7.5,4.7c-0.6,0.3-1.3,0.3-1.8,0L15,18.6C13.9,18,13.9,16.4,15,15.7z"/>
</g>
<g id="News" class="st1">
	<g id="News:hover">
		<polygon class="st14" points="26.9,13.6 26.9,17.5 31,17.5 		"/>
		<polygon class="st14" points="25.2,19.1 25.2,13 14,13 14,33 32,33 32,19.1 		"/>
		<path class="st15" d="M15.5,21.4c0,0-0.8-1.1,2.5-0.7c3.3,0.4,1.7,0.7,1.7,0.7s1.7,0,3.3-0.4c1.7-0.4,4.2,0.4,4.2,0.4
			s2.5-0.4,2.5-0.7"/>
		<path class="st15" d="M15.5,26.2c0,0-0.8-1.3,2.5-0.9s1.7,0.9,1.7,0.9s1.7,0,3.3-0.4c1.7-0.4,4.2,0.4,4.2,0.4s2.5-0.4,2.5-0.9"/>
		<path class="st15" d="M15.5,30.2c0,0-0.8-1.3,2.5-0.9s1.7,0.9,1.7,0.9s1.7,0,3.3-0.4c1.7-0.4,4.2,0.4,4.2,0.4s2.5-0.4,2.5-0.9"/>
	</g>
	<g class="st13">
		<polygon class="st16" points="26.9,13.6 26.9,17.5 31,17.5 		"/>
		<polygon class="st16" points="25.2,19.1 25.2,13 14,13 14,33 32,33 32,19.1 		"/>
		<path class="st17" d="M15.5,21.4c0,0-0.8-1.1,2.5-0.7c3.3,0.4,1.7,0.7,1.7,0.7s1.7,0,3.3-0.4c1.7-0.4,4.2,0.4,4.2,0.4
			s2.5-0.4,2.5-0.7"/>
		<path class="st17" d="M15.5,26.2c0,0-0.8-1.3,2.5-0.9s1.7,0.9,1.7,0.9s1.7,0,3.3-0.4c1.7-0.4,4.2,0.4,4.2,0.4s2.5-0.4,2.5-0.9"/>
		<path class="st17" d="M15.5,30.2c0,0-0.8-1.3,2.5-0.9s1.7,0.9,1.7,0.9s1.7,0,3.3-0.4c1.7-0.4,4.2,0.4,4.2,0.4s2.5-0.4,2.5-0.9"/>
	</g>
</g>
<g id="Layer_9">
	<g id="Head:hover">
		<path class="st18" d="M22.5,1.8"/>
		<g>
			<path d="M41.2,25.3c-0.1-1.1-0.2-2.7,0-4.6c0.3-2.5,0.9-3,0.8-4.6c-0.1-3.2-2.3-5.4-2.5-5.5c-2.1-2-4.6-1.9-5.8-1.8
				c-0.8,0-2.9,0.3-5,1.8c-1.1,0.8-2,1.5-2.5,2.8c-0.8,2.1,0.1,3.6-0.8,5.5c-0.6,1.2-1.7,1.2-1.7,1.8c0,1,2,1.2,2.1,2.3
				c0,0.8-1,1.2-0.8,1.8c0.1,0.7,1.6,0.6,1.7,0.9c0,0.3-1.6,0.4-1.7,0.9c-0.1,0.5,1.3,0.7,1.7,1.8c0.3,0.9-0.3,1.4,0,1.8
				c0.6,1.2,4.5-1.5,6.6,0C34,30.9,34.9,32,35,35"/>
			<path d="M5.7,25.3c0.1-1.1,0.2-2.7,0-4.6c-0.3-2.5-0.9-3-0.8-4.6c0.1-3.2,2.3-5.4,2.5-5.5c2.1-2,4.6-1.9,5.8-1.8
				c0.8,0,2.9,0.3,5,1.8c1.1,0.8,2,1.5,2.5,2.8c0.8,2.1-0.1,3.6,0.8,5.5C21.9,20,23,20,23,20.7c0,1-2,1.2-2.1,2.3
				c0,0.8,1,1.2,0.8,1.8c-0.1,0.7-1.6,0.6-1.7,0.9c0,0.3,1.6,0.4,1.7,0.9c0.1,0.5-1.3,0.7-1.7,1.8c-0.3,0.9,0.3,1.4,0,1.8
				c-0.6,1.2-4.5-1.5-6.6,0C12.8,30.9,12,32,11.8,35"/>
		</g>
	</g>
	<g id="Layer_14">
		<text transform="matrix(0.622 0 0 1 16.2529 7.2578)" class="st19 st20">About</text>
		<text transform="matrix(0.622 0 0 1 25.0938 8.084)" class="st19 st20">US</text>
		<g>
			<path class="st18" d="M23.6,9.3c0.6-0.1,1.2-0.3,1.7-0.5c-0.7-0.1-1.3-0.2-1.9-0.4c-0.2,0.1-0.3,0.2-0.4,0.4"/>
			<path class="st18" d="M22.4,9.3c-0.2,0.2-0.3,0.3-0.3,0.3s0.4-0.1,0.9-0.2"/>
			<path class="st18" d="M23,8.2c0.1,0.1,0.3,0.1,0.4,0.2c0.5,0.2,1.2,0.3,1.9,0.4c0.3,0,0.6,0,0.9,0c2.6,0,4.8-1.1,4.8-2.4
				S28.9,4,26.2,4C25,4,23.8,4.2,23,4.6"/>
		</g>
		<g>
			<path class="st18" d="M23.9,9.6c0,0-1.9-0.3-3.3-0.8c0.7-0.1,1.3-0.2,1.9-0.4C23.3,9,23.9,9.6,23.9,9.6z"/>
			<path class="st18" d="M19.8,4c2.6,0,4.8,1.1,4.8,2.4c0,0.7-0.6,1.3-1.5,1.8c-0.1,0.1-0.3,0.1-0.5,0.2c-0.5,0.2-1.2,0.3-1.9,0.4
				c-0.3,0-0.6,0-0.9,0c-2.6,0-4.8-1.1-4.8-2.4S17.1,4,19.8,4z"/>
		</g>
	</g>
</g>
<g id="Twitter" class="st1">
	<g class="st13">
		<circle id="XMLID_21_" class="st21" cx="-282.5" cy="-130.8" r="56"/>
		<path id="XMLID_19_" class="st0" d="M-277.5-143.9v-5.3c0-2.6,1.7-3.2,2.9-3.2c1.2,0,7.4,0,7.4,0v-11.4l-10.3,0
			c-11.4,0-14,8.5-14,13.9v6h-6.6v8v5.3h6.6c0,15,0,33.2,0,33.2h13.3c0,0,0-18.3,0-33.2h9.8l0.5-5.2l0.7-8.1H-277.5z"/>
	</g>
	<g class="st13">
		<circle id="XMLID_76_" class="st22" cx="328.5" cy="-130.9" r="56"/>
		<path class="st0" d="M360.1-125.3c0.5-2.2,0.7-4.4,0.7-6.7c0-0.8,0-1.6-0.1-2.4c-1.2-16.1-14.9-28.8-31.6-28.8
			c-1.8,0-3.6,0.2-5.4,0.5c-2.8-1.8-6.2-2.8-9.8-2.8c-10.1,0-18.4,8.1-18.4,18.1c0,3.3,0.9,6.5,2.5,9.2c-0.2,1.1-0.4,2.3-0.5,3.4
			c-0.1,0.9-0.1,1.9-0.1,2.8c0,17.2,14.2,31.2,31.6,31.2c2,0,3.9-0.2,5.8-0.5c2.6,1.4,5.5,2.1,8.7,2.1c10.1,0,18.4-8.1,18.4-18.1
			C362-120.2,361.3-122.9,360.1-125.3z M345.4-117.1c-1.5,2-3.6,3.7-6.4,4.8c-2.8,1.1-6.1,1.7-9.9,1.7c-4.5,0-8.4-0.8-11.3-2.3
			c-2.1-1.1-3.9-2.7-5.2-4.6c-1.3-1.9-2-3.8-2-5.6c0-1.1,0.4-2.1,1.3-2.9c0.9-0.8,2-1.2,3.3-1.2c1.1,0,2,0.3,2.8,1
			c0.7,0.6,1.4,1.5,1.9,2.7c0.6,1.3,1.2,2.3,1.8,3.2c0.6,0.8,1.5,1.5,2.7,2c1.2,0.5,2.7,0.8,4.6,0.8c2.6,0,4.8-0.6,6.4-1.6
			c1.6-1.1,2.3-2.3,2.3-3.9c0-1.2-0.4-2.2-1.2-3c-0.9-0.8-2-1.4-3.4-1.8c-1.4-0.4-3.4-0.9-5.8-1.4c-3.3-0.7-6.1-1.5-8.3-2.4
			c-2.3-1-4.1-2.3-5.4-3.9c-0.4-0.5-0.8-1.1-1.1-1.8c-0.6-1.3-1-2.8-1-4.5c0-2.4,0.7-4.5,2.2-6.3c1.4-1.8,3.5-3.2,6.1-4.2
			c2.6-1,5.8-1.4,9.3-1.4c2.8,0,5.3,0.3,7.4,1c2.1,0.6,3.8,1.5,5.2,2.6c1.4,1.1,2.4,2.2,3.1,3.4c0.7,1.2,1,2.4,1,3.6
			c0,1.1-0.4,2.1-1.3,3c-0.9,0.9-2,1.3-3.3,1.3c-1.2,0-2.1-0.3-2.7-0.8c-0.6-0.5-1.2-1.3-1.9-2.5c-0.8-1.5-1.7-2.6-2.8-3.5
			c-1.1-0.8-2.8-1.2-5.3-1.2c-2.3,0-4.1,0.4-5.5,1.3c-1.3,0.9-2,1.8-2,3c0,0.7,0.2,1.3,0.6,1.8c0.4,0.5,1.1,1,1.9,1.4
			c0.8,0.4,1.7,0.7,2.5,1c0.2,0,0.3,0.1,0.5,0.1c0.9,0.2,2.2,0.5,3.8,0.9c2.6,0.5,4.9,1.1,7,1.8c2.1,0.7,3.9,1.5,5.4,2.4
			c1.5,1,2.7,2.2,3.6,3.7c0.9,1.5,1.3,3.3,1.3,5.5C347.6-121.5,346.9-119.2,345.4-117.1z"/>
	</g>
	<g class="st13">
		<circle id="XMLID_115_" class="st23" cx="-282.5" cy="22.3" r="56"/>
		<path class="st0" d="M-262.1-10.9h-40.7c-7.1,0-12.8,5.8-12.8,12.8v13.5v5v22.2c0,7.1,5.8,12.8,12.8,12.8h40.7
			c7.1,0,12.8-5.8,12.8-12.8V20.5v-5V1.9C-249.3-5.2-255.1-10.9-262.1-10.9z M-258.4-3.3l1.5,0v1.5V8l-11.2,0l0-11.2L-258.4-3.3z
			 M-292,15.5c2.1-2.9,5.6-4.9,9.5-4.9c3.9,0,7.3,1.9,9.5,4.9c0.3,0.4,0.5,0.7,0.7,1.1c1,1.7,1.5,3.6,1.5,5.7
			c0,6.4-5.2,11.7-11.7,11.7c-6.4,0-11.7-5.2-11.7-11.7c0-2.1,0.6-4,1.5-5.7C-292.4,16.2-292.2,15.8-292,15.5z M-255.8,42.6
			c0,3.5-2.9,6.4-6.4,6.4h-40.7c-3.5,0-6.4-2.9-6.4-6.4V18.9v-3.4h9.9c-0.2,0.6-0.5,1.2-0.6,1.9c-0.4,1.6-0.7,3.2-0.7,4.9
			c0,10,8.1,18.1,18.1,18.1c10,0,18.1-8.1,18.1-18.1c0-1.7-0.2-3.4-0.7-4.9c-0.2-0.6-0.4-1.3-0.6-1.9h9.9v3.4V42.6z"/>
	</g>
	<circle id="XMLID_49_" class="st24" cx="175.7" cy="175.5" r="56"/>
	<path id="XMLID_47_" class="st25" d="M208.9,158.4c-2.4,1.1-5.1,1.8-7.8,2.1c2.8-1.7,5-4.3,6-7.4c-2.6,1.5-5.5,2.7-8.6,3.3
		c-2.5-2.6-6-4.2-9.9-4.2c-7.5,0-13.6,6-13.6,13.4c0,1.1,0.1,2.1,0.3,3.1c-11.3-0.6-21.3-5.9-28.1-14c-1.2,2-1.8,4.3-1.8,6.7
		c0,4.6,2.4,8.7,6.1,11.2c-2.2-0.1-4.3-0.7-6.2-1.7c0,0.1,0,0.1,0,0.2c0,1.7,0.3,3.4,0.9,4.9c1.7,4.2,5.4,7.4,10,8.3
		c-1.1,0.3-2.3,0.5-3.6,0.5c-0.9,0-1.7-0.1-2.6-0.2c1.7,5.3,6.8,9.2,12.7,9.3c-4.7,3.6-10.5,5.7-16.9,5.7c-1.1,0-2.2-0.1-3.3-0.2
		c6,3.8,13.2,6,20.9,6c21.3,0,34.4-14.7,37.8-30c0.6-2.7,0.9-5.4,0.9-8.1c0-0.6,0-1.2,0-1.7C204.8,163.4,207.1,161.1,208.9,158.4z"
		/>
	<circle id="XMLID_45_" class="st26" cx="23" cy="175.5" r="56"/>
	<path id="XMLID_43_" class="st25" d="M55.5,193.5L55.5,193.5C55.5,193.5,55.5,193.5,55.5,193.5C55.5,193.5,55.4,193.5,55.5,193.5
		L55.5,193.5c-0.9-0.6-1.7-0.6-2.2-0.8c0,0,0,0,0,0c-3.4-1.1-6.4-3.4-8.6-6.3c-1.2-1.6-2.3-3.3-3-5.2c0,0,0,0,0,0
		c-0.3-0.8-0.3-1.7,0.1-2.2c0,0,0,0,0,0c0.6-0.9,1.8-1.5,3-1.9c0,0,0,0,0,0c1.3-0.5,2.8-1,4-2.1c0,0,0,0,0,0
		c0.2-0.2,0.4-0.4,0.6-0.7c0-0.1,0.1-0.2,0.1-0.3c0.1-0.3,0.1-0.7-0.1-1.1c0,0,0,0,0,0c-0.4-0.7-1-1.1-1.4-1.3h0
		c-0.8-0.4-1.6-0.5-2.4-0.2c0,0,0,0,0,0c0,0,0,0,0,0c-0.8,0.3-1.5,0.5-2.1,0.6c0,0,0,0,0,0c-0.9,0.2-1.8,0.2-2.4-0.1
		c0-0.1,0-0.3,0-0.5h0c0-1.5,0.1-3,0.1-4.5c0,0,0,0,0,0c0.1-2.4,0.2-4.8-0.2-7.3c0,0,0,0,0,0c-0.8-4.2-3.4-7.7-6.8-10.1
		c-2.5-1.7-5.4-2.7-8.4-3c0,0,0,0,0,0c-1-0.1-2-0.1-3-0.1c-4,0-8.2,1.1-11.4,3.6c-2.4,1.9-4.4,4.4-5.6,7.2c0,0,0,0,0,0
		c-1.2,2.9-1,6-0.9,8.9v0c0.1,2,0.3,4,0.1,5.8c0,0.1,0,0.1,0,0.1c-0.9,0.2-1.9,0.1-2.9-0.1c0,0,0,0,0,0c-0.7-0.1-1.4-0.4-2.2-0.6
		c0,0,0,0,0,0c-0.8-0.2-1.6,0-2.1,0.5c0,0,0,0,0,0c0,0,0,0,0,0c-0.5,0.3-1.1,0.8-1.2,1.8c0,0.1,0,0.1,0,0.2c0,0,0,0,0,0
		c0.1,0.5,0.4,0.9,0.7,1.2c0.3,0.3,0.6,0.4,0.8,0.6c0,0,0,0,0,0c1.5,1,3.1,1.4,4.5,1.9c0,0,0,0,0,0c1,0.4,1.8,1.1,2,1.9
		c0.2,1.1-0.2,2.3-0.8,3.4v0c-1.6,3.1-3.9,5.8-6.8,7.8c-1.5,1-3.2,1.8-5,2.3c0,0,0,0-0.1,0c-0.4,0.1-1.2,0.2-1.8,1
		c0,0.1-0.1,0.1-0.1,0.2c-0.2,0.5,0,1.1,0.3,1.4c0.2,0.3,0.5,0.5,0.8,0.6c0,0,0,0,0,0c1.5,0.9,3.1,1.2,4.6,1.6c0,0,0,0,0,0
		c1.1,0.2,2.1,0.4,2.9,0.7c0,0.1,0.1,0.3,0.3,0.8c0.3,0.8,0.4,1.8,0.7,2.8c0.1,0.3,0.3,0.5,0.6,0.6c0.7,0.1,1.1-0.1,1.1-0.1
		c0,0,0.1,0,0.1,0c2.5-0.4,5-0.8,7.3-0.2c0,0,0,0,0,0c2.4,0.6,4.5,2.3,6.9,3.7c0,0,0,0,0,0v0c1.6,1,3.4,1.9,5.5,2v0c0,0,0,0,0,0
		c1.6,0.1,3.1,0,4.7-0.1c0,0,0,0,0,0c1.3-0.1,2.6-0.6,3.7-1.3c0,0,0,0,0,0c2.5-1.4,4.7-3.1,7.1-4.2c0,0,0,0,0,0
		c0.8-0.3,1.8-0.3,2.9-0.3c0,0,0,0,0,0c2-0.1,4,0,6,0.3c0.1,0,0.1,0,0.2,0c0.3,0,0.5-0.2,0.7-0.4c0.1-0.2,0.2-0.3,0.2-0.4
		c0.1-0.2,0.1-0.3,0-0.1c0-0.1,0.1-0.1,0.1-0.2c0.4-1.2,0.6-2.3,1.2-3c0.3-0.3,0.7-0.4,1.2-0.4c0,0,0.1,0,0.1,0
		c1.7-0.2,3.3-0.8,4.8-1.3c0,0,0,0,0,0c0.6-0.2,1.4-0.5,1.9-1.3c0,0,0,0,0,0l0,0C56.4,194.8,56.2,193.9,55.5,193.5z"/>
	<g class="st13">
		<circle id="XMLID_25_" class="st21" cx="-282.5" cy="-130.8" r="56"/>
		<path id="XMLID_24_" class="st0" d="M-277.5-143.9v-5.3c0-2.6,1.7-3.2,2.9-3.2c1.2,0,7.4,0,7.4,0v-11.4l-10.3,0
			c-11.4,0-14,8.5-14,13.9v6h-6.6v8v5.3h6.6c0,15,0,33.2,0,33.2h13.3c0,0,0-18.3,0-33.2h9.8l0.5-5.2l0.7-8.1H-277.5z"/>
	</g>
	<g class="st13">
		<circle id="XMLID_20_" class="st22" cx="328.5" cy="-130.9" r="56"/>
		<path class="st0" d="M360.1-125.3c0.5-2.2,0.7-4.4,0.7-6.7c0-0.8,0-1.6-0.1-2.4c-1.2-16.1-14.9-28.8-31.6-28.8
			c-1.8,0-3.6,0.2-5.4,0.5c-2.8-1.8-6.2-2.8-9.8-2.8c-10.1,0-18.4,8.1-18.4,18.1c0,3.3,0.9,6.5,2.5,9.2c-0.2,1.1-0.4,2.3-0.5,3.4
			c-0.1,0.9-0.1,1.9-0.1,2.8c0,17.2,14.2,31.2,31.6,31.2c2,0,3.9-0.2,5.8-0.5c2.6,1.4,5.5,2.1,8.7,2.1c10.1,0,18.4-8.1,18.4-18.1
			C362-120.2,361.3-122.9,360.1-125.3z M345.4-117.1c-1.5,2-3.6,3.7-6.4,4.8c-2.8,1.1-6.1,1.7-9.9,1.7c-4.5,0-8.4-0.8-11.3-2.3
			c-2.1-1.1-3.9-2.7-5.2-4.6c-1.3-1.9-2-3.8-2-5.6c0-1.1,0.4-2.1,1.3-2.9c0.9-0.8,2-1.2,3.3-1.2c1.1,0,2,0.3,2.8,1
			c0.7,0.6,1.4,1.5,1.9,2.7c0.6,1.3,1.2,2.3,1.8,3.2c0.6,0.8,1.5,1.5,2.7,2c1.2,0.5,2.7,0.8,4.6,0.8c2.6,0,4.8-0.6,6.4-1.6
			c1.6-1.1,2.3-2.3,2.3-3.9c0-1.2-0.4-2.2-1.2-3c-0.9-0.8-2-1.4-3.4-1.8c-1.4-0.4-3.4-0.9-5.8-1.4c-3.3-0.7-6.1-1.5-8.3-2.4
			c-2.3-1-4.1-2.3-5.4-3.9c-0.4-0.5-0.8-1.1-1.1-1.8c-0.6-1.3-1-2.8-1-4.5c0-2.4,0.7-4.5,2.2-6.3c1.4-1.8,3.5-3.2,6.1-4.2
			c2.6-1,5.8-1.4,9.3-1.4c2.8,0,5.3,0.3,7.4,1c2.1,0.6,3.8,1.5,5.2,2.6c1.4,1.1,2.4,2.2,3.1,3.4c0.7,1.2,1,2.4,1,3.6
			c0,1.1-0.4,2.1-1.3,3c-0.9,0.9-2,1.3-3.3,1.3c-1.2,0-2.1-0.3-2.7-0.8c-0.6-0.5-1.2-1.3-1.9-2.5c-0.8-1.5-1.7-2.6-2.8-3.5
			c-1.1-0.8-2.8-1.2-5.3-1.2c-2.3,0-4.1,0.4-5.5,1.3c-1.3,0.9-2,1.8-2,3c0,0.7,0.2,1.3,0.6,1.8c0.4,0.5,1.1,1,1.9,1.4
			c0.8,0.4,1.7,0.7,2.5,1c0.2,0,0.3,0.1,0.5,0.1c0.9,0.2,2.2,0.5,3.8,0.9c2.6,0.5,4.9,1.1,7,1.8c2.1,0.7,3.9,1.5,5.4,2.4
			c1.5,1,2.7,2.2,3.6,3.7c0.9,1.5,1.3,3.3,1.3,5.5C347.6-121.5,346.9-119.2,345.4-117.1z"/>
	</g>
	<g class="st13">
		<circle id="XMLID_14_" class="st23" cx="-282.5" cy="22.3" r="56"/>
		<path class="st0" d="M-262.1-10.9h-40.7c-7.1,0-12.8,5.8-12.8,12.8v13.5v5v22.2c0,7.1,5.8,12.8,12.8,12.8h40.7
			c7.1,0,12.8-5.8,12.8-12.8V20.5v-5V1.9C-249.3-5.2-255.1-10.9-262.1-10.9z M-258.4-3.3l1.5,0v1.5V8l-11.2,0l0-11.2L-258.4-3.3z
			 M-292,15.5c2.1-2.9,5.6-4.9,9.5-4.9c3.9,0,7.3,1.9,9.5,4.9c0.3,0.4,0.5,0.7,0.7,1.1c1,1.7,1.5,3.6,1.5,5.7
			c0,6.4-5.2,11.7-11.7,11.7c-6.4,0-11.7-5.2-11.7-11.7c0-2.1,0.6-4,1.5-5.7C-292.4,16.2-292.2,15.8-292,15.5z M-255.8,42.6
			c0,3.5-2.9,6.4-6.4,6.4h-40.7c-3.5,0-6.4-2.9-6.4-6.4V18.9v-3.4h9.9c-0.2,0.6-0.5,1.2-0.6,1.9c-0.4,1.6-0.7,3.2-0.7,4.9
			c0,10,8.1,18.1,18.1,18.1c10,0,18.1-8.1,18.1-18.1c0-1.7-0.2-3.4-0.7-4.9c-0.2-0.6-0.4-1.3-0.6-1.9h9.9v3.4V42.6z"/>
	</g>
	<circle id="XMLID_7_" class="st24" cx="175.7" cy="175.5" r="56"/>
	<path id="XMLID_6_" class="st25" d="M208.9,158.4c-2.4,1.1-5.1,1.8-7.8,2.1c2.8-1.7,5-4.3,6-7.4c-2.6,1.5-5.5,2.7-8.6,3.3
		c-2.5-2.6-6-4.2-9.9-4.2c-7.5,0-13.6,6-13.6,13.4c0,1.1,0.1,2.1,0.3,3.1c-11.3-0.6-21.3-5.9-28.1-14c-1.2,2-1.8,4.3-1.8,6.7
		c0,4.6,2.4,8.7,6.1,11.2c-2.2-0.1-4.3-0.7-6.2-1.7c0,0.1,0,0.1,0,0.2c0,1.7,0.3,3.4,0.9,4.9c1.7,4.2,5.4,7.4,10,8.3
		c-1.1,0.3-2.3,0.5-3.6,0.5c-0.9,0-1.7-0.1-2.6-0.2c1.7,5.3,6.8,9.2,12.7,9.3c-4.7,3.6-10.5,5.7-16.9,5.7c-1.1,0-2.2-0.1-3.3-0.2
		c6,3.8,13.2,6,20.9,6c21.3,0,34.4-14.7,37.8-30c0.6-2.7,0.9-5.4,0.9-8.1c0-0.6,0-1.2,0-1.7C204.8,163.4,207.1,161.1,208.9,158.4z"
		/>
	<circle id="XMLID_2_" class="st26" cx="23" cy="175.5" r="56"/>
	<path id="XMLID_1_" class="st25" d="M55.5,193.5L55.5,193.5C55.5,193.5,55.5,193.5,55.5,193.5C55.5,193.5,55.4,193.5,55.5,193.5
		L55.5,193.5c-0.9-0.6-1.7-0.6-2.2-0.8c0,0,0,0,0,0c-3.4-1.1-6.4-3.4-8.6-6.3c-1.2-1.6-2.3-3.3-3-5.2c0,0,0,0,0,0
		c-0.3-0.8-0.3-1.7,0.1-2.2c0,0,0,0,0,0c0.6-0.9,1.8-1.5,3-1.9c0,0,0,0,0,0c1.3-0.5,2.8-1,4-2.1c0,0,0,0,0,0
		c0.2-0.2,0.4-0.4,0.6-0.7c0-0.1,0.1-0.2,0.1-0.3c0.1-0.3,0.1-0.7-0.1-1.1c0,0,0,0,0,0c-0.4-0.7-1-1.1-1.4-1.3h0
		c-0.8-0.4-1.6-0.5-2.4-0.2c0,0,0,0,0,0c0,0,0,0,0,0c-0.8,0.3-1.5,0.5-2.1,0.6c0,0,0,0,0,0c-0.9,0.2-1.8,0.2-2.4-0.1
		c0-0.1,0-0.3,0-0.5h0c0-1.5,0.1-3,0.1-4.5c0,0,0,0,0,0c0.1-2.4,0.2-4.8-0.2-7.3c0,0,0,0,0,0c-0.8-4.2-3.4-7.7-6.8-10.1
		c-2.5-1.7-5.4-2.7-8.4-3c0,0,0,0,0,0c-1-0.1-2-0.1-3-0.1c-4,0-8.2,1.1-11.4,3.6c-2.4,1.9-4.4,4.4-5.6,7.2c0,0,0,0,0,0
		c-1.2,2.9-1,6-0.9,8.9v0c0.1,2,0.3,4,0.1,5.8c0,0.1,0,0.1,0,0.1c-0.9,0.2-1.9,0.1-2.9-0.1c0,0,0,0,0,0c-0.7-0.1-1.4-0.4-2.2-0.6
		c0,0,0,0,0,0c-0.8-0.2-1.6,0-2.1,0.5c0,0,0,0,0,0c0,0,0,0,0,0c-0.5,0.3-1.1,0.8-1.2,1.8c0,0.1,0,0.1,0,0.2c0,0,0,0,0,0
		c0.1,0.5,0.4,0.9,0.7,1.2c0.3,0.3,0.6,0.4,0.8,0.6c0,0,0,0,0,0c1.5,1,3.1,1.4,4.5,1.9c0,0,0,0,0,0c1,0.4,1.8,1.1,2,1.9
		c0.2,1.1-0.2,2.3-0.8,3.4v0c-1.6,3.1-3.9,5.8-6.8,7.8c-1.5,1-3.2,1.8-5,2.3c0,0,0,0-0.1,0c-0.4,0.1-1.2,0.2-1.8,1
		c0,0.1-0.1,0.1-0.1,0.2c-0.2,0.5,0,1.1,0.3,1.4c0.2,0.3,0.5,0.5,0.8,0.6c0,0,0,0,0,0c1.5,0.9,3.1,1.2,4.6,1.6c0,0,0,0,0,0
		c1.1,0.2,2.1,0.4,2.9,0.7c0,0.1,0.1,0.3,0.3,0.8c0.3,0.8,0.4,1.8,0.7,2.8c0.1,0.3,0.3,0.5,0.6,0.6c0.7,0.1,1.1-0.1,1.1-0.1
		c0,0,0.1,0,0.1,0c2.5-0.4,5-0.8,7.3-0.2c0,0,0,0,0,0c2.4,0.6,4.5,2.3,6.9,3.7c0,0,0,0,0,0v0c1.6,1,3.4,1.9,5.5,2v0c0,0,0,0,0,0
		c1.6,0.1,3.1,0,4.7-0.1c0,0,0,0,0,0c1.3-0.1,2.6-0.6,3.7-1.3c0,0,0,0,0,0c2.5-1.4,4.7-3.1,7.1-4.2c0,0,0,0,0,0
		c0.8-0.3,1.8-0.3,2.9-0.3c0,0,0,0,0,0c2-0.1,4,0,6,0.3c0.1,0,0.1,0,0.2,0c0.3,0,0.5-0.2,0.7-0.4c0.1-0.2,0.2-0.3,0.2-0.4
		c0.1-0.2,0.1-0.3,0-0.1c0-0.1,0.1-0.1,0.1-0.2c0.4-1.2,0.6-2.3,1.2-3c0.3-0.3,0.7-0.4,1.2-0.4c0,0,0.1,0,0.1,0
		c1.7-0.2,3.3-0.8,4.8-1.3c0,0,0,0,0,0c0.6-0.2,1.4-0.5,1.9-1.3c0,0,0,0,0,0l0,0C56.4,194.8,56.2,193.9,55.5,193.5z"/>
	<path class="st24" d="M23.5,0C10.8,0,0.6,10.3,0.6,23c0,12.7,10.2,23,22.9,23c12.6,0,22.9-10.3,22.9-23C46.3,10.3,36.1,0,23.5,0z
		 M34.2,18.8c0,0.2,0,0.5,0,0.7c0,1.1-0.1,2.2-0.4,3.3c-1.4,6.3-6.7,12.3-15.4,12.3c-3.1,0-6.1-0.9-8.5-2.5c0.4,0.1,0.9,0.1,1.3,0.1
		c2.6,0,5-0.9,6.9-2.4c-2.4,0-4.5-1.6-5.2-3.8c0.3,0.1,0.7,0.1,1,0.1c0.5,0,1-0.1,1.5-0.2c-1.9-0.4-3.4-1.7-4.1-3.4
		c-0.2-0.6-0.4-1.3-0.4-2c0,0,0,0,0-0.1c0.7,0.4,1.6,0.7,2.5,0.7c-1.5-1-2.5-2.7-2.5-4.6c0-1,0.3-2,0.8-2.8
		c2.7,3.3,6.8,5.5,11.5,5.7c-0.1-0.4-0.1-0.8-0.1-1.3c0-3,2.5-5.5,5.6-5.5c1.6,0,3,0.7,4.1,1.7c1.3-0.2,2.5-0.7,3.5-1.3
		c-0.4,1.3-1.3,2.4-2.4,3c1.1-0.1,2.2-0.4,3.2-0.9C36.3,17.1,35.3,18.1,34.2,18.8z"/>
	<rect x="16.7" y="1.4" class="st12" width="10.8" height="0.9"/>
	<text transform="matrix(1.5017 0 0 1 16.6694 2.0859)" class="st27 st28 st29">Ibrandify / Freepik</text>
</g>
<g id="SnapChat" class="st1">
	<path class="st26" d="M23,0C10.3,0,0,10.3,0,23c0,12.7,10.3,23,23,23c12.7,0,23-10.3,23-23C46,10.3,35.7,0,23,0z M36.5,31.2
		C36.5,31.2,36.5,31.2,36.5,31.2c-0.2,0.3-0.6,0.4-0.8,0.5c0,0,0,0,0,0c-0.6,0.2-1.3,0.5-2,0.6c0,0,0,0,0,0c-0.2,0-0.4,0-0.5,0.2
		c-0.2,0.3-0.3,0.7-0.5,1.2c0,0,0,0,0,0.1c0-0.1,0,0,0,0.1c0,0,0,0.1-0.1,0.2c-0.1,0.1-0.2,0.1-0.3,0.2c0,0-0.1,0-0.1,0
		C31.4,34,30.6,34,29.8,34c0,0,0,0,0,0c-0.4,0-0.9,0-1.2,0.1c0,0,0,0,0,0c-1,0.4-1.9,1.1-2.9,1.7c0,0,0,0,0,0
		c-0.5,0.3-1,0.5-1.5,0.5c0,0,0,0,0,0c-0.6,0-1.3,0.1-1.9,0c0,0,0,0,0,0v0c-0.9,0-1.6-0.4-2.2-0.8v0c0,0,0,0,0,0
		c-1-0.6-1.8-1.3-2.8-1.5c0,0,0,0,0,0c-0.9-0.2-2-0.1-3,0.1c0,0,0,0,0,0c0,0-0.2,0.1-0.5,0c-0.1,0-0.2-0.1-0.3-0.2
		c-0.1-0.4-0.2-0.8-0.3-1.2C13,32.6,13,32.5,13,32.5c-0.3-0.1-0.7-0.2-1.2-0.3c0,0,0,0,0,0c-0.6-0.2-1.3-0.3-1.9-0.7c0,0,0,0,0,0
		c-0.1-0.1-0.2-0.1-0.3-0.2c-0.1-0.1-0.2-0.4-0.1-0.6c0,0,0-0.1,0-0.1c0.2-0.3,0.6-0.4,0.7-0.4c0,0,0,0,0,0c0.7-0.2,1.4-0.5,2.1-0.9
		c1.2-0.8,2.2-1.9,2.8-3.2v0c0.2-0.5,0.4-1,0.3-1.4c-0.1-0.3-0.4-0.6-0.8-0.8c0,0,0,0,0,0c-0.6-0.2-1.2-0.4-1.8-0.8c0,0,0,0,0,0
		c-0.1-0.1-0.2-0.1-0.3-0.2c-0.1-0.1-0.3-0.3-0.3-0.5c0,0,0,0,0,0c0,0,0,0,0-0.1c0-0.4,0.3-0.6,0.5-0.7c0,0,0,0,0,0c0,0,0,0,0,0
		c0.2-0.2,0.6-0.3,0.9-0.2c0,0,0,0,0,0c0.3,0.1,0.6,0.2,0.9,0.3c0,0,0,0,0,0c0.4,0.1,0.8,0.1,1.2,0c0,0,0,0,0-0.1
		c0.1-0.8,0-1.6-0.1-2.4v0c-0.1-1.2-0.1-2.4,0.4-3.6c0,0,0,0,0,0c0.5-1.2,1.3-2.2,2.3-3c1.3-1,3-1.5,4.7-1.5c0.4,0,0.8,0,1.2,0
		c0,0,0,0,0,0c1.2,0.1,2.4,0.5,3.4,1.2c1.4,1,2.5,2.5,2.8,4.2c0,0,0,0,0,0c0.1,1,0.1,2,0.1,3c0,0,0,0,0,0c0,0.6-0.1,1.3,0,1.9h0
		c0,0.1,0,0.2,0,0.2c0.3,0.1,0.6,0.1,1,0c0,0,0,0,0,0c0.3,0,0.5-0.2,0.9-0.3c0,0,0,0,0,0c0,0,0,0,0,0c0.3-0.1,0.7-0.1,1,0.1h0
		c0.2,0.1,0.4,0.3,0.6,0.6c0,0,0,0,0,0c0.1,0.1,0.1,0.3,0,0.4c0,0,0,0.1,0,0.1c-0.1,0.1-0.2,0.2-0.2,0.3c0,0,0,0,0,0
		c-0.5,0.4-1.1,0.7-1.7,0.8c0,0,0,0,0,0c-0.5,0.2-1,0.4-1.2,0.8c0,0,0,0,0,0c-0.2,0.2-0.2,0.6,0,0.9c0,0,0,0,0,0
		c0.3,0.8,0.7,1.5,1.2,2.1c0.9,1.2,2.1,2.1,3.5,2.6c0,0,0,0,0,0c0.2,0.1,0.5,0.1,0.9,0.3v0c0,0,0,0,0,0c0,0,0,0,0,0l0,0
		C36.6,30.6,36.7,30.9,36.5,31.2L36.5,31.2z"/>
	<rect x="17.7" y="1.4" class="st12" width="10.8" height="0.9"/>
	<text transform="matrix(1.5017 0 0 1 17.6694 2.0859)" class="st27 st28 st29">Ibrandify / Freepik</text>
	<ellipse class="st26" cx="20" cy="16.5" rx="2" ry="0.5"/>
	<ellipse class="st26" cx="26" cy="16.5" rx="2" ry="0.5"/>
</g>
<g id="facebook" class="st1">
	<g id="Facebook" class="st13">
		<ellipse cx="23" cy="21.5" rx="14" ry="14.5"/>
		<g>
			<path class="st30" d="M21.2,33.7V17.5c0-3,3.1-5.5,6.8-5.5"/>
			<polygon class="st31" points="27.5,23.8 16.1,25.4 16.1,21.2 27.5,19.7 			"/>
		</g>
		<g>
			<path class="st32" d="M22.7,33.7V17.5c0-3,2.8-5.5,6.3-5.5"/>
			<polygon class="st33" points="28,23.8 17.5,25.4 17.5,21.2 28,19.7 			"/>
		</g>
	</g>
</g>
<g id="Ello" class="st1">
	
		<use xlink:href="#Ello_1_"  width="512" height="512" x="-256" y="-256" transform="matrix(5.468750e-02 0 0 -5.664063e-02 24 22.5)" style="display:inline;overflow:visible;"/>
	<g id="Layer_12">
		
			<use xlink:href="#Ello_1_"  width="512" height="512" x="-256" y="-256" transform="matrix(5.468750e-02 0 0 -5.664063e-02 24 21.5)" style="overflow:visible;"/>
		<g class="st13">
			<ellipse cx="24" cy="22.5" rx="14" ry="14.5"/>
		</g>
		<g class="st13">
			<g>
				<path class="st34" d="M24,31.2c-3.8,0-7.2-2.7-8.1-6.5c-0.1-0.4,0.1-0.9,0.6-1c0.4-0.1,0.9,0.2,1,0.6c0.8,3.1,3.5,5.3,6.6,5.3
					c3.1,0,5.8-2.2,6.6-5.3c0.1-0.4,0.5-0.7,1-0.6c0.4,0.1,0.7,0.6,0.6,1C31.2,28.5,27.8,31.2,24,31.2z"/>
			</g>
		</g>
	</g>
</g>
</svg>
